<svg width="24" height="24" viewBox="0 0 24 24" fill="none" xmlns="http://www.w3.org/2000/svg">
<g clip-path="url(#clip0)">
<path d="M3.23047 9.69238H6.92278V16.6155H3.23047V9.69238Z" fill="#EF4932"/>
<path d="M18.915 9.02582H17.8121L18.0406 8.3428C18.1022 8.15863 18.0028 7.95941 17.8188 7.89782C17.6345 7.83599 17.4353 7.93555 17.3738 8.11963L17.0706 9.02577H14.8132C14.9054 8.75029 15.7 6.37532 15.8506 5.92523C16.4521 6.3126 17.1607 6.52298 17.9134 6.50671L17.7563 6.97626C17.6947 7.16043 17.7941 7.35965 17.9781 7.42124C18.1624 7.48293 18.3615 7.38355 18.4231 7.19943L18.6907 6.39946C21.0887 5.78666 21.8994 2.99235 20.2508 1.1714C20.0702 0.971898 19.7418 1.0416 19.6568 1.29576L18.8371 3.74601L17.6259 3.99248L16.8069 3.06688L17.678 0.463117C17.7153 0.351602 17.6945 0.228883 17.6223 0.135977C17.5502 0.0431641 17.4363 -0.00741405 17.3192 0.000882829C14.4961 0.204742 13.2568 3.44568 15.2663 5.4554L14.6187 7.39115C9.80614 7.50726 10.4313 9.39013 7.36625 9.78163C7.27958 9.35109 6.89858 9.02587 6.44291 9.02587H3.82677C3.30734 9.02587 2.88477 9.44845 2.88477 9.96787V16.1831C2.88477 16.7025 3.30734 17.1251 3.82677 17.1251H6.44291C6.92272 17.1251 7.31909 16.7643 7.37689 16.2998C8.99005 16.4069 9.12762 16.9514 11.3703 17.101L11.228 17.5263C9.9972 17.6991 8.96675 18.5127 8.58308 19.6596C8.2235 20.7344 8.495 21.9488 9.29159 22.8287C9.47173 23.0277 9.80047 22.9589 9.88564 22.7043L10.7054 20.254L11.9165 20.0076L12.7355 20.9332L11.8644 23.5369C11.7853 23.7732 11.9714 24.0168 12.2231 23.9991C14.8717 23.808 16.1883 20.9063 14.5309 18.8332L15.1082 17.108H16.951C17.6534 17.108 18.2249 16.5365 18.2249 15.834C18.2249 15.597 18.1598 15.3749 18.0466 15.1846C18.7938 14.908 19.1066 14.0211 18.7013 13.3398C19.4485 13.0633 19.7613 12.1764 19.356 11.4951C19.8418 11.3152 20.189 10.8473 20.189 10.2998C20.189 9.59737 19.6175 9.02582 18.915 9.02582ZM16.8251 0.795977L16.0756 3.03623C16.0357 3.15534 16.0625 3.28668 16.1457 3.3808L17.2337 4.61048C17.317 4.70451 17.4441 4.74693 17.5671 4.72204L19.1761 4.39462C19.2992 4.36959 19.3996 4.28076 19.4394 4.16165L20.1057 2.17012C20.437 2.77504 20.5094 3.46907 20.2925 4.11744C19.5679 6.28316 16.393 6.36074 15.2906 4.32468C14.517 2.89574 15.2591 1.23004 16.8251 0.795977ZM14.4377 21.618C14.1778 22.3947 13.5295 22.9788 12.7173 23.2039L13.4667 20.9637C13.5066 20.8446 13.4799 20.7133 13.3967 20.6191L12.3087 19.3894C12.2237 19.2934 12.0956 19.2532 11.9752 19.2778L10.3663 19.6052C10.2432 19.6302 10.1428 19.719 10.103 19.8381L9.43672 21.8297C8.32545 19.8 10.3302 17.5718 12.6477 18.3472C14.0708 18.8238 14.8828 20.2871 14.4377 21.618ZM11.9777 17.5014L12.1033 17.1259C12.1033 17.1259 12.3975 17.108 14.3667 17.108L13.9752 18.2781C13.3902 17.814 12.6826 17.5526 11.9777 17.5014ZM18.915 10.8706C18.4131 10.8706 15.1976 10.8706 14.6911 10.8706C14.4969 10.8706 14.3395 11.0279 14.3395 11.2222C14.3395 11.4164 14.4969 11.5738 14.6911 11.5738H18.2604C18.5751 11.5738 18.8312 11.8298 18.8312 12.1445C18.8312 12.4593 18.5751 12.7154 18.2604 12.7154C16.9127 12.7154 16.0325 12.7154 14.6911 12.7154C14.4969 12.7154 14.3395 12.8728 14.3395 13.067C14.3395 13.2612 14.4969 13.4186 14.6911 13.4186H17.6057C17.9204 13.4186 18.1765 13.6746 18.1765 13.9893C18.1765 14.3041 17.9204 14.5602 17.6057 14.5602C17.305 14.5602 14.9897 14.5602 14.6911 14.5602C14.4969 14.5602 14.3395 14.7176 14.3395 14.9118C14.3395 15.106 14.4969 15.2634 14.6911 15.2634H16.951C17.2657 15.2634 17.5218 15.5194 17.5218 15.8341C17.5218 16.1489 17.2657 16.405 16.951 16.405C16.9282 16.405 12.6801 16.4043 12.6573 16.4061C12.6377 16.4076 10.6706 16.554 9.03223 15.9049C8.97026 15.8805 8.26555 15.6483 7.38481 15.5958V12.0182C7.38481 11.824 7.22741 11.6666 7.0332 11.6666C6.839 11.6666 6.68159 11.824 6.68159 12.0182V16.1833C6.68159 16.3149 6.57448 16.422 6.44281 16.422H3.82677C3.69509 16.422 3.58798 16.3149 3.58798 16.1833V9.96777C3.58798 9.8361 3.69509 9.72899 3.82677 9.72899H6.44291C6.57458 9.72899 6.68169 9.8361 6.68169 9.96777V10.9398C6.68169 11.134 6.83909 11.2914 7.0333 11.2914C7.2275 11.2914 7.38491 11.134 7.38491 10.9398V10.4886C10.6965 10.1121 10.0451 8.26959 14.3809 8.10191L13.9915 9.26582C13.9556 9.37307 13.9735 9.49101 14.0395 9.58284C14.1056 9.67462 14.2118 9.72899 14.3249 9.72899C16.6502 9.72899 16.5754 9.72899 18.9151 9.72899C19.2298 9.72899 19.4859 9.98502 19.4859 10.2998C19.4858 10.6146 19.2298 10.8706 18.915 10.8706Z" fill="white"/>
</g>
<defs>
<clipPath id="clip0">
<rect width="24" height="24" fill="white"/>
</clipPath>
</defs>
</svg>
