<svg width="23" height="24" viewBox="0 0 23 24" fill="none" xmlns="http://www.w3.org/2000/svg">
<g clip-path="url(#clip0)">
<path d="M18 5C18 7.76142 16.2614 10 13.5 10C10.7386 10 9 7.76142 9 5C9 2.23858 10.7386 0.5 13.5 0.5C16.2614 0.5 18 2.23858 18 5Z" fill="#EF4932"/>
<path d="M10.6139 16.278C10.7896 16.0948 10.7896 15.7981 10.6139 15.6148C10.4381 15.4321 10.1533 15.4321 9.9773 15.6148C9.80184 15.7981 9.80184 16.0948 9.9773 16.278C10.1533 16.4608 10.4381 16.4608 10.6139 16.278Z" fill="white"/>
<path d="M8.48242 5.15479C8.48242 7.99713 10.7028 10.3098 13.4321 10.3098C16.1613 10.3098 18.3818 7.99713 18.3818 5.15479C18.3818 2.31244 16.1613 0 13.4321 0C10.7028 0 8.48242 2.31244 8.48242 5.15479ZM17.4819 5.15479C17.4819 7.48041 15.6652 9.37244 13.4321 9.37244C11.199 9.37244 9.38227 7.48041 9.38227 5.15479C9.38227 2.82935 11.199 0.937317 13.4321 0.937317C15.6652 0.937317 17.4819 2.82935 17.4819 5.15479Z" fill="white"/>
<path d="M5.20638 23.8613C5.38079 24.0444 5.66474 24.0464 5.84144 23.8652L8.02301 21.6269C8.39363 21.2409 8.50633 20.6694 8.34335 20.1727L8.81261 19.7013C9.06526 19.4472 9.39791 19.3071 9.74955 19.3071H15.7315C16.7927 19.3071 17.7958 18.8827 18.5562 18.112C18.5875 18.0803 18.3186 18.4101 22.6371 13.0348C23.2776 12.2457 23.1818 11.0606 22.4233 10.3928C21.6696 9.73125 20.5405 9.82628 19.8982 10.6019L17.243 13.4441C16.9077 13.0143 16.3964 12.7464 15.844 12.7464H10.8263C10.1123 12.4354 9.35466 12.2779 8.57297 12.2779C6.40617 12.2779 4.51418 13.3201 3.49882 15.2742C3.07105 15.1898 2.6199 15.3246 2.29533 15.6626L0.154731 17.8985C-0.0200336 18.081 -0.0203852 18.3764 0.154028 18.5595L5.20638 23.8613ZM8.57279 13.215C9.262 13.215 9.92836 13.3595 10.5538 13.6444C10.6107 13.6704 10.6721 13.6838 10.7341 13.6838H15.844C16.3319 13.6838 16.744 14.0981 16.744 14.6209C16.744 15.1378 16.3403 15.5582 15.844 15.5582H12.1727C11.9243 15.5582 11.7228 15.7681 11.7228 16.0268C11.7228 16.2857 11.9243 16.4954 12.1727 16.4954H15.844C16.8365 16.4954 17.6438 15.6545 17.6438 14.6209C17.6438 14.5385 17.6382 14.4568 17.628 14.3759C20.1966 11.6262 20.5588 11.2399 20.5742 11.2206C20.8949 10.8264 21.4642 10.7764 21.8429 11.1089C22.222 11.4427 22.27 12.0353 21.9484 12.4317L17.9125 17.4565C17.3232 18.0457 16.5494 18.37 15.7315 18.37H9.74955C9.16337 18.37 8.60848 18.6034 8.18757 19.027L7.80516 19.4113L4.27998 15.7402C5.10387 14.1305 6.64985 13.215 8.57279 13.215ZM2.93215 16.3249C3.08054 16.1703 3.30841 16.1425 3.48932 16.259C3.56721 16.3084 3.34357 16.0964 7.38671 20.3012C7.56658 20.4885 7.55691 20.787 7.38918 20.9617L5.52936 22.8698L1.10802 18.2301L2.93215 16.3249Z" fill="white"/>
<path d="M12.8917 2.34326V2.8924C12.3679 3.08575 11.9917 3.60669 11.9917 4.21771C11.9917 4.9928 12.5972 5.6236 13.3416 5.6236C13.5897 5.6236 13.7915 5.8338 13.7915 6.09216C13.7915 6.35053 13.5897 6.56073 13.3416 6.56073C13.1494 6.56073 12.9418 6.43494 12.7573 6.20624C12.5974 6.00812 12.3136 5.98267 12.1233 6.14911C11.9331 6.31574 11.9085 6.61127 12.0685 6.80939C12.309 7.1073 12.5919 7.31494 12.8917 7.41968V7.96662C12.8917 8.22553 13.0932 8.43518 13.3416 8.43518C13.59 8.43518 13.7915 8.22553 13.7915 7.96662V7.41748C14.3153 7.22394 14.6915 6.703 14.6915 6.09216C14.6915 5.3169 14.086 4.68628 13.3416 4.68628C13.0935 4.68628 12.8917 4.47608 12.8917 4.21771C12.8917 3.95935 13.0935 3.74896 13.3416 3.74896C13.5011 3.74896 13.6693 3.83374 13.8283 3.99396C14.0069 4.17395 14.2917 4.16901 14.4646 3.98316C14.6374 3.79712 14.6326 3.50049 14.4542 3.3205C14.2258 3.09033 13.9972 2.96014 13.7915 2.8891V2.34326C13.7915 2.08435 13.59 1.87451 13.3416 1.87451C13.0932 1.87451 12.8917 2.08435 12.8917 2.34326Z" fill="white"/>
</g>
<defs>
<clipPath id="clip0">
<rect width="23" height="24" fill="white"/>
</clipPath>
</defs>
</svg>
