<svg width="22" height="22" viewBox="0 0 22 22" fill="none" xmlns="http://www.w3.org/2000/svg">
<path d="M8.99964 5.9999C9.39964 0.799896 13.1663 0.166563 14.9996 0.499896C18.4993 -3.26633e-05 21 1.99983 21.5 4.99983C21.9 7.39983 20.3333 9.66649 19.5 10.4998L19 13.4998L17.5 11.9998H15.9996C13.4996 12.1665 8.59964 11.1999 8.99964 5.9999Z" fill="#EF4932"/>
<path d="M14.8672 13.707C14.6299 13.707 14.4375 13.8994 14.4375 14.1367V17.1016C14.4375 18.2862 13.4737 19.25 12.2891 19.25H7.64981C7.41258 19.25 7.2203 19.4422 7.22012 19.6794L7.21952 20.5337L6.19394 19.5082C6.12756 19.3557 5.97562 19.25 5.79988 19.25H3.00781C1.82316 19.25 0.859375 18.2862 0.859375 17.1016V10.4844C0.859375 9.29973 1.82316 8.33594 3.00781 8.33594H7.34766C7.58493 8.33594 7.77734 8.14357 7.77734 7.90625C7.77734 7.66893 7.58493 7.47656 7.34766 7.47656H3.00781C1.3493 7.47656 0 8.82587 0 10.4844V17.1016C0 18.7601 1.3493 20.1094 3.00781 20.1094H5.57984L7.34461 21.8741C7.4268 21.9563 7.53668 22 7.64852 22C7.70382 22 7.75964 21.9893 7.81271 21.9673C7.97328 21.9009 8.078 21.7443 8.07812 21.5706L8.07916 20.1094H12.2891C13.9476 20.1094 15.2969 18.7601 15.2969 17.1016V14.1367C15.2969 13.8994 15.1045 13.707 14.8672 13.707Z" fill="white"/>
<path d="M15.7547 0H14.6672C11.2235 0 8.42188 2.80165 8.42188 6.24534C8.42188 9.68902 11.2235 12.4906 14.6672 12.4906H15.7547C16.2922 12.4906 16.8242 12.4224 17.3398 12.2874L18.9463 13.893C19.0285 13.9751 19.1383 14.0188 19.2501 14.0188C19.3055 14.0188 19.3613 14.0081 19.4145 13.986C19.575 13.9195 19.6797 13.7628 19.6797 13.5891V11.1031C20.3598 10.5523 20.9248 9.85647 21.3214 9.07917C21.7717 8.19633 22 7.2429 22 6.24534C22 2.80165 19.1984 0 15.7547 0ZM18.9915 10.5503C18.8837 10.6315 18.8203 10.7586 18.8203 10.8936V12.5522L17.7688 11.5012C17.687 11.4195 17.5773 11.3755 17.465 11.3755C17.4229 11.3755 17.3804 11.3817 17.3389 11.3945C16.8274 11.5516 16.2944 11.6313 15.7547 11.6313H14.6672C11.6973 11.6313 9.28125 9.21516 9.28125 6.24534C9.28125 3.27551 11.6974 0.859375 14.6672 0.859375H15.7547C18.7245 0.859375 21.1406 3.27551 21.1406 6.24534C21.1406 7.95253 20.3573 9.52166 18.9915 10.5503Z" fill="white"/>
<path d="M17.1456 4.70166C17.0836 3.8021 16.3585 3.07696 15.4589 3.01496C14.9489 2.97994 14.4623 3.15194 14.0898 3.49969C13.7224 3.84262 13.5117 4.3274 13.5117 4.82975C13.5117 5.06706 13.7041 5.25943 13.9414 5.25943C14.1787 5.25943 14.3711 5.06706 14.3711 4.82975C14.3711 4.5608 14.4795 4.31154 14.6762 4.12794C14.8727 3.9445 15.1296 3.85371 15.3999 3.87236C15.8737 3.90501 16.2557 4.28696 16.2883 4.76078C16.3213 5.23932 16.0073 5.66222 15.5418 5.76638C15.1646 5.85077 14.9012 6.17853 14.9012 6.56341V7.59573C14.9012 7.83305 15.0937 8.02542 15.3309 8.02542C15.5682 8.02542 15.7606 7.83305 15.7606 7.59573V6.59774C16.6264 6.38857 17.2073 5.59631 17.1456 4.70166Z" fill="white"/>
<path d="M15.6339 8.99162C15.5539 8.9117 15.4431 8.86572 15.3301 8.86572C15.2171 8.86572 15.1062 8.9117 15.0263 8.99162C14.9464 9.07154 14.9004 9.1824 14.9004 9.29541C14.9004 9.40885 14.9464 9.51971 15.0263 9.59963C15.1062 9.67955 15.2171 9.7251 15.3301 9.7251C15.4431 9.7251 15.5539 9.67955 15.6339 9.59963C15.7138 9.51928 15.7598 9.40885 15.7598 9.29541C15.7598 9.1824 15.7137 9.07154 15.6339 8.99162Z" fill="white"/>
<path d="M11.8164 13.3203H2.75C2.51273 13.3203 2.32031 13.5127 2.32031 13.75C2.32031 13.9873 2.51273 14.1797 2.75 14.1797H11.8164C12.0537 14.1797 12.2461 13.9873 12.2461 13.75C12.2461 13.5127 12.0537 13.3203 11.8164 13.3203Z" fill="white"/>
<path d="M12.1202 15.8525C12.0403 15.7725 11.9294 15.7266 11.8164 15.7266C11.7034 15.7266 11.5925 15.7725 11.5126 15.8525C11.4327 15.9324 11.3867 16.0432 11.3867 16.1562C11.3867 16.2693 11.4327 16.3801 11.5126 16.46C11.5925 16.54 11.7034 16.5859 11.8164 16.5859C11.9294 16.5859 12.0403 16.54 12.1202 16.46C12.2001 16.3801 12.2461 16.2697 12.2461 16.1562C12.2461 16.0432 12.2001 15.9324 12.1202 15.8525Z" fill="white"/>
<path d="M10.1263 15.7266H2.75C2.51273 15.7266 2.32031 15.9189 2.32031 16.1562C2.32031 16.3936 2.51273 16.5859 2.75 16.5859H10.1263C10.3636 16.5859 10.556 16.3936 10.556 16.1562C10.556 15.9189 10.3636 15.7266 10.1263 15.7266Z" fill="white"/>
<path d="M9.02344 10.9141H2.75C2.51273 10.9141 2.32031 11.1064 2.32031 11.3438C2.32031 11.5811 2.51273 11.7734 2.75 11.7734H9.02344C9.26075 11.7734 9.45312 11.5811 9.45312 11.3438C9.45312 11.1064 9.26071 10.9141 9.02344 10.9141Z" fill="white"/>
</svg>
