<svg width="24" height="25" viewBox="0 0 24 25" fill="none" xmlns="http://www.w3.org/2000/svg">
<g clip-path="url(#clip0)">
<path d="M1.63086 20.5264L13.7098 20.9737V23.2106H1.63086V20.5264Z" fill="#EF4932"/>
<path d="M12.8526 24.1052H2.19028C1.38867 24.1052 0.736328 23.4529 0.736328 22.6513V21.682C0.736328 20.8804 1.38867 20.228 2.19028 20.228H12.8526C13.6542 20.228 14.3065 20.8804 14.3065 21.682V22.6513C14.3065 23.4529 13.6542 24.1052 12.8526 24.1052ZM2.19028 21.1973C1.92275 21.1973 1.70563 21.4154 1.70563 21.682V22.6513C1.70563 22.9178 1.92275 23.1359 2.19028 23.1359H12.8526C13.1201 23.1359 13.3372 22.9178 13.3372 22.6513V21.682C13.3372 21.4154 13.1201 21.1973 12.8526 21.1973H2.19028Z" fill="white"/>
<path d="M11.1005 13.082C10.8746 13.082 10.6585 13.0161 10.4801 12.8377L7.0779 9.43548C6.48275 8.84033 7.13702 7.81093 7.35124 7.47362C7.7535 6.84164 8.37966 6.08752 9.11633 5.35085C9.85397 4.61225 10.6091 3.98414 11.241 3.58188C11.5803 3.36573 12.6107 2.71146 13.2058 3.3066L16.608 6.70884C17.2042 7.30496 16.5479 8.33629 16.3328 8.67458C15.9295 9.30753 15.3014 10.0626 14.5628 10.8002C13.8262 11.5369 13.072 12.1631 12.441 12.5644C12.2055 12.7156 11.6288 13.082 11.1005 13.082ZM12.5215 3.9919C12.3518 3.99868 11.2885 4.55021 9.8055 6.03227C8.32248 7.5153 7.76998 8.57959 7.80487 8.81997L11.1664 12.1524C11.337 12.1456 12.4003 11.5941 13.8843 10.1111C15.3111 8.6833 15.8752 7.64518 15.8849 7.35439L12.5215 3.9919Z" fill="white"/>
<path d="M9.46268 15.3027C9.09241 15.3027 8.72117 15.1612 8.4391 14.8791L5.03686 11.4769C4.76352 11.2045 4.61328 10.841 4.61328 10.4543C4.61328 10.0675 4.76352 9.70404 5.03783 9.43069L5.71828 8.75025C6.28241 8.18612 7.20034 8.18612 7.76447 8.75025L11.1667 12.1525C11.7308 12.7166 11.7308 13.6345 11.1667 14.1987L10.4863 14.8791C10.2032 15.1612 9.83295 15.3027 9.46268 15.3027ZM6.74089 9.29596C6.61876 9.29596 6.49663 9.34346 6.40261 9.43651L5.72313 10.116C5.63201 10.2071 5.58258 10.3263 5.58258 10.4543C5.58258 10.5822 5.63201 10.7014 5.72313 10.7926L9.12536 14.1948C9.31244 14.3809 9.61486 14.3799 9.80097 14.1948L10.4814 13.5143C10.6675 13.3282 10.6675 13.0249 10.4814 12.8387L7.07918 9.43651C6.98515 9.34346 6.86302 9.29596 6.74089 9.29596Z" fill="white"/>
<path d="M16.9485 7.81687C16.5783 7.81687 16.207 7.67535 15.9249 7.39329L12.5227 3.99105C11.9586 3.42692 11.9586 2.50996 12.5227 1.94583L13.2032 1.26538C13.7673 0.701252 14.6852 0.701252 15.2493 1.26538L18.6516 4.66762C19.2157 5.23175 19.2157 6.14968 18.6516 6.71381L17.9711 7.39426C17.6891 7.67632 17.3188 7.81687 16.9485 7.81687ZM14.2267 1.81207C14.1046 1.81207 13.9825 1.85859 13.8884 1.95165L13.208 2.63209C13.0219 2.8182 13.0219 3.12062 13.208 3.30673L16.6102 6.70896C16.7963 6.8941 17.0997 6.8941 17.2858 6.70896L17.9663 6.02948C18.1524 5.84338 18.1524 5.53999 17.9663 5.35388L14.5641 1.95165C14.471 1.85859 14.3489 1.81207 14.2267 1.81207ZM18.3084 6.37165H18.3181H18.3084Z" fill="white"/>
<path d="M22.1549 20.2308C21.5704 20.2308 20.9413 19.8964 20.2725 19.2276C19.6037 18.5588 15.6712 14.2309 13.2305 11.353C13.057 11.1495 13.0822 10.8432 13.2867 10.6707C13.4903 10.4972 13.7966 10.5214 13.9701 10.7269C16.5155 13.7278 20.3801 17.9646 20.9578 18.5423C22.0492 19.6357 22.4747 19.2102 22.7287 18.9582C22.845 18.8418 23.0049 18.6829 23.0272 18.4551C23.0602 18.1246 22.813 17.6864 22.3138 17.1863C21.741 16.6125 17.5109 12.7537 14.4984 10.1967C14.2938 10.0232 14.2686 9.71784 14.4421 9.51429C14.6166 9.30782 14.922 9.28553 15.1255 9.45807C18.015 11.9094 22.338 15.837 23.001 16.501C23.7232 17.2231 24.0576 17.9133 23.9936 18.5511C23.9364 19.122 23.5846 19.4738 23.4159 19.6425C23.0224 20.035 22.6017 20.2308 22.1549 20.2308Z" fill="white"/>
</g>
<defs>
<clipPath id="clip0">
<rect width="23.2632" height="23.2632" fill="white" transform="translate(0.736328 0.842041)"/>
</clipPath>
</defs>
</svg>
