<svg width="22" height="22" viewBox="0 0 22 22" fill="none" xmlns="http://www.w3.org/2000/svg">
<g clip-path="url(#clip0)">
<path d="M17.5 11L15 12V8L5.5 3.5L5 3L7.5 2L17 6.5L17.5 7V11Z" fill="#EF4932"/>
<path d="M21.1296 4.85424L11.1407 0.0320332C11.0521 -0.0106777 10.949 -0.0106777 10.8605 0.0320332L0.871598 4.85424C0.760223 4.908 0.689453 5.02079 0.689453 5.14445V16.8555C0.689453 16.9792 0.760223 17.092 0.871598 17.1458L10.8605 21.968C10.9047 21.9893 10.9527 22 11.0006 22C11.0485 22 11.0964 21.9893 11.1407 21.968L21.1296 17.1458C21.2409 17.092 21.3117 16.9792 21.3117 16.8555V5.1445C21.3117 5.02075 21.2409 4.90804 21.1296 4.85424ZM11.0006 0.680131L20.2482 5.14445L17.5675 6.43859C17.5505 6.42565 17.5326 6.41371 17.5129 6.40421L8.32814 1.97027L11.0006 0.680131ZM7.60033 2.33464L16.8345 6.79248L14.9432 7.70552L5.71289 3.24949L7.60033 2.33464ZM17.0505 7.40384V10.7789L15.284 11.6317V8.25668L17.0505 7.40384ZM20.6672 16.6533L11.3228 21.1643V10.1689L13.5518 9.0929C13.712 9.01551 13.7792 8.82288 13.7019 8.66256C13.6245 8.50233 13.4318 8.43505 13.2715 8.51248L11.0006 9.60882L10.107 9.17742C9.94668 9.09994 9.75406 9.16723 9.67667 9.32751C9.59928 9.48778 9.66648 9.68045 9.82676 9.75784L10.6783 10.1689V21.1643L1.33398 16.6532V5.65789L8.44961 9.09303C8.49477 9.11485 8.54251 9.12517 8.58947 9.12517C8.70927 9.12517 8.82434 9.05805 8.8799 8.94294C8.95728 8.78266 8.89008 8.58999 8.72981 8.5126L1.75297 5.14445L4.95436 3.59896L14.635 8.27237C14.6364 8.27434 14.638 8.2761 14.6394 8.27804V12.1452C14.6394 12.2561 14.6964 12.3592 14.7904 12.4182C14.8425 12.4509 14.9021 12.4674 14.9617 12.4674C15.0095 12.4674 15.0574 12.4568 15.1018 12.4354L17.5129 11.2714C17.6243 11.2177 17.6951 11.1049 17.6951 10.9812V7.09274L20.6672 5.65793V16.6533Z" fill="white"/>
<path d="M3.9928 15.4034L2.52692 14.6957C2.36656 14.6183 2.17397 14.6856 2.09658 14.8458C2.0192 15.0061 2.0864 15.1988 2.24667 15.2762L3.71255 15.9838C3.75771 16.0056 3.80545 16.0159 3.85242 16.0159C3.97222 16.0159 4.08729 15.9488 4.14284 15.8337C4.22027 15.6734 4.15307 15.4808 3.9928 15.4034Z" fill="white"/>
<path d="M5.34179 14.5254L2.52884 13.1674C2.36852 13.09 2.1759 13.1572 2.09851 13.3175C2.02116 13.4778 2.08837 13.6705 2.24864 13.7478L5.06159 15.1058C5.10675 15.1276 5.15449 15.138 5.20145 15.138C5.32125 15.138 5.43632 15.0709 5.49188 14.9557C5.56927 14.7954 5.50206 14.6027 5.34179 14.5254Z" fill="white"/>
</g>
<defs>
<clipPath id="clip0">
<rect width="22" height="22" fill="white"/>
</clipPath>
</defs>
</svg>
