<svg width="22" height="22" viewBox="0 0 22 22" fill="none" xmlns="http://www.w3.org/2000/svg">
<g clip-path="url(#clip0)">
<path d="M11 21.5V11H21.5V19.5C21.5 21.1 20.1667 21.5 19.5 21.5H11Z" fill="#EF4932"/>
<path d="M21.5423 10.5417C21.799 10.5417 22.0006 10.7434 22.0006 11.0001C22.0006 11.2567 21.799 11.4584 21.5423 11.4584H21.084V10.5417H21.5423Z" fill="white"/>
<path d="M11.459 10.5417H21.084V11.4584H11.459V10.5417Z" fill="white"/>
<path d="M19.7083 22H11C11.2567 22 11.4583 21.7983 11.4583 21.5417V21.0833H19.7083C20.4692 21.0833 21.0833 20.4692 21.0833 19.7083V11.4583H21.5417C21.7983 11.4583 22 11.2567 22 11V19.7083C22 20.9733 20.9733 22 19.7083 22Z" fill="white"/>
<path d="M22 2.29167V11C22 10.7433 21.7983 10.5417 21.5417 10.5417H21.0833V2.29167C21.0833 1.53083 20.4692 0.916667 19.7083 0.916667H11.4583V0.458333C11.4583 0.201667 11.2567 0 11 0H19.7083C20.9733 0 22 1.02667 22 2.29167Z" fill="white"/>
<path d="M18.334 5.5C18.5906 5.5 18.7923 5.70167 18.7923 5.95834C18.7923 6.215 18.5906 6.41667 18.334 6.41667H14.6673C14.4107 6.41667 14.209 6.215 14.209 5.95834C14.209 5.70167 14.4107 5.5 14.6673 5.5H18.334Z" fill="white"/>
<path d="M18.334 14.6667C18.5906 14.6667 18.7923 14.8684 18.7923 15.1251C18.7923 15.3817 18.5906 15.5834 18.334 15.5834H14.6673C14.4107 15.5834 14.209 15.3817 14.209 15.1251C14.209 14.8684 14.4107 14.6667 14.6673 14.6667H18.334Z" fill="white"/>
<path d="M18.334 17.4167C18.5906 17.4167 18.7923 17.6184 18.7923 17.8751C18.7923 18.1317 18.5906 18.3334 18.334 18.3334H14.6673C14.4107 18.3334 14.209 18.1317 14.209 17.8751C14.209 17.6184 14.4107 17.4167 14.6673 17.4167H18.334Z" fill="white"/>
<path d="M11.4577 21.0833V21.5416C11.4577 21.7983 11.256 21.9999 10.9993 21.9999C10.7427 21.9999 10.541 21.7983 10.541 21.5416V21.0833H11.4577Z" fill="white"/>
<path d="M10.541 11.4583H11.4577V21.0833H10.541V11.4583Z" fill="white"/>
<path d="M10.541 10.5417H11.4577V11.4584H10.541V10.5417Z" fill="white"/>
<path d="M10.541 0.916748H11.4577V10.5417H10.541V0.916748Z" fill="white"/>
<path d="M11.4577 0.458333V0.916667H10.541V0.458333C10.541 0.201667 10.7427 0 10.9993 0C11.256 0 11.4577 0.201667 11.4577 0.458333Z" fill="white"/>
<path d="M0.916016 10.5417H10.541V11.4584H0.916016V10.5417Z" fill="white"/>
<path d="M7.33398 5.5C7.59065 5.5 7.79231 5.70167 7.79231 5.95834C7.79231 6.215 7.59065 6.41667 7.33398 6.41667H5.95898V5.5H7.33398Z" fill="white"/>
<path d="M7.19584 17.5542C7.37917 17.7283 7.37917 18.0217 7.19584 18.1958C7.11334 18.2875 6.99417 18.3333 6.87501 18.3333C6.75584 18.3333 6.63667 18.2875 6.55417 18.1958L5.5 17.1417L6.14167 16.5L7.19584 17.5542Z" fill="white"/>
<path d="M6.55417 14.8042C6.72834 14.6209 7.02167 14.6209 7.19584 14.8042C7.37917 14.9784 7.37917 15.2717 7.19584 15.4459L6.14167 16.5001L5.5 15.8584L6.55417 14.8042Z" fill="white"/>
<path d="M4.85547 16.4993L5.49717 15.8576L6.13887 16.4993L5.49717 17.141L4.85547 16.4993Z" fill="white"/>
<path d="M5.95769 6.41675V7.79175C5.95769 8.04841 5.75602 8.25008 5.49935 8.25008C5.24268 8.25008 5.04102 8.04841 5.04102 7.79175V6.41675H5.95769Z" fill="white"/>
<path d="M5.04102 5.5H5.95769V6.41667H5.04102V5.5Z" fill="white"/>
<path d="M5.95769 4.12508V5.50008H5.04102V4.12508C5.04102 3.86841 5.24268 3.66675 5.49935 3.66675C5.75602 3.66675 5.95769 3.86841 5.95769 4.12508Z" fill="white"/>
<path d="M5.49936 15.8584L4.85769 16.5001L3.80352 15.4459C3.62018 15.2717 3.62018 14.9784 3.80352 14.8042C3.97768 14.6209 4.27102 14.6209 4.44519 14.8042L5.49936 15.8584Z" fill="white"/>
<path d="M5.04231 5.5V6.41667H3.66732C3.41065 6.41667 3.20898 6.215 3.20898 5.95834C3.20898 5.70167 3.41065 5.5 3.66732 5.5H5.04231Z" fill="white"/>
<path d="M4.44519 18.1958C4.36268 18.2875 4.24352 18.3333 4.12435 18.3333C4.00518 18.3333 3.88602 18.2875 3.80352 18.1958C3.62018 18.0217 3.62018 17.7283 3.80352 17.5542L4.85769 16.5L5.49936 17.1417L4.44519 18.1958Z" fill="white"/>
<path d="M0.916667 10.5417V11.4584H0.458333C0.201667 11.4584 0 11.2567 0 11.0001C0 10.7434 0.201667 10.5417 0.458333 10.5417H0.916667Z" fill="white"/>
<path d="M0 2.29167C0 1.02667 1.02667 0 2.29167 0H11C10.7433 0 10.5417 0.201667 10.5417 0.458333V0.916667H2.29167C1.53083 0.916667 0.916667 1.53083 0.916667 2.29167V10.5417H0.458333C0.201667 10.5417 0 10.7433 0 11V2.29167Z" fill="white"/>
<path d="M0.916667 19.7083C0.916667 20.4692 1.53083 21.0833 2.29167 21.0833H10.5417V21.5417C10.5417 21.7983 10.7433 22 11 22H2.29167C1.02667 22 0 20.9733 0 19.7083V11C0 11.2567 0.201667 11.4583 0.458333 11.4583H0.916667V19.7083Z" fill="white"/>
</g>
<defs>
<clipPath id="clip0">
<rect width="22" height="22" fill="white"/>
</clipPath>
</defs>
</svg>
