<svg width="24" height="24" viewBox="0 0 24 24" fill="none" xmlns="http://www.w3.org/2000/svg">
<g clip-path="url(#clip0)">
<path d="M20 4L16 8C16.3333 8.33333 17.1 9.5 17.5 11.5C17.9 13.5 16.6667 15.3333 16 16L20 20C21.1667 19.5 23.5 17.3 23.5 12.5C23.5 7.7 21.1667 4.83333 20 4Z" fill="#EF4932"/>
<path d="M19.8488 6.31393C19.631 6.45567 19.5692 6.74715 19.711 6.96498C20.6956 8.47858 21.1933 10.2918 21.1503 12.2088C21.1445 12.4686 21.3503 12.684 21.6102 12.6899C21.6138 12.6899 21.6174 12.69 21.621 12.69C21.8759 12.69 22.0855 12.4861 22.0912 12.23C22.1385 10.1228 21.5883 8.12475 20.4999 6.45171C20.3581 6.23397 20.0667 6.17228 19.8488 6.31393Z" fill="white"/>
<path d="M4 4L8 8C7.66667 8.33333 6.9 9.5 6.5 11.5C6.1 13.5 7.33333 15.3333 8 16L4 20C2.83333 19.5 0.5 17.3 0.5 12.5C0.5 7.7 2.83333 4.83333 4 4Z" fill="#EF4932"/>
<path d="M20.4871 20.4834C22.7524 18.2171 24 15.2044 24 12C24 8.79468 22.7518 5.78122 20.4853 3.51473C20.4851 3.51459 20.485 3.51449 20.4849 3.51435C20.4847 3.51416 20.4846 3.51398 20.4844 3.51379C20.4841 3.51351 20.4837 3.51322 20.4834 3.51294C18.2171 1.24758 15.2044 0 12 0C8.79558 0 5.78287 1.24758 3.51661 3.51289C3.51633 3.51318 3.51595 3.51346 3.51567 3.51374C3.51548 3.51393 3.51534 3.51412 3.51515 3.51431C3.51501 3.51445 3.51487 3.51454 3.51478 3.51468C1.24824 5.78122 0 8.79468 0 12C0 15.2044 1.24758 18.2171 3.51289 20.4834C3.51318 20.4837 3.51346 20.484 3.51374 20.4843C3.51393 20.4845 3.51412 20.4847 3.51431 20.4848C3.51445 20.485 3.51454 20.4851 3.51468 20.4852C5.78122 22.7518 8.79468 24 12 24C15.2053 24 18.2188 22.7518 20.4853 20.4853C20.4854 20.4851 20.4855 20.485 20.4856 20.4849C20.4858 20.4847 20.486 20.4846 20.4862 20.4844C20.4865 20.484 20.4868 20.4837 20.4871 20.4834ZM20.1424 19.475L16.7306 16.0632C17.6703 14.9708 18.2391 13.5506 18.2391 12C18.2391 10.4484 17.6696 9.02744 16.7289 7.93473L20.1405 4.52311C21.9514 6.49313 23.0588 9.11953 23.0588 12C23.0588 14.8795 21.9522 17.5051 20.1424 19.475ZM6.70212 12C6.70212 9.07873 9.07873 6.70212 12 6.70212C14.9213 6.70212 17.2979 9.07873 17.2979 12C17.2979 14.9213 14.9213 17.2979 12 17.2979C9.07873 17.2979 6.70212 14.9213 6.70212 12ZM19.475 3.85765L16.0632 7.26936C14.9708 6.32969 13.5506 5.76094 12 5.76094C10.4494 5.76094 9.02922 6.32969 7.9368 7.26936L4.52504 3.85765C6.49487 2.04781 9.12047 0.941176 12 0.941176C14.8795 0.941176 17.5051 2.04781 19.475 3.85765ZM3.85944 4.52311L7.27106 7.93473C6.33035 9.02744 5.76089 10.4484 5.76089 12C5.76089 13.5506 6.32965 14.9708 7.26932 16.0632L3.8576 19.475C2.04781 17.5051 0.941176 14.8795 0.941176 12C0.941176 9.11953 2.04856 6.49313 3.85944 4.52311ZM4.52311 20.1406L7.93473 16.7289C9.02744 17.6696 10.4484 18.2391 12 18.2391C13.5516 18.2391 14.9726 17.6696 16.0653 16.7289L19.4769 20.1406C17.5069 21.9514 14.8805 23.0588 12 23.0588C9.11953 23.0588 6.49313 21.9514 4.52311 20.1406Z" fill="white"/>
<path d="M21.9158 13.6555C21.8015 13.3514 21.3712 13.2669 21.1488 13.5025C20.8539 13.7937 21.0671 14.3082 21.4815 14.3058C21.8054 14.3148 22.0497 13.9514 21.9158 13.6555Z" fill="white"/>
</g>
<defs>
<clipPath id="clip0">
<rect width="24" height="24" fill="white"/>
</clipPath>
</defs>
</svg>
