<svg width="17" height="18" viewBox="0 0 17 18" fill="none" xmlns="http://www.w3.org/2000/svg">
<path d="M15.6359 11.4173C14.5951 11.4173 13.5732 11.2546 12.6047 10.9345C12.1302 10.7727 11.5469 10.9212 11.2572 11.2186L9.34575 12.6616C7.12898 11.4783 5.76349 10.1132 4.59633 7.91308L5.99684 6.05141C6.3607 5.68803 6.49121 5.15722 6.33485 4.65918C6.01344 3.68566 5.85017 2.6642 5.85017 1.62295C5.85021 0.870745 5.23826 0.258789 4.4861 0.258789H1.36412C0.611956 0.258789 0 0.870745 0 1.62291C0 10.2447 7.01418 17.2588 15.6359 17.2588C16.3881 17.2588 17 16.6468 17 15.8947V12.7814C17 12.0293 16.388 11.4173 15.6359 11.4173Z" fill="white"/>
</svg>
