<svg width="22" height="22" viewBox="0 0 22 22" fill="none" xmlns="http://www.w3.org/2000/svg">
<path d="M10.5 11.5L15 9.5L20 11.5C20 11.5 20.4291 13.998 20 15.5C19.2414 18.1552 16 20 15 20.5C12.2 19.7 10.8333 16.5 10.5 15V11.5Z" fill="#EF4932"/>
<path d="M17.4896 16.5524C17.2945 16.4172 17.0268 16.4658 16.8916 16.6608C16.7607 16.8499 16.6123 17.0337 16.4503 17.2073C16.3418 17.3237 16.1925 17.464 16.0301 17.6022C15.8494 17.756 15.8276 18.0272 15.9814 18.208C16.0663 18.3078 16.1872 18.3591 16.3088 18.3591C16.4073 18.3591 16.5062 18.3255 16.5871 18.2566C16.7766 18.0953 16.9467 17.9352 17.0788 17.7933C17.2688 17.5897 17.4435 17.3734 17.598 17.1503C17.7332 16.9553 17.6846 16.6876 17.4896 16.5524Z" fill="white"/>
<path d="M15.6186 18.479C15.5178 18.2642 15.262 18.1717 15.0471 18.2725L15.0336 18.2785C14.8165 18.3743 14.7182 18.628 14.8141 18.8451C14.885 19.0058 15.0423 19.1014 15.2074 19.1014C15.2653 19.1014 15.3242 19.0896 15.3806 19.0647C15.3911 19.0601 15.4015 19.0554 15.4119 19.0505C15.6268 18.9497 15.7193 18.6939 15.6186 18.479Z" fill="white"/>
<path d="M20.7163 1.11719H1.28369C0.575823 1.11719 0 1.6931 0 2.40088V14.4429C0 15.1507 0.575823 15.7265 1.28369 15.7265H10.3323C10.7159 17.3495 11.5833 18.4989 12.3414 19.2353C13.4479 20.3103 14.7163 20.8827 15.2066 20.8827C15.6968 20.8827 16.9652 20.3103 18.0718 19.2353C18.8299 18.4989 19.6973 17.3495 20.0808 15.7266H20.7163C21.4241 15.7266 22 15.1507 22 14.443V2.40088C22 1.6931 21.4241 1.11719 20.7163 1.11719ZM19.4218 13.9656C19.4219 16.2295 18.3768 17.7312 17.5001 18.5924C16.4601 19.6139 15.3934 20.0112 15.2066 20.0233C15.0197 20.0112 13.9529 19.6139 12.9129 18.5924C12.0363 17.7312 10.9913 16.2295 10.9913 13.9656V11.8496C12.4707 11.4217 13.8549 10.8362 15.2067 10.0667C16.528 10.8166 17.9743 11.4282 19.4218 11.8493V13.9656ZM21.1406 14.4429C21.1406 14.6769 20.9502 14.8672 20.7163 14.8672H20.2303C20.2632 14.5792 20.2813 14.279 20.2813 13.9656V11.5238C20.2813 11.3298 20.1513 11.16 19.9642 11.1091C18.4039 10.6854 16.8337 10.0252 15.4236 9.19977C15.2895 9.12131 15.1236 9.12139 14.9894 9.19985C13.5393 10.0487 12.0541 10.6731 10.4489 11.1091C10.2618 11.16 10.1319 11.3299 10.1319 11.5238V13.9656C10.1319 14.279 10.1499 14.5792 10.1828 14.8672H1.28369C1.04972 14.8672 0.859373 14.6768 0.859373 14.4429V7.13272H21.1406V14.4429ZM21.1406 6.27339H0.859373V4.55472H21.1406V6.27339ZM21.1406 3.69531H0.859373V2.40088C0.859373 2.16691 1.04972 1.97656 1.28369 1.97656H20.7163C20.9502 1.97656 21.1406 2.16691 21.1406 2.40088V3.69531Z" fill="white"/>
<path d="M5.15607 10.1409C4.89701 10.1409 4.64122 10.1932 4.40446 10.2931C4.17316 10.1951 3.91896 10.1409 3.65238 10.1409C2.5862 10.1409 1.71875 11.0082 1.71875 12.0744C1.71875 13.1405 2.58616 14.008 3.65238 14.008C3.91896 14.008 4.17316 13.9537 4.40442 13.8557C4.64122 13.9556 4.89701 14.008 5.15607 14.008C6.22229 14.008 7.08974 13.1405 7.08974 12.0744C7.08974 11.0082 6.22229 10.1409 5.15607 10.1409ZM3.65238 13.1486C3.06002 13.1486 2.57812 12.6667 2.57812 12.0744C2.57812 11.4821 3.06002 11.0002 3.65238 11.0002C4.24466 11.0002 4.72655 11.4821 4.72655 12.0744C4.72655 12.6667 4.24466 13.1486 3.65238 13.1486ZM5.26259 13.1434C5.46669 12.8369 5.58593 12.4693 5.58593 12.0744C5.58593 11.6795 5.46669 11.312 5.26263 11.0056C5.80511 11.0592 6.23033 11.5181 6.23033 12.0744C6.23033 12.6307 5.80511 13.0897 5.26259 13.1434Z" fill="white"/>
<path d="M4.35862 8.20703H2.14844C1.91112 8.20703 1.71875 8.3994 1.71875 8.63672C1.71875 8.87399 1.91112 9.06641 2.14844 9.06641H4.35862C4.59593 9.06641 4.7883 8.87395 4.7883 8.63672C4.7883 8.3994 4.59593 8.20703 4.35862 8.20703Z" fill="white"/>
<path d="M5.62974 8.20703H5.60937C5.37206 8.20703 5.17969 8.3994 5.17969 8.63672C5.17969 8.87399 5.37206 9.06641 5.60937 9.06641H5.62974C5.86701 9.06641 6.05943 8.87395 6.05943 8.63672C6.05943 8.3994 5.86701 8.20703 5.62974 8.20703Z" fill="white"/>
<path d="M17.5658 12.9776C17.3981 12.8099 17.126 12.8098 16.9582 12.9776L14.6603 15.2752L13.4562 14.071C13.2884 13.9034 13.0163 13.9033 12.8485 14.071C12.6807 14.2389 12.6807 14.511 12.8485 14.6788L14.3565 16.1868C14.4404 16.2707 14.5504 16.3127 14.6603 16.3127C14.7703 16.3127 14.8803 16.2707 14.9641 16.1868L17.5657 13.5853C17.7336 13.4176 17.7336 13.1455 17.5658 12.9776Z" fill="white"/>
</svg>
