<svg width="14" height="14" viewBox="0 0 14 14" fill="none" xmlns="http://www.w3.org/2000/svg">
<path d="M0.388275 6.8855L3.52963 8.12311L4.75421 12.286C4.80745 12.5672 5.12691 12.6235 5.33989 12.4547L7.0969 10.9359C7.25663 10.7671 7.52285 10.7671 7.73582 10.9359L10.8772 13.3548C11.0901 13.5236 11.4096 13.4111 11.4628 13.1298L13.8055 1.31626C13.8588 1.03498 13.5926 0.753712 13.3263 0.866222L0.388275 6.15419C0.0688171 6.2667 0.0688171 6.77299 0.388275 6.8855ZM4.59449 7.5043L10.7707 3.5102C10.8772 3.45395 10.9836 3.62271 10.8772 3.67897L5.81907 8.68566C5.65934 8.85442 5.49961 9.07944 5.49961 9.36072L5.33989 10.7108C5.33989 10.8796 5.07367 10.9359 5.02043 10.7108L4.3815 8.23562C4.22177 7.95434 4.32827 7.61681 4.59449 7.5043Z" fill="#45A3EB"/>
</svg>
