<svg width="16" height="16" viewBox="0 0 16 16" fill="none" xmlns="http://www.w3.org/2000/svg">
<path d="M13.0794 2.70744C11.7296 1.28633 9.93004 0.496826 8.03046 0.496826C4.08132 0.496826 0.88202 3.86538 0.88202 8.02344C0.88202 9.33929 1.23194 10.6551 1.83181 11.7604L0.832031 15.6553L4.6312 14.6027C5.68097 15.1816 6.83072 15.4974 8.03046 15.4974C11.9796 15.4974 15.1789 12.1289 15.1789 7.97081C15.1289 6.02336 14.4291 4.12855 13.0794 2.70744ZM11.4797 10.7078C11.3297 11.1288 10.6299 11.5499 10.28 11.6025C9.98003 11.6552 9.58012 11.6552 9.18021 11.5499C8.93026 11.4446 8.58034 11.3394 8.18042 11.1288C6.38082 10.3393 5.23107 8.44451 5.13109 8.28661C5.03111 8.18134 4.38126 7.28657 4.38126 6.33917C4.38126 5.39176 4.83116 4.97069 4.98112 4.76015C5.13109 4.54962 5.33105 4.54962 5.48101 4.54962C5.58099 4.54962 5.73096 4.54962 5.83094 4.54962C5.93091 4.54962 6.08088 4.49699 6.23085 4.86542C6.38082 5.23386 6.73074 6.18126 6.78073 6.2339C6.83072 6.33917 6.83072 6.44443 6.78073 6.5497C6.73074 6.65497 6.68075 6.76023 6.58077 6.8655C6.48079 6.97077 6.38082 7.12867 6.33083 7.1813C6.23085 7.28657 6.13087 7.39184 6.23085 7.54974C6.33083 7.76027 6.68075 8.33924 7.23063 8.86558C7.93048 9.49719 8.48036 9.70772 8.68032 9.81299C8.88027 9.91826 8.98025 9.86562 9.08023 9.76035C9.1802 9.65509 9.53013 9.23402 9.63011 9.02348C9.73009 8.81295 9.88005 8.86558 10.03 8.91822C10.18 8.97085 11.0798 9.44455 11.2298 9.54982C11.4297 9.65509 11.5297 9.70772 11.5797 9.76035C11.6297 9.91826 11.6297 10.2867 11.4797 10.7078Z" fill="white"/>
</svg>
