<svg width="15" height="17" viewBox="0 0 15 17" fill="none" xmlns="http://www.w3.org/2000/svg">
<path d="M11.2636 0.702408C8.65967 0.176997 5.95554 0.176997 3.35156 0.702408C2.1998 0.965114 0.747579 2.43627 0.497196 3.59217C0.0465075 5.85144 0.0465075 8.16325 0.497196 10.4225C0.797655 11.5784 2.24987 13.0496 3.35156 13.3123C3.40163 13.3123 3.45171 13.3648 3.45171 13.4174V16.7275C3.45171 16.8851 3.65202 16.9902 3.75217 16.8326L5.25447 15.2038C5.25447 15.2038 6.4563 13.8902 6.65661 13.6801C6.65661 13.6801 6.70669 13.6275 6.75676 13.6275C8.25906 13.6801 9.81143 13.5225 11.3137 13.2598C12.4655 12.997 13.9177 11.5259 14.1681 10.37C14.6188 8.11071 14.6188 5.7989 14.1681 3.53963C13.8676 2.43627 12.4154 0.965114 11.2636 0.702408ZM11.3137 10.5802C11.0633 11.1056 10.7629 11.5259 10.2621 11.7886C10.1119 11.8411 9.96166 11.8937 9.81143 11.9462C9.61112 11.8937 9.46089 11.8411 9.31067 11.7886C7.70822 11.1056 6.20592 10.1598 5.00408 8.79375C4.35309 8.00563 3.80225 7.11243 3.35156 6.16669C3.15125 5.69382 2.95095 5.27349 2.80072 4.80062C2.65049 4.38029 2.90087 3.95996 3.15125 3.64471C3.40163 3.32947 3.70209 3.1193 4.05263 2.96168C4.30301 2.80406 4.5534 2.90914 4.7537 3.1193C5.15431 3.64471 5.55492 4.17013 5.85538 4.74808C6.05569 5.11587 6.00561 5.5362 5.65508 5.7989C5.55492 5.85144 5.50485 5.90399 5.40469 6.00907C5.35462 6.06161 5.25446 6.11415 5.20439 6.21923C5.10423 6.37685 5.10424 6.53448 5.15431 6.6921C5.55492 7.90055 6.30607 8.84629 7.45783 9.3717C7.65814 9.47678 7.80837 9.52933 8.05875 9.52933C8.40929 9.47679 8.55952 9.05645 8.8099 8.84629C9.06028 8.63613 9.36074 8.63613 9.6612 8.79375C9.91158 8.95137 10.162 9.16154 10.4624 9.3717C10.7128 9.58187 10.9632 9.73949 11.2136 9.94966C11.3638 10.0547 11.4139 10.3174 11.3137 10.5802ZM9.21051 6.63956C9.11036 6.63956 9.16043 6.63956 9.21051 6.63956C9.0102 6.63956 8.96013 6.53448 8.91005 6.37686C8.91005 6.27177 8.91005 6.11415 8.85997 6.00907C8.8099 5.7989 8.70975 5.58874 8.50944 5.43111C8.40929 5.37857 8.30913 5.32603 8.20898 5.27349C8.05875 5.22095 7.9586 5.22095 7.80837 5.22095C7.65814 5.16841 7.60806 5.06333 7.60806 4.9057C7.60806 4.80062 7.75829 4.69554 7.85845 4.69554C8.65967 4.74808 9.26059 5.22095 9.36074 6.21923C9.36074 6.27177 9.36074 6.37686 9.36074 6.4294C9.36074 6.53448 9.31066 6.63956 9.21051 6.63956ZM8.70974 4.32775C8.45936 4.22267 8.20898 4.11758 7.90852 4.06504C7.80837 4.06504 7.65814 4.0125 7.55799 4.0125C7.40776 4.0125 7.3076 3.90742 7.35768 3.7498C7.35768 3.59217 7.45783 3.48709 7.60806 3.53963C8.10883 3.59217 8.55952 3.69726 9.01021 3.90742C9.91158 4.38029 10.4123 5.16841 10.5626 6.21923C10.5626 6.27177 10.5626 6.32432 10.5626 6.37686C10.5626 6.48194 10.5626 6.58702 10.5626 6.74464C10.5626 6.79718 10.5626 6.84973 10.5626 6.90227C10.5125 7.11243 10.162 7.16497 10.1119 6.90227C10.1119 6.84973 10.0618 6.74464 10.0618 6.6921C10.0618 6.21923 9.96166 5.74636 9.76135 5.32603C9.4609 4.85316 9.11036 4.53791 8.70974 4.32775ZM11.4139 7.48022C11.2636 7.48022 11.1635 7.3226 11.1635 7.16497C11.1635 6.84973 11.1134 6.53448 11.0633 6.21923C10.863 4.53791 9.56105 3.17184 8.00868 2.90914C7.75829 2.8566 7.50791 2.8566 7.3076 2.80406C7.15737 2.80406 6.95707 2.80406 6.90699 2.59389C6.85691 2.43627 7.00714 2.27864 7.15737 2.27864C7.20745 2.27864 7.25753 2.27864 7.25753 2.27864C9.31067 2.33118 7.35768 2.27864 7.25753 2.27864C9.36074 2.33118 11.1134 3.80234 11.464 6.00907C11.514 6.37686 11.5641 6.74464 11.5641 7.16497C11.6643 7.3226 11.5641 7.48022 11.4139 7.48022Z" fill="white"/>
</svg>
