<?xml version="1.0" encoding="utf-8"?><svg width="15" height="17" xmlns="http://www.w3.org/2000/svg" viewBox="0 0 15 17"><path d="M11.264.702a20.055 20.055 0 00-7.912 0C2.2.965.748 2.436.497 3.592c-.45 2.26-.45 4.571 0 6.83.3 1.156 1.753 2.628 2.855 2.89.05 0 .1.053.1.105v3.31c0 .158.2.263.3.106l1.502-1.63s1.202-1.313 1.403-1.523c0 0 .05-.053.1-.053 1.502.053 3.054-.104 4.557-.367 1.152-.263 2.604-1.734 2.854-2.89.45-2.26.45-4.571 0-6.83-.3-1.104-1.753-2.575-2.904-2.838zm.05 9.878c-.25.526-.551.946-1.052 1.209l-.45.157c-.2-.052-.351-.105-.501-.157-1.603-.683-3.105-1.63-4.307-2.995a12.714 12.714 0 01-1.652-2.627c-.2-.473-.401-.894-.551-1.366-.15-.42.1-.841.35-1.156.25-.316.551-.526.902-.683.25-.158.5-.053.7.157.401.526.802 1.051 1.102 1.63.2.367.15.787-.2 1.05-.1.052-.15.105-.25.21-.05.053-.15.105-.2.21-.1.158-.1.315-.05.473.4 1.209 1.151 2.154 2.303 2.68.2.105.35.157.6.157.351-.052.502-.473.752-.683.25-.21.55-.21.851-.052.25.157.501.368.801.578.25.21.501.367.752.578.15.105.2.367.1.63zM9.21 6.64c-.1 0-.05 0 0 0-.2 0-.25-.106-.301-.263 0-.105 0-.263-.05-.368-.05-.21-.15-.42-.35-.578l-.301-.158c-.15-.052-.25-.052-.4-.052-.15-.053-.2-.158-.2-.315 0-.105.15-.21.25-.21.8.052 1.402.525 1.502 1.523v.21c0 .105-.05.21-.15.21zM8.71 4.328c-.25-.105-.501-.21-.801-.263-.1 0-.25-.053-.351-.053-.15 0-.25-.105-.2-.262 0-.158.1-.263.25-.21.5.052.952.157 1.402.367.902.473 1.402 1.261 1.553 2.312v.683c-.05.21-.401.263-.451 0 0-.052-.05-.157-.05-.21 0-.473-.1-.946-.3-1.366-.301-.473-.652-.788-1.052-.998zm2.704 3.152c-.15 0-.25-.157-.25-.315 0-.315-.05-.63-.1-.946-.201-1.681-1.503-3.047-3.055-3.31-.25-.052-.501-.052-.701-.105-.15 0-.35 0-.401-.21-.05-.158.1-.315.25-.315h.1c2.054.052.1 0 0 0 2.104.052 3.856 1.523 4.207 3.73.05.368.1.736.1 1.156.1.158 0 .315-.15.315z"/></svg>