<?xml version="1.0" encoding="utf-8"?><svg width="14" height="14" xmlns="http://www.w3.org/2000/svg" viewBox="0 0 14 14"><path d="M.388 6.886L3.53 8.123l1.224 4.163c.053.281.373.338.586.169l1.757-1.52c.16-.168.426-.168.639 0l3.141 2.42a.364.364 0 00.586-.225l2.343-11.814c.053-.281-.213-.562-.48-.45L.388 6.154c-.32.113-.32.619 0 .732zm4.206.618l6.177-3.994c.106-.056.213.113.106.169L5.82 8.686c-.16.168-.32.393-.32.675l-.16 1.35c0 .169-.265.225-.319 0l-.638-2.475c-.16-.282-.054-.62.212-.732z"/></svg>