<?xml version="1.0" encoding="utf-8"?><svg width="16" height="16" xmlns="http://www.w3.org/2000/svg" viewBox="0 0 16 16"><path d="M13.08 2.707C11.73 1.287 9.93.497 8.03.497 4.081.497.882 3.865.882 8.023c0 1.316.35 2.632.95 3.737l-1 3.895 3.8-1.052a7 7 0 003.398.894c3.95 0 7.149-3.368 7.149-7.526-.05-1.948-.75-3.842-2.1-5.264zm-1.6 8c-.15.422-.85.843-1.2.895-.3.053-.7.053-1.1-.052-.25-.105-.6-.21-1-.421-1.8-.79-2.949-2.684-3.049-2.842-.1-.106-.75-1-.75-1.948 0-.947.45-1.368.6-1.579.15-.21.35-.21.5-.21h.35c.1 0 .25-.053.4.315.15.369.5 1.316.55 1.369.05.105.05.21 0 .316-.05.105-.1.21-.2.316-.1.105-.2.263-.25.315-.1.106-.2.21-.1.369.1.21.45.79 1 1.316.7.631 1.25.842 1.45.947.2.105.3.053.4-.053.1-.105.45-.526.55-.737.1-.21.25-.157.399-.105.15.053 1.05.527 1.2.632.2.105.3.158.35.21.05.158.05.527-.1.948z"/></svg>