<?xml version="1.0" encoding="utf-8"?><svg viewBox="0 0 34 29" xmlns="http://www.w3.org/2000/svg" xmlns:xlink="http://www.w3.org/1999/xlink"><style>:root>svg{display:none}:root>svg:target{display:block}</style><svg viewBox="0 0 29 29" id="example" xmlns="http://www.w3.org/2000/svg"><path d="M28.24 22.372l-5.87-3.915a1.713 1.713 0 00-2.294.373l-1.71 2.199a.73.73 0 01-.937.197l-.325-.18c-1.079-.587-2.42-1.319-5.123-4.023-2.703-2.704-3.436-4.046-4.024-5.122l-.178-.326a.732.732 0 01.193-.94l2.197-1.71c.703-.55.865-1.548.373-2.293L6.628.762A1.704 1.704 0 004.33.245L1.876 1.719A3.462 3.462 0 00.297 3.77c-.884 3.22-.219 8.778 7.969 16.966C14.779 27.247 19.627 29 22.96 29a8.56 8.56 0 002.271-.297 3.46 3.46 0 002.05-1.579l1.475-2.453a1.704 1.704 0 00-.517-2.298zm-.317 1.802l-1.472 2.455a2.497 2.497 0 01-1.474 1.142c-2.973.817-8.167.14-16.028-7.72C1.09 12.191.413 6.997 1.23 4.024a2.501 2.501 0 011.144-1.476l2.455-1.472a.74.74 0 01.997.224L7.95 4.492 9.736 7.17a.744.744 0 01-.162.996L7.377 9.874a1.691 1.691 0 00-.448 2.17l.175.318c.617 1.132 1.385 2.542 4.189 5.344 2.803 2.803 4.212 3.571 5.344 4.189l.317.175c.735.412 1.66.22 2.171-.448l1.71-2.198a.744.744 0 01.995-.16l5.87 3.914c.329.218.428.658.223.996zM16.433 4.836a8.225 8.225 0 018.215 8.215.483.483 0 10.967 0 9.192 9.192 0 00-9.182-9.182.483.483 0 100 .967z"/><path d="M16.433 7.735a5.322 5.322 0 015.316 5.316.483.483 0 00.966 0 6.29 6.29 0 00-6.282-6.282.483.483 0 100 .966z"/><path d="M16.433 10.635a2.42 2.42 0 012.416 2.416.483.483 0 10.967 0 3.387 3.387 0 00-3.383-3.383.483.483 0 100 .967z"/></svg><svg viewBox="0 0 19 8" id="icon-arrow-left" xmlns="http://www.w3.org/2000/svg"><path d="M.828 3.51a.5.5 0 000 .707L4.01 7.4a.5.5 0 10.707-.707L1.89 3.864l2.828-2.829A.5.5 0 004.01.328L.828 3.51zm17.809-.146H1.182v1h17.455v-1z"/></svg><svg viewBox="0 0 19 8" id="icon-arrow-right" xmlns="http://www.w3.org/2000/svg"><path d="M18.445 4.217a.5.5 0 000-.707L15.263.328a.5.5 0 10-.707.707l2.828 2.829-2.829 2.828a.5.5 0 10.708.707l3.182-3.182zM.636 4.364h17.455v-1H.636v1z"/></svg><svg viewBox="0 0 34 22" id="icon-burger" xmlns="http://www.w3.org/2000/svg"><path d="M1 1h32M1 11h18M25 11h8M1 21h32"/></svg><svg viewBox="0 0 20 20" id="icon-close" xmlns="http://www.w3.org/2000/svg"><path d="M11.105 10l8.666-8.666A.781.781 0 0018.666.23L10 8.896 1.334.23A.781.781 0 10.229 1.334l8.666 8.667L.23 18.667a.781.781 0 101.105 1.105L10 11.106l8.666 8.666a.778.778 0 001.105 0 .781.781 0 000-1.105l-8.666-8.666z"/></svg><svg viewBox="0 0 26 18" id="icon-menu" xmlns="http://www.w3.org/2000/svg"><path d="M1 1h24M1 8.647h13.294M19.353 8.647H25M1 16.294h24"/></svg><svg viewBox="0 0 17 18" id="icon-phone" xmlns="http://www.w3.org/2000/svg"><path d="M15.636 11.417a9.65 9.65 0 01-3.031-.482c-.475-.162-1.058-.014-1.348.284l-1.911 1.443c-2.217-1.184-3.583-2.549-4.75-4.749l1.4-1.862c.365-.363.495-.894.339-1.392a9.667 9.667 0 01-.485-3.036C5.85.87 5.238.259 4.486.259H1.364C.612.259 0 .87 0 1.623c0 8.622 7.014 15.636 15.636 15.636.752 0 1.364-.612 1.364-1.364V12.78c0-.752-.612-1.364-1.364-1.364z"/></svg><svg viewBox="0 0 14 14" id="icon-telegram" xmlns="http://www.w3.org/2000/svg"><path d="M.388 6.886L3.53 8.123l1.224 4.163c.053.281.373.338.586.169l1.757-1.52c.16-.168.426-.168.639 0l3.141 2.42a.364.364 0 00.586-.225l2.343-11.814c.053-.281-.213-.562-.48-.45L.388 6.154c-.32.113-.32.619 0 .732zm4.206.618l6.177-3.994c.106-.056.213.113.106.169L5.82 8.686c-.16.168-.32.393-.32.675l-.16 1.35c0 .169-.265.225-.319 0l-.638-2.475c-.16-.282-.054-.62.212-.732z"/></svg><svg viewBox="0 0 15 17" id="icon-viber" xmlns="http://www.w3.org/2000/svg"><path d="M11.264.702a20.055 20.055 0 00-7.912 0C2.2.965.748 2.436.497 3.592c-.45 2.26-.45 4.571 0 6.83.3 1.156 1.753 2.628 2.855 2.89.05 0 .1.053.1.105v3.31c0 .158.2.263.3.106l1.502-1.63s1.202-1.313 1.403-1.523c0 0 .05-.053.1-.053 1.502.053 3.054-.104 4.557-.367 1.152-.263 2.604-1.734 2.854-2.89.45-2.26.45-4.571 0-6.83-.3-1.104-1.753-2.575-2.904-2.838zm.05 9.878c-.25.526-.551.946-1.052 1.209l-.45.157c-.2-.052-.351-.105-.501-.157-1.603-.683-3.105-1.63-4.307-2.995a12.714 12.714 0 01-1.652-2.627c-.2-.473-.401-.894-.551-1.366-.15-.42.1-.841.35-1.156.25-.316.551-.526.902-.683.25-.158.5-.053.7.157.401.526.802 1.051 1.102 1.63.2.367.15.787-.2 1.05-.1.052-.15.105-.25.21-.05.053-.15.105-.2.21-.1.158-.1.315-.05.473.4 1.209 1.151 2.154 2.303 2.68.2.105.35.157.6.157.351-.052.502-.473.752-.683.25-.21.55-.21.851-.052.25.157.501.368.801.578.25.21.501.367.752.578.15.105.2.367.1.63zM9.21 6.64c-.1 0-.05 0 0 0-.2 0-.25-.106-.301-.263 0-.105 0-.263-.05-.368-.05-.21-.15-.42-.35-.578l-.301-.158c-.15-.052-.25-.052-.4-.052-.15-.053-.2-.158-.2-.315 0-.105.15-.21.25-.21.8.052 1.402.525 1.502 1.523v.21c0 .105-.05.21-.15.21zM8.71 4.328c-.25-.105-.501-.21-.801-.263-.1 0-.25-.053-.351-.053-.15 0-.25-.105-.2-.262 0-.158.1-.263.25-.21.5.052.952.157 1.402.367.902.473 1.402 1.261 1.553 2.312v.683c-.05.21-.401.263-.451 0 0-.052-.05-.157-.05-.21 0-.473-.1-.946-.3-1.366-.301-.473-.652-.788-1.052-.998zm2.704 3.152c-.15 0-.25-.157-.25-.315 0-.315-.05-.63-.1-.946-.201-1.681-1.503-3.047-3.055-3.31-.25-.052-.501-.052-.701-.105-.15 0-.35 0-.401-.21-.05-.158.1-.315.25-.315h.1c2.054.052.1 0 0 0 2.104.052 3.856 1.523 4.207 3.73.05.368.1.736.1 1.156.1.158 0 .315-.15.315z"/></svg><svg viewBox="0 0 16 16" id="icon-whatsapp" xmlns="http://www.w3.org/2000/svg"><path d="M13.08 2.707C11.73 1.287 9.93.497 8.03.497 4.081.497.882 3.865.882 8.023c0 1.316.35 2.632.95 3.737l-1 3.895 3.8-1.052a7 7 0 003.398.894c3.95 0 7.149-3.368 7.149-7.526-.05-1.948-.75-3.842-2.1-5.264zm-1.6 8c-.15.422-.85.843-1.2.895-.3.053-.7.053-1.1-.052-.25-.105-.6-.21-1-.421-1.8-.79-2.949-2.684-3.049-2.842-.1-.106-.75-1-.75-1.948 0-.947.45-1.368.6-1.579.15-.21.35-.21.5-.21h.35c.1 0 .25-.053.4.315.15.369.5 1.316.55 1.369.05.105.05.21 0 .316-.05.105-.1.21-.2.316-.1.105-.2.263-.25.315-.1.106-.2.21-.1.369.1.21.45.79 1 1.316.7.631 1.25.842 1.45.947.2.105.3.053.4-.053.1-.105.45-.526.55-.737.1-.21.25-.157.399-.105.15.053 1.05.527 1.2.632.2.105.3.158.35.21.05.158.05.527-.1.948z"/></svg></svg>