<svg width="29" height="29" viewBox="0 0 29 29" fill="none" xmlns="http://www.w3.org/2000/svg">
<circle cx="14.5" cy="14.5" r="14.5" fill="#EF4932"/>
<g clip-path="url(#clip0)">
<path d="M17.8224 11.0338C17.7318 10.9884 17.6251 10.9884 17.5345 11.0338L9.17764 15.2122C9.01889 15.2917 8.95462 15.4848 9.03405 15.6435C9.07927 15.7339 9.16436 15.7977 9.26376 15.8159L12.5805 16.4192L13.1838 19.7359C13.2085 19.8718 13.3173 19.9768 13.4541 19.9965C13.4692 19.9987 13.4845 19.9998 13.4997 19.9998C13.6215 19.9998 13.7329 19.931 13.7874 19.822L17.9658 11.4651C18.0454 11.3064 17.9812 11.1133 17.8224 11.0338Z" fill="white"/>
</g>
<defs>
<clipPath id="clip0">
<rect width="9" height="9" fill="white" transform="translate(9 11)"/>
</clipPath>
</defs>
</svg>
