<svg width="49" height="50" viewBox="0 0 49 50" fill="none" xmlns="http://www.w3.org/2000/svg">
<g clip-path="url(#clip0)">
<path d="M11.4998 25.259C6.89854 25.259 3.15527 29.0023 3.15527 33.6035C3.15527 38.2048 6.89854 41.948 11.4998 41.948C16.1006 41.948 19.8439 38.2048 19.8439 33.6035C19.8439 29.0023 16.1006 25.259 11.4998 25.259ZM11.4998 26.714C14.7197 26.714 17.4296 28.9346 18.1814 31.9246C17.821 33.3624 16.9922 34.6641 15.8318 35.6043C14.6116 36.5928 13.0733 37.1371 11.5001 37.1371C9.92664 37.1371 8.38829 36.5928 7.1677 35.6043C6.0073 34.6641 5.17812 33.3624 4.81774 31.9246C5.56953 28.9346 8.2795 26.714 11.4998 26.714ZM11.4998 40.493C8.25894 40.493 5.53551 38.2436 4.80428 35.2245C5.21999 35.7838 5.70599 36.2926 6.25217 36.7348C7.73071 37.9326 9.5943 38.5921 11.5001 38.5921C13.4056 38.5921 15.2692 37.9326 16.7477 36.7348C17.2935 36.2922 17.7792 35.7838 18.1949 35.2249C17.4633 38.2436 14.7402 40.493 11.4998 40.493Z" fill="#EF4932"/>
<path d="M48.2523 29.5261C48.2516 29.5216 48.1121 29.1728 48.0557 29.042L41.8578 14.0166C41.094 12.1653 39.7183 10.7062 38.0196 9.83179L37.4367 8.4183C37.058 7.5009 36.4221 6.72369 35.596 6.1704C34.7698 5.61899 33.809 5.32739 32.8176 5.32739C30.0624 5.32739 27.8208 7.56894 27.8208 10.3241V12.0016C26.6836 13.4147 26.0006 15.208 26.0006 17.1587V17.7138H22.999V17.1587C22.999 15.208 22.316 13.4147 21.1788 12.0016V10.3241C21.1788 7.56894 18.9373 5.32739 16.1821 5.32739C15.1906 5.32739 14.2299 5.61899 13.4029 6.17115C12.5779 6.72369 11.9416 7.5009 11.5629 8.4183L10.9801 9.83179C9.28171 10.7062 7.9056 12.1653 7.14222 14.0166L5.55116 17.8735C5.39788 18.2451 5.57471 18.6701 5.9463 18.8234C6.3179 18.9767 6.74296 18.7999 6.89586 18.4283L8.48692 14.5713C9.53891 12.0214 12.001 10.3739 14.7592 10.3739C18.5002 10.3739 21.544 13.4173 21.544 17.1587V28.0109C19.5758 24.4901 15.8112 22.1039 11.4993 22.1039C8.79871 22.1039 6.31304 23.0403 4.34851 24.6045L5.91864 20.798C6.07191 20.4268 5.89471 20.0014 5.52349 19.8481C5.15227 19.6948 4.72684 19.872 4.57356 20.2432L0.944321 29.0416C0.887497 29.1724 0.732353 29.5597 0.72525 29.5844C0.256828 30.836 0 32.1904 0 33.6036C0 39.9443 5.15862 45.1029 11.4997 45.1029C17.8404 45.1029 22.999 39.9443 22.999 33.6036V33.1355H26.001V33.6036C26.001 39.9443 31.1596 45.1029 37.5003 45.1029C43.8414 45.1029 49 39.9443 49 33.6036C49 32.1684 48.7349 30.7941 48.2523 29.5261ZM14.7592 8.91888C14.1013 8.91888 13.4575 8.99738 12.8373 9.14468L12.908 8.97308C13.1764 8.3226 13.6276 7.77156 14.2115 7.38052C14.7977 6.98911 15.4792 6.78201 16.1821 6.78201C18.135 6.78201 19.7242 8.3712 19.7242 10.3241V10.5877C18.3425 9.54132 16.6224 8.91888 14.7592 8.91888ZM32.8179 6.78201C33.5208 6.78201 34.2019 6.98911 34.7873 7.37978C35.3724 7.77156 35.8236 8.3226 36.092 8.97308L36.1627 9.14468C35.5425 8.99701 34.8987 8.91888 34.2404 8.91888C32.3776 8.91888 30.6575 9.54132 29.2758 10.5877V10.3241C29.2758 8.3712 30.8646 6.78201 32.8179 6.78201ZM27.456 17.1587C27.456 13.4173 30.4994 10.3739 34.2408 10.3739C36.999 10.3739 39.4611 12.0214 40.5127 14.5713L44.6515 24.6045C42.687 23.0403 40.2009 22.1039 37.5003 22.1039C33.1884 22.1039 29.4239 24.4901 27.456 28.0105V17.1587ZM26.001 19.1688V26.1522H22.999V19.1688H26.001ZM11.4997 43.6483C5.96088 43.6483 1.45499 39.1424 1.45499 33.6036C1.45499 28.0647 5.96088 23.5588 11.4997 23.5588C17.0381 23.5588 21.544 28.0647 21.544 33.6036C21.544 39.1424 17.0381 43.6483 11.4997 43.6483ZM22.999 31.6805V27.6068H26.001V31.6805H22.999ZM37.5003 43.6483C31.9619 43.6483 27.456 39.1424 27.456 33.6036C27.456 28.0647 31.9619 23.5588 37.5003 23.5588C43.0391 23.5588 47.545 28.0647 47.545 33.6036C47.545 39.1424 43.0391 43.6483 37.5003 43.6483Z" fill="#EF4932"/>
<path d="M43.1508 28.4442C42.8297 28.6857 42.7658 29.1417 43.0073 29.4629C43.5666 30.2053 43.9621 31.036 44.1834 31.9186C43.8238 33.3587 42.9942 34.663 41.8319 35.6043C40.6121 36.5928 39.0737 37.1371 37.5003 37.1371C35.9271 37.1371 34.3884 36.5928 33.1682 35.6043C32.0078 34.6645 31.1786 33.3628 30.8182 31.9254C31.5696 28.935 34.28 26.714 37.5003 26.714C38.8808 26.714 40.2128 27.1208 41.3516 27.8901C41.6846 28.1152 42.137 28.0277 42.3617 27.6946C42.5867 27.3615 42.4992 26.9095 42.1662 26.6845C40.7859 25.7521 39.1724 25.259 37.5003 25.259C32.899 25.259 29.1558 29.0023 29.1558 33.6035C29.1558 38.2048 32.899 41.948 37.5003 41.948C42.1015 41.948 45.8447 38.2048 45.8447 33.6035C45.8447 31.7773 45.2653 30.0427 44.1692 28.5877C43.9281 28.2666 43.472 28.2023 43.1508 28.4442ZM37.5003 40.493C34.2602 40.493 31.5368 38.244 30.8055 35.2252C31.2209 35.7838 31.7065 36.2926 32.2527 36.7348C33.7312 37.9326 35.5948 38.5921 37.5006 38.5921C39.4061 38.5921 41.2697 37.9326 42.7482 36.7348C43.2944 36.2922 43.7804 35.7834 44.1957 35.2241C43.4645 38.2436 40.7411 40.493 37.5003 40.493Z" fill="#EF4932"/>
</g>
<defs>
<clipPath id="clip0">
<rect width="49" height="49" fill="white" transform="translate(0 0.733643)"/>
</clipPath>
</defs>
</svg>
