<svg width="18" height="18" viewBox="0 0 18 18" fill="none" xmlns="http://www.w3.org/2000/svg">
<g clip-path="url(#clip0)">
<path d="M17.2874 3.97165L9.11474 0.026209C9.04228 -0.00873633 8.95791 -0.00873633 8.88549 0.026209L0.712748 3.97165C0.621623 4.01564 0.563721 4.10792 0.563721 4.2091V13.7909C0.563721 13.8921 0.621623 13.9844 0.712748 14.0283L8.88545 17.9738C8.92166 17.9913 8.9609 18 9.0001 18C9.0393 18 9.07849 17.9913 9.11474 17.9738L17.2874 14.0283C17.3786 13.9844 17.4365 13.8921 17.4365 13.7909V4.20914C17.4365 4.10788 17.3785 4.01567 17.2874 3.97165ZM9.0001 0.556471L16.5663 4.2091L14.373 5.26794C14.3591 5.25735 14.3445 5.24758 14.3284 5.23981L6.81355 1.61204L9.0001 0.556471ZM6.21808 1.91016L13.7733 5.55748L12.2259 6.30452L4.6738 2.65867L6.21808 1.91016ZM13.9501 6.05769V8.81907L12.5047 9.51685V6.75547L13.9501 6.05769ZM16.9091 13.6255L9.26377 17.3162V8.32003L11.0874 7.43964C11.2186 7.37633 11.2735 7.21872 11.2102 7.08755C11.1469 6.95646 10.9893 6.9014 10.8581 6.96475L9.0001 7.86176L8.26899 7.50879C8.13782 7.44541 7.98021 7.50046 7.9169 7.6316C7.85358 7.76273 7.90856 7.92037 8.0397 7.98369L8.73642 8.32003V17.3162L1.09106 13.6254V4.62918L6.91294 7.43975C6.94989 7.45761 6.98895 7.46605 7.02737 7.46605C7.12539 7.46605 7.21954 7.41113 7.26499 7.31695C7.32831 7.18581 7.27333 7.02817 7.14219 6.96486L1.43387 4.2091L4.05319 2.9446L11.9737 6.7683C11.9748 6.76992 11.9761 6.77136 11.9773 6.77294V9.93697C11.9773 10.0277 12.024 10.112 12.1008 10.1603C12.1435 10.1871 12.1922 10.2006 12.241 10.2006C12.2801 10.2006 12.3193 10.192 12.3557 10.1744L14.3284 9.22206C14.4195 9.17808 14.4774 9.08583 14.4774 8.98462V5.80315L16.9091 4.62922V13.6255Z" fill="#EF4932"/>
<path d="M3.26694 12.6029L2.06759 12.0239C1.93638 11.9605 1.77881 12.0155 1.7155 12.1467C1.65218 12.2778 1.70716 12.4354 1.8383 12.4988L3.03766 13.0777C3.0746 13.0956 3.11366 13.104 3.15209 13.104C3.2501 13.104 3.34425 13.0491 3.38971 12.9549C3.45306 12.8238 3.39808 12.6662 3.26694 12.6029Z" fill="#EF4932"/>
<path d="M4.37078 11.8842L2.06927 10.7731C1.93811 10.7098 1.7805 10.7648 1.71718 10.8959C1.6539 11.0271 1.70889 11.1847 1.84002 11.248L4.14152 12.3591C4.17847 12.3769 4.21753 12.3854 4.25596 12.3854C4.35397 12.3854 4.44812 12.3305 4.49358 12.2363C4.5569 12.1051 4.50191 11.9475 4.37078 11.8842Z" fill="#EF4932"/>
</g>
<defs>
<clipPath id="clip0">
<rect width="18" height="18" fill="white"/>
</clipPath>
</defs>
</svg>
