<svg width="52" height="52" viewBox="0 0 52 52" fill="none" xmlns="http://www.w3.org/2000/svg">
<path d="M7.14999 12.35L10.4 10.075L18.85 17.875L17.875 20.475C17.0083 21.125 14.95 22.88 13.65 24.7C12.35 26.52 13.1083 29.7916 13.65 31.2L21.775 39H25.35L27.625 37.375L31.2 34.45L33.475 33.15L42.25 41.6L39.65 44.85L33.475 48.425L30.225 49.4C27.105 50.44 22.6417 48.5333 20.8 47.45L12.025 39C10.4 37.4833 6.62999 33.735 4.54999 30.875C1.94999 27.3 2.92499 22.425 2.92499 20.15C2.92499 18.33 5.74166 14.1916 7.14999 12.35Z" fill="#EF4932"/>
<path d="M49.5625 4.0625H12.1875C11.972 4.0625 11.7654 4.1481 11.613 4.30048C11.4606 4.45285 11.375 4.65951 11.375 4.875V9.66306C10.919 9.43447 10.4027 9.35472 9.89896 9.43503C9.39521 9.51535 8.92934 9.75168 8.567 10.1107L6.26925 12.4085C3.37855 15.3059 1.75513 19.2316 1.75513 23.3244C1.75513 27.4173 3.37855 31.343 6.26925 34.2404L17.7596 45.7307C20.6547 48.6258 24.5813 50.2523 28.6756 50.2523C32.7698 50.2523 36.6964 48.6258 39.5915 45.7307L41.8901 43.433C42.3463 42.9753 42.6025 42.3555 42.6025 41.7093C42.6025 41.0631 42.3463 40.4432 41.8901 39.9856L34.9952 33.0915C34.7688 32.8651 34.5001 32.6855 34.2044 32.563C33.9086 32.4405 33.5916 32.3774 33.2715 32.3774C32.9513 32.3774 32.6343 32.4405 32.3386 32.563C32.0428 32.6855 31.7741 32.8651 31.5478 33.0915L29.25 35.3901L28.1011 36.5389C27.0338 37.6043 25.5873 38.2026 24.0793 38.2026C22.5712 38.2026 21.1247 37.6043 20.0574 36.5389L15.4603 31.9426C15.1418 31.6212 14.863 31.2628 14.6299 30.875H49.5625C49.778 30.875 49.9847 30.7894 50.137 30.637C50.2894 30.4846 50.375 30.278 50.375 30.0625V4.875C50.375 4.65951 50.2894 4.45285 50.137 4.30048C49.9847 4.1481 49.778 4.0625 49.5625 4.0625ZM16.6099 22.75L18.9085 20.4514C19.3655 19.9943 19.6222 19.3745 19.6222 18.7281C19.6222 18.0818 19.3655 17.4619 18.9085 17.0048L13 11.0963V6.6625L25.7855 17.7767L13.8125 27.6737C13.869 26.2527 14.4585 24.9051 15.4635 23.8989L16.6099 22.75ZM31.408 19.5812C31.2602 19.7097 31.0709 19.7805 30.875 19.7805C30.6791 19.7805 30.4898 19.7097 30.342 19.5812L14.3601 5.6875H47.3899L31.408 19.5812ZM27.0286 18.8541L29.2752 20.8081C29.72 21.1915 30.2878 21.4024 30.875 21.4024C31.4623 21.4024 32.03 21.1915 32.4748 20.8081L34.7214 18.8581L47.3029 29.25H14.4528L27.0286 18.8541ZM35.9661 17.7726L48.75 6.6625V28.3376L35.9661 17.7726ZM9.7175 11.2564C9.79296 11.1808 9.88257 11.1209 9.98121 11.08C10.0798 11.0391 10.1856 11.0181 10.2923 11.0181C10.3991 11.0181 10.5049 11.0391 10.6035 11.08C10.7021 11.1209 10.7917 11.1808 10.8672 11.2564L17.7613 18.1504C17.9136 18.3028 17.9991 18.5094 17.9991 18.7249C17.9991 18.9403 17.9136 19.1469 17.7613 19.2993L16.0371 21.0234L7.99338 12.9797L9.7175 11.2564ZM32.6966 34.2404C32.7721 34.1648 32.8617 34.1049 32.9603 34.064C33.059 34.0231 33.1647 34.0021 33.2715 34.0021C33.3783 34.0021 33.484 34.0231 33.5826 34.064C33.6812 34.1049 33.7709 34.1648 33.8463 34.2404L40.7412 41.1344C40.8167 41.2099 40.8767 41.2995 40.9176 41.3981C40.9584 41.4968 40.9795 41.6025 40.9795 41.7093C40.9795 41.8161 40.9584 41.9218 40.9176 42.0204C40.8767 42.1191 40.8167 42.2087 40.7412 42.2841L39.0171 44.0074L30.9733 35.9637L32.6966 34.2404ZM18.9085 37.6878C20.2809 39.0572 22.1405 39.8263 24.0793 39.8263C26.018 39.8263 27.8776 39.0572 29.25 37.6878L29.8244 37.1134L37.8511 45.1401C35.216 47.4761 31.7891 48.7189 28.2692 48.6152C24.7493 48.5115 21.4015 47.069 18.9085 44.5819L7.41813 33.0915C4.93119 30.5984 3.48882 27.2507 3.3851 23.7308C3.28137 20.2109 4.52412 16.784 6.85994 14.1489L14.8866 22.1756L14.3122 22.75C12.9428 24.1224 12.1737 25.982 12.1737 27.9207C12.1737 29.8595 12.9428 31.7191 14.3122 33.0915L18.9085 37.6878Z" fill="white"/>
</svg>
