<svg width="18" height="18" viewBox="0 0 18 18" fill="none" xmlns="http://www.w3.org/2000/svg">
<path d="M9 0C4.02945 0 0 4.02945 0 9C0 13.9706 4.02945 18 9 18C13.9706 18 18 13.9706 18 9C17.9944 4.03178 13.9682 0.005625 9 0ZM9 17.4C4.3608 17.4 0.6 13.6392 0.6 9C0.6 4.3608 4.3608 0.6 9 0.6C13.6392 0.6 17.4 4.3608 17.4 9C17.3947 13.637 13.637 17.3947 9 17.4Z" fill="#EF4932"/>
<path d="M8.99995 1.19995C4.69214 1.19995 1.19995 4.69214 1.19995 8.99995C1.19995 13.3078 4.69214 16.8 8.99995 16.8C13.3078 16.8 16.8 13.3078 16.8 8.99995C16.7951 4.69413 13.3058 1.20475 8.99995 1.19995ZM8.99995 16.2C5.02349 16.2 1.79995 12.9764 1.79995 8.99995C1.79995 5.02349 5.02349 1.79995 8.99995 1.79995C12.9764 1.79995 16.2 5.02349 16.2 8.99995C16.1953 12.9745 12.9745 16.1953 8.99995 16.2Z" fill="#EF4932"/>
<path d="M3.3001 8.69995H2.1001V9.29995H3.3001V8.69995Z" fill="#EF4932"/>
<path d="M15.9 8.69995H14.7V9.29995H15.9V8.69995Z" fill="#EF4932"/>
<path d="M3.91334 11.591L2.87402 12.1909L3.17396 12.7106L4.21328 12.1107L3.91334 11.591Z" fill="#EF4932"/>
<path d="M14.8259 5.29026L13.7866 5.89014L14.0866 6.4098L15.1259 5.80992L14.8259 5.29026Z" fill="#EF4932"/>
<path d="M3.17421 5.29015L2.87427 5.80981L3.91359 6.40969L4.21353 5.89003L3.17421 5.29015Z" fill="#EF4932"/>
<path d="M14.0868 11.589L13.7869 12.1086L14.8262 12.7085L15.1261 12.1889L14.0868 11.589Z" fill="#EF4932"/>
<path d="M5.80872 2.87438L5.28906 3.17432L5.88894 4.21364L6.4086 3.9137L5.80872 2.87438Z" fill="#EF4932"/>
<path d="M9.29995 2.1001H8.69995V3.3001H9.29995V2.1001Z" fill="#EF4932"/>
<path d="M12.1897 2.87376L11.5898 3.91309L12.1095 4.21303L12.7094 3.1737L12.1897 2.87376Z" fill="#EF4932"/>
<path d="M2.4126 6.92437L2.25732 7.50391L3.12664 7.73683L3.28192 7.15729L2.4126 6.92437Z" fill="#EF4932"/>
<path d="M14.8711 10.2625L14.7158 10.842L15.5851 11.075L15.7404 10.4954L14.8711 10.2625Z" fill="#EF4932"/>
<path d="M4.33319 3.90875L3.90894 4.33301L4.54532 4.9694L4.96958 4.54514L4.33319 3.90875Z" fill="#EF4932"/>
<path d="M7.50263 2.25805L6.9231 2.41333L7.15602 3.28264L7.73555 3.12736L7.50263 2.25805Z" fill="#EF4932"/>
<path d="M10.4954 2.25911L10.2625 3.12842L10.842 3.2837L11.0749 2.41439L10.4954 2.25911Z" fill="#EF4932"/>
<path d="M13.6669 3.91L13.0305 4.54639L13.4548 4.97065L14.0912 4.33426L13.6669 3.91Z" fill="#EF4932"/>
<path d="M15.5888 6.9243L14.7195 7.15723L14.8748 7.73677L15.7441 7.50385L15.5888 6.9243Z" fill="#EF4932"/>
<path d="M3.12664 10.2629L2.25732 10.4958L2.4126 11.0754L3.28192 10.8425L3.12664 10.2629Z" fill="#EF4932"/>
<path d="M10.2728 4.06356C7.54515 3.361 4.76445 5.00259 4.06185 7.73019C3.729 9.02244 3.91587 10.3937 4.58243 11.5497C4.66958 11.6906 4.85449 11.7342 4.99538 11.647C5.1303 11.5635 5.17692 11.3894 5.10173 11.2497C3.86055 9.09658 4.5999 6.34494 6.75308 5.10377C8.90625 3.8626 11.6579 4.60194 12.8991 6.75512C13.4871 7.77523 13.6519 8.98517 13.3581 10.1254C13.3166 10.2859 13.4132 10.4496 13.5738 10.4911C13.7343 10.5325 13.898 10.4359 13.9395 10.2754V10.2745C14.642 7.54685 13.0004 4.76616 10.2728 4.06356Z" fill="#EF4932"/>
<path d="M13.3899 11.1677L10.0899 8.46771C10.0809 8.4622 10.0716 8.45717 10.062 8.45271C9.76084 7.86437 9.03979 7.63157 8.45149 7.93273C7.86315 8.2339 7.63035 8.95495 7.93151 9.54325C8.12498 9.92117 8.50418 10.1683 8.928 10.1927L13.098 11.6822C13.1307 11.6941 13.1652 11.7001 13.2 11.6999C13.3657 11.6999 13.5 11.5656 13.5 11.3998C13.4999 11.3099 13.4595 11.2247 13.3899 11.1677ZM9 9.59991C8.66861 9.59991 8.4 9.3313 8.4 8.99991C8.4 8.66852 8.66861 8.39991 9 8.39991C9.33139 8.39991 9.6 8.66852 9.6 8.99991C9.6 9.3313 9.33139 9.59991 9 9.59991ZM9.8175 9.87351C9.98336 9.71815 10.1014 9.51861 10.1577 9.29841L11.67 10.5341L9.8175 9.87351Z" fill="#EF4932"/>
<path d="M10.2 12H7.80005C6.97164 12 6.30005 12.6716 6.30005 13.5C6.30005 14.3284 6.97164 15 7.80005 15H10.2C11.0285 15 11.7 14.3284 11.7 13.5C11.7 12.6716 11.0285 12 10.2 12ZM10.2 14.4H7.80005C7.30299 14.4 6.90005 13.9971 6.90005 13.5C6.90005 13.0029 7.30299 12.6 7.80005 12.6H10.2C10.6971 12.6 11.1 13.0029 11.1 13.5C11.1 13.9971 10.6971 14.4 10.2 14.4Z" fill="#EF4932"/>
<path d="M8.4 13.2H7.8C7.63433 13.2 7.5 13.3343 7.5 13.5C7.5 13.6656 7.63433 13.8 7.8 13.8H8.4C8.56568 13.8 8.7 13.6656 8.7 13.5C8.7 13.3343 8.56568 13.2 8.4 13.2Z" fill="#EF4932"/>
<path d="M10.2 13.2H9.60005C9.43437 13.2 9.30005 13.3343 9.30005 13.5C9.30005 13.6656 9.43437 13.8 9.60005 13.8H10.2C10.3657 13.8 10.5 13.6656 10.5 13.5C10.5 13.3343 10.3657 13.2 10.2 13.2Z" fill="#EF4932"/>
</svg>
