<svg width="64" height="64" viewBox="0 0 64 64" fill="none" xmlns="http://www.w3.org/2000/svg">
<path d="M63.6875 30.1794L61.5541 28.0461C61.3541 27.8461 61.0829 27.7335 60.8 27.7335H57.6C57.0109 27.7335 56.5333 28.2111 56.5333 28.8002V34.1335H54.4V26.6669C54.4 26.0778 53.9224 25.6002 53.3333 25.6002H46.4373L42.4907 19.6749C42.2921 19.3773 41.9577 19.1991 41.6 19.2002H35.2V17.0669H42.6667C43.2557 17.0669 43.7333 16.5893 43.7333 16.0002V11.7335C43.7333 11.1445 43.2557 10.6669 42.6667 10.6669H21.3333C20.7443 10.6669 20.2667 11.1445 20.2667 11.7335V16.0002C20.2667 16.5893 20.7443 17.0669 21.3333 17.0669H28.8V19.2002H22.4C22.0435 19.2002 21.7104 19.3782 21.5125 19.6749L17.5627 25.6002H11.7333C11.1443 25.6002 10.6667 26.0778 10.6667 26.6669V33.0669H8.53333V26.6669C8.53333 26.0778 8.05573 25.6002 7.46667 25.6002H3.2C2.84347 25.6002 2.5104 25.7782 2.31253 26.0749L0.1792 29.2749C0.0626667 29.4503 0.0004 29.6562 0 29.8669V33.0669C0.0004 33.2775 0.0626667 33.4834 0.1792 33.6589L2.13333 36.5869V45.8669C2.13333 46.4559 2.61093 46.9335 3.2 46.9335H7.46667C8.05573 46.9335 8.53333 46.4559 8.53333 45.8669V39.4669H10.6667V45.8669C10.6667 46.4559 11.1443 46.9335 11.7333 46.9335H17.5627L21.5093 52.8589C21.7079 53.1565 22.0423 53.3346 22.4 53.3335H53.3333C53.9224 53.3335 54.4 52.8559 54.4 52.2669V42.6669H56.5333V50.1335C56.5333 50.7226 57.0109 51.2002 57.6 51.2002H60.8C61.0829 51.2002 61.3541 51.0877 61.5541 50.8877L63.6875 48.7543C63.8875 48.5543 64 48.2831 64 48.0002V30.9335C64 30.6506 63.8875 30.3794 63.6875 30.1794ZM6.4 34.1335V44.8002H4.26667V36.2669C4.26627 36.0562 4.204 35.8503 4.08747 35.6749L2.13333 32.7469V30.1869L3.77067 27.7335H6.4V34.1335ZM10.6667 37.3335H8.53333V35.2002H10.6667V37.3335ZM22.4 14.9335V12.8002H41.6V14.9335H22.4ZM33.0667 17.0669V19.2002H30.9333V17.0669H33.0667ZM48 51.2002H22.9707L19.024 45.2749C18.8255 44.9773 18.4911 44.7991 18.1333 44.8002H12.8V27.7335H18.1333C18.4899 27.7335 18.8229 27.5555 19.0208 27.2589L22.9707 21.3335H41.0293L44.976 27.2589C45.1745 27.5565 45.5089 27.7346 45.8667 27.7335H48V51.2002ZM52.2667 35.2002V51.2002H50.1333V27.7335H52.2667V35.2002ZM56.5333 40.5335H54.4V36.2669H56.5333V40.5335ZM61.8667 47.5586L60.3584 49.0669H58.6667V29.8669H60.3584L61.8667 31.3751V47.5586Z" fill="white"/>
<path d="M24 36.5001L35.5 26.5001L34 35.0001L40 35.5001L28 46.5001L29.5 37.5001L24 36.5001Z" fill="#EF4932"/>
<path d="M41.3196 34.4793C41.1175 34.2589 40.8323 34.1335 40.5333 34.1335H35.4635L37.3077 25.8317C37.4355 25.2566 37.0729 24.6869 36.4979 24.559C36.1579 24.4834 35.8024 24.5786 35.5456 24.8141L22.7456 36.5474C22.3115 36.9455 22.2823 37.6204 22.6804 38.0545C22.8825 38.2749 23.1677 38.4002 23.4667 38.4002H28.5365L26.6923 46.7021C26.5645 47.2772 26.9271 47.8469 27.5021 47.9748C27.8421 48.0504 28.1976 47.9552 28.4544 47.7197L41.2544 35.9863C41.6885 35.5882 41.7177 34.9134 41.3196 34.4793ZM29.5093 43.8584L30.9077 37.565C31.0356 36.9899 30.6731 36.4201 30.098 36.2923C30.022 36.2754 29.9445 36.2669 29.8667 36.2669H26.2091L34.4907 28.6754L33.0923 34.9687C32.9644 35.5438 33.3269 36.1137 33.902 36.2414C33.978 36.2583 34.0555 36.2667 34.1333 36.2669H37.7909L29.5093 43.8584Z" fill="white"/>
<path d="M17.0667 34.1335H14.9333V42.6669H17.0667V34.1335Z" fill="white"/>
<path d="M17.0667 29.8669H14.9333V32.0003H17.0667V29.8669Z" fill="white"/>
</svg>
