<svg width="58" height="58" viewBox="0 0 58 58" fill="none" xmlns="http://www.w3.org/2000/svg">
<g clip-path="url(#clip0)">
<rect x="1" y="35.4152" width="28" height="6.92957" rx="3.46478" fill="#EF4932"/>
<rect x="1" y="42.344" width="28" height="6.92957" rx="3.46478" fill="#EF4932"/>
<rect x="1" y="50.2627" width="28" height="6.92957" rx="3.46478" fill="#EF4932"/>
<path d="M57.726 20.8557L48.3713 11.5009C48.2367 11.3667 48.0644 11.2766 47.8773 11.2427L37.5871 9.37176C37.0788 9.27927 36.5918 9.61639 36.4993 10.1247C36.4892 10.1797 36.4842 10.2354 36.4842 10.2913C36.4815 10.5886 36.4548 10.8851 36.4047 11.1782L29.9358 9.56166V9.26231C32.4669 8.74569 34.0999 6.27498 33.5833 3.74393C33.0667 1.21289 30.5959 -0.420105 28.0649 0.0965121C25.8875 0.54098 24.3235 2.45613 24.323 4.67847H26.1939C26.1939 3.12851 27.4504 1.87205 29.0004 1.87205C30.5503 1.87205 31.8068 3.12851 31.8068 4.67847C31.8068 6.22844 30.5503 7.4849 29.0004 7.4849C28.4838 7.4849 28.0649 7.90376 28.0649 8.42038V9.56073L21.5961 11.1782C21.5459 10.8851 21.5193 10.5886 21.5166 10.2913C21.5167 10.0138 21.3937 9.75074 21.1807 9.57289C20.969 9.39257 20.6866 9.31855 20.4136 9.37176L10.1234 11.2427C9.9363 11.2766 9.76406 11.3667 9.62946 11.5009L0.2747 20.8557C-0.0904861 21.221 -0.0904861 21.8131 0.2747 22.1784L7.75851 29.6622C8.12381 30.0274 8.71597 30.0274 9.08127 29.6622L11.2263 27.5172V33.6782H4.67799C2.1025 33.6708 0.00867441 35.7527 0.0011906 38.3281C-0.00313598 39.8157 0.702447 41.216 1.90056 42.0975C-0.166026 43.6075 -0.617276 46.5069 0.892816 48.5735C1.17475 48.9594 1.51467 49.2993 1.90056 49.5812C-0.173744 51.1077 -0.617861 54.0268 0.908603 56.1011C1.79029 57.2991 3.19058 58.0047 4.67799 58.0005H38.3551C38.6033 58.0005 38.8411 57.9018 39.0165 57.7264L46.5003 50.2426C46.6735 50.0664 46.7692 49.8283 46.766 49.5812H46.7744V27.5172L48.9195 29.6622C49.2848 30.0274 49.8769 30.0274 50.2422 29.6622L57.726 22.1784C58.0912 21.8131 58.0912 21.2209 57.726 20.8557ZM29.0004 11.2549L35.8032 12.9556C34.3932 15.3589 31.7856 16.8028 29.0004 16.7227C26.2151 16.8028 23.6076 15.3589 22.1976 12.9556L29.0004 11.2549ZM1.87156 38.3556C1.87156 36.8057 3.12802 35.5492 4.67799 35.5492H25.2585C26.8084 35.5492 28.0649 36.8057 28.0649 38.3556C28.0649 39.9056 26.8084 41.1621 25.2585 41.1621H4.67799C3.12802 41.1621 1.87156 39.9055 1.87156 38.3556ZM1.87156 45.8394C1.87156 44.2895 3.12802 43.033 4.67799 43.033H25.2585C26.8084 43.033 28.0649 44.2895 28.0649 45.8394C28.0649 47.3894 26.8084 48.6459 25.2585 48.6459H4.67799C3.12802 48.6459 1.87156 47.3893 1.87156 45.8394ZM25.2585 56.1297H23.3875H4.67799C3.12802 56.1297 1.87156 54.8732 1.87156 53.3232C1.87156 51.7733 3.12802 50.5168 4.67799 50.5168H25.2585C26.8084 50.5168 28.0649 51.7733 28.0649 53.3232C28.0649 54.8732 26.8084 56.1297 25.2585 56.1297ZM39.2906 54.8069V50.5168H43.5807L39.2906 54.8069ZM49.5809 27.6781L43.6939 21.7911L42.3711 23.1139L44.9035 25.6462V48.6459H38.3551C37.8385 48.6459 37.4197 49.0647 37.4197 49.5813V56.1297H28.976C30.533 54.1126 30.1601 51.2153 28.1431 49.6582C28.1093 49.6321 28.0752 49.6065 28.0406 49.5813C30.1072 48.0714 30.5584 45.172 29.0484 43.1053C28.7665 42.7194 28.4266 42.3795 28.0406 42.0975C30.115 40.5711 30.5591 37.6519 29.0325 35.5776C28.1499 34.3782 26.7475 33.6725 25.2585 33.6782H13.0973V25.6462L15.6296 23.1139L14.3068 21.7911L8.41989 27.6781L2.25885 21.517L10.7455 13.0304L19.7261 11.398C20.3379 15.4542 24.2631 18.5937 28.9985 18.5937C33.7339 18.5937 37.6591 15.4542 38.2709 11.398L47.2515 13.0304L55.7419 21.517L49.5809 27.6781Z" fill="white"/>
<path d="M26 38.0001H4V39.0001H26V38.0001Z" fill="white"/>
<path d="M25 45.0001H4V46.0001H25V45.0001Z" fill="white"/>
<path d="M25 53.0001H4V54.0001H25V53.0001Z" fill="white"/>
</g>
<defs>
<clipPath id="clip0">
<rect width="58" height="58" fill="white" transform="translate(0 0.000244141)"/>
</clipPath>
</defs>
</svg>
