<svg width="50" height="46" viewBox="0 0 50 46" fill="none" xmlns="http://www.w3.org/2000/svg">
<path d="M49.5367 39.9792L27.9587 2.60499C26.6435 0.32677 23.3569 0.325891 22.0411 2.60499L0.463096 39.9792C-0.851845 42.2566 0.789561 45.104 3.42189 45.104H46.5779C49.2076 45.104 50.8529 42.2588 49.5367 39.9792ZM46.5779 42.1755H3.42189C3.04649 42.1755 2.80987 41.7713 2.99923 41.4434L24.5773 4.06925C24.7651 3.74406 25.2333 3.74132 25.4227 4.06925L47.0007 41.4435C47.1888 41.7694 46.9559 42.1755 46.5779 42.1755Z" fill="white"/>
<path d="M25.9505 37.9576C26.7829 37.4431 27.0406 36.3512 26.5261 35.5188C26.0116 34.6864 24.9197 34.4287 24.0873 34.9432C23.2549 35.4577 22.9972 36.5496 23.5117 37.382C24.0262 38.2144 25.1181 38.4721 25.9505 37.9576Z" fill="white"/>
<path d="M25.019 32.1042C25.8276 32.1042 26.4832 31.4486 26.4832 30.6399V13.903C26.4832 13.0943 25.8276 12.4387 25.019 12.4387C24.2103 12.4387 23.5547 13.0943 23.5547 13.903V30.6399C23.5547 31.4486 24.2103 32.1042 25.019 32.1042Z" fill="white"/>
</svg>
