<svg width="18" height="18" viewBox="0 0 18 18" fill="none" xmlns="http://www.w3.org/2000/svg">
<g clip-path="url(#clip0)">
<path d="M17.9653 9.83128C17.8037 8.2057 17.0775 6.67318 15.9203 5.51599C14.9314 4.52713 13.721 3.89167 12.4474 3.60912V2.71586C12.9676 2.58644 13.3543 2.11559 13.3543 1.55593C13.3543 0.896807 12.8181 0.360596 12.1589 0.360596H9.62766C8.96854 0.360596 8.43232 0.896807 8.43232 1.55593C8.43232 2.11555 8.81898 2.58641 9.33912 2.71586V3.61162C8.06944 3.89537 6.86306 4.52995 5.87699 5.51603C5.66119 5.73182 5.46221 5.95819 5.28006 6.19346C5.27123 6.19279 5.26241 6.19213 5.25341 6.19213H2.7481C2.55397 6.19213 2.39653 6.34952 2.39653 6.54369C2.39653 6.73786 2.55397 6.89526 2.7481 6.89526H4.80168C4.54391 7.32681 4.33606 7.78002 4.17786 8.24655H0.351568C0.157432 8.24655 0 8.40395 0 8.59812C0 8.79229 0.157432 8.94969 0.351568 8.94969H3.97919C3.87787 9.39445 3.81972 9.8471 3.8047 10.301H2.25004C2.0559 10.301 1.89847 10.4584 1.89847 10.6526C1.89847 10.8467 2.0559 11.0041 2.25004 11.0041H3.81592C3.84559 11.4592 3.91875 11.9119 4.03544 12.3555H1.75784C1.5637 12.3555 1.40627 12.5129 1.40627 12.707C1.40627 12.9012 1.5637 13.0586 1.75784 13.0586H4.25981C4.6047 13.971 5.14369 14.8261 5.87699 15.5594C7.03526 16.7177 8.56936 17.4441 10.1966 17.6048C10.4289 17.6278 10.6613 17.6391 10.8934 17.6391C12.2653 17.6391 13.6197 17.2421 14.769 16.4937C14.9317 16.3877 14.9777 16.1699 14.8718 16.0072C14.7658 15.8445 14.548 15.7985 14.3853 15.9044C11.8696 17.5426 8.50042 17.1884 6.37417 15.0622C3.87938 12.5674 3.87938 8.50808 6.37417 6.01325C8.86894 3.51849 12.9282 3.51849 15.4231 6.01325C17.5465 8.13672 17.9027 11.503 16.2699 14.0175C16.1641 14.1803 16.2104 14.3981 16.3732 14.5038C16.5361 14.6096 16.7538 14.5633 16.8596 14.4004C17.7319 13.0569 18.1246 11.4343 17.9653 9.83128ZM9.13546 1.55596C9.13546 1.28455 9.35624 1.06377 9.62766 1.06377H12.1589C12.4304 1.06377 12.6511 1.28455 12.6511 1.55596C12.6511 1.82737 12.4304 2.04816 12.1589 2.04816H12.0959H9.69069H9.62766C9.35624 2.04816 9.13546 1.82734 9.13546 1.55596ZM10.0423 3.49075V2.75129H11.7443V3.48948C11.1791 3.42226 10.6073 3.42268 10.0423 3.49075Z" fill="#EF4932"/>
<path d="M15.6719 14.959C15.5791 14.959 15.4887 14.9966 15.4234 15.062C15.3576 15.1274 15.3203 15.2181 15.3203 15.3105C15.3203 15.403 15.3576 15.4937 15.4234 15.5591C15.4887 15.6248 15.5791 15.6621 15.6719 15.6621C15.7643 15.6621 15.8547 15.6248 15.9204 15.5591C15.9858 15.4937 16.0234 15.403 16.0234 15.3105C16.0234 15.2181 15.9859 15.1274 15.9204 15.062C15.8547 14.9966 15.7643 14.959 15.6719 14.959Z" fill="#EF4932"/>
<path d="M10.8987 5.08398C7.89142 5.08398 5.44482 7.53055 5.44482 10.5378C5.44482 13.5451 7.89142 15.9917 10.8987 15.9917C13.9059 15.9917 16.3525 13.5451 16.3525 10.5378C16.3525 7.53055 13.9059 5.08398 10.8987 5.08398ZM10.8987 15.2885C8.27909 15.2885 6.14796 13.1574 6.14796 10.5378C6.14796 7.91829 8.27909 5.78712 10.8987 5.78712C13.5182 5.78712 15.6494 7.91829 15.6494 10.5378C15.6494 13.1574 13.5182 15.2885 10.8987 15.2885Z" fill="#EF4932"/>
<path d="M13.1226 7.81659L11.3812 9.55787C11.2356 9.48587 11.0718 9.44519 10.8987 9.44519C10.7255 9.44519 10.5617 9.48587 10.4161 9.55787L9.63681 8.77855C9.49949 8.64126 9.27694 8.64126 9.13959 8.77855C9.0023 8.91584 9.0023 9.13845 9.13959 9.27574L9.9189 10.0551C9.84687 10.2007 9.80623 10.3645 9.80623 10.5376C9.80623 11.14 10.2963 11.6301 10.8987 11.6301C11.5011 11.6301 11.9911 11.14 11.9911 10.5376C11.9911 10.3645 11.9505 10.2007 11.8785 10.0551L13.5687 8.36486L13.6197 8.31378C13.757 8.17649 13.757 7.95388 13.6197 7.81659C13.4825 7.6793 13.2599 7.6793 13.1226 7.81659ZM10.8987 10.927C10.684 10.927 10.5094 10.7523 10.5094 10.5377C10.5094 10.323 10.684 10.1483 10.8987 10.1483C11.1134 10.1483 11.288 10.323 11.288 10.5377C11.288 10.7523 11.1134 10.927 10.8987 10.927Z" fill="#EF4932"/>
<path d="M14.6575 10.1904H14.3318C14.1377 10.1904 13.9802 10.3478 13.9802 10.542C13.9802 10.7362 14.1377 10.8936 14.3318 10.8936H14.6575C14.8516 10.8936 15.0091 10.7362 15.0091 10.542C15.0091 10.3478 14.8516 10.1904 14.6575 10.1904Z" fill="#EF4932"/>
<path d="M7.46534 10.1819H7.13965C6.94552 10.1819 6.78809 10.3393 6.78809 10.5334C6.78809 10.7276 6.94552 10.885 7.13965 10.885H7.46534C7.65947 10.885 7.8169 10.7276 7.8169 10.5334C7.8169 10.3393 7.65947 10.1819 7.46534 10.1819Z" fill="#EF4932"/>
<path d="M10.9028 7.45581C11.097 7.45581 11.2544 7.29842 11.2544 7.10425V6.77856C11.2544 6.5844 11.097 6.427 10.9028 6.427C10.7087 6.427 10.5513 6.5844 10.5513 6.77856V7.10425C10.5513 7.29842 10.7087 7.45581 10.9028 7.45581Z" fill="#EF4932"/>
<path d="M10.8943 13.6191C10.7002 13.6191 10.5427 13.7765 10.5427 13.9707V14.2964C10.5427 14.4906 10.7002 14.648 10.8943 14.648C11.0884 14.648 11.2458 14.4906 11.2458 14.2964V13.9707C11.2458 13.7765 11.0884 13.6191 10.8943 13.6191Z" fill="#EF4932"/>
<path d="M0.351562 12.3552C0.259102 12.3552 0.168398 12.3928 0.103008 12.4582C0.0376172 12.5236 0 12.6143 0 12.7068C0 12.7996 0.037582 12.89 0.103008 12.9553C0.168434 13.0207 0.259102 13.0583 0.351562 13.0583C0.444023 13.0583 0.534727 13.0207 0.600082 12.9553C0.665473 12.89 0.703125 12.7992 0.703125 12.7068C0.703125 12.6143 0.665508 12.5236 0.600082 12.4582C0.534727 12.3928 0.444023 12.3552 0.351562 12.3552Z" fill="#EF4932"/>
</g>
<defs>
<clipPath id="clip0">
<rect width="18" height="18" fill="white"/>
</clipPath>
</defs>
</svg>
