<svg width="32" height="32" viewBox="0 0 32 32" fill="none" xmlns="http://www.w3.org/2000/svg">
<path d="M18.1384 8.36781C18.5528 7.87775 18.8125 7.25306 18.8125 6.5625C18.8125 5.34025 18.0288 4.2975 16.9375 3.91019V1.875H18.8125V0H13.1875V1.875H15.0625V5.625H16C16.5173 5.625 16.9375 6.04525 16.9375 6.5625C16.9375 7.07975 16.5173 7.5 16 7.5C15.4827 7.5 15.0625 7.07975 15.0625 6.5625H13.1875C13.1875 7.25306 13.4472 7.87775 13.8616 8.36781L4.52475 13.125H0V32H32V13.125H27.4753L18.1384 8.36781ZM15.9998 9.375H16.0002L23.3497 13.125H8.65025L15.9998 9.375ZM5.6875 28.25H3.8125V16.875H5.6875V28.25ZM11.3125 28.25H9.4375V16.875H11.3125V28.25ZM16.9375 28.25H15.0625V16.875H16.9375V28.25ZM22.5625 28.25H20.6875V16.875H22.5625V28.25ZM28.1875 28.25H26.3125V16.875H28.1875V28.25Z" fill="white"/>
</svg>
