<svg width="33" height="33" viewBox="0 0 33 33" fill="none" xmlns="http://www.w3.org/2000/svg">
<circle cx="16.5" cy="16.5" r="16.5" fill="#EF4932"/>
<path d="M11.6676 9C11.226 9 10.8158 9.21929 10.5707 9.58708L9.36909 11.3895C9.31776 11.4664 9.29312 11.5549 9.2522 11.6367H16.0606V9H11.6676Z" fill="white"/>
<path d="M23.6309 11.3895L22.4293 9.58708C22.1842 9.21929 21.7447 9 21.3031 9H16.9395V11.6367H23.7478C23.7069 11.5549 23.6822 11.4664 23.6309 11.3895Z" fill="white"/>
<path d="M23.9863 12.5156H9.01368C9.01233 12.5472 9 12.5766 9 12.6083V22.6816C9 23.4086 9.59139 24 10.3184 24H22.6816C23.4086 24 24 23.4086 24 22.6816V12.6083C24 12.5766 23.9877 12.5472 23.9863 12.5156ZM18.2578 16.9102H14.7422C14.0152 16.9102 13.4238 16.3188 13.4238 15.5918C13.4238 14.8648 14.0152 14.2734 14.7422 14.2734H18.2578C18.9848 14.2734 19.5762 14.8648 19.5762 15.5918C19.5762 16.3188 18.9848 16.9102 18.2578 16.9102Z" fill="white"/>
</svg>
