<svg width="36" height="36" viewBox="0 0 36 36" fill="none" xmlns="http://www.w3.org/2000/svg">
<path d="M36 8.50781H10.5469V10.6172H3.18178L0 17.7762V25.3828H4.40016C4.83553 26.6103 6.00785 27.4922 7.38281 27.4922C8.75777 27.4922 9.93009 26.6103 10.3655 25.3828H23.5252C23.9605 26.6103 25.1329 27.4922 26.5078 27.4922C27.3176 27.4922 28.0569 27.186 28.6172 26.6839C29.1774 27.1861 29.9168 27.4922 30.7266 27.4922C32.4712 27.4922 33.8906 26.0728 33.8906 24.3281C33.8906 23.2654 33.3634 22.3241 32.5574 21.75H36V8.50781ZM2.67757 16.9453L4.55259 12.7266H7.03125V16.9453H2.67757ZM7.38281 25.3828C6.80126 25.3828 6.32812 24.9097 6.32812 24.3281C6.32812 23.7466 6.80126 23.2734 7.38281 23.2734C7.96437 23.2734 8.4375 23.7466 8.4375 24.3281C8.4375 24.9097 7.96437 25.3828 7.38281 25.3828ZM23.3438 23.2734H12.6562V21.75H23.3438V23.2734ZM26.5078 25.3828C25.9263 25.3828 25.4531 24.9097 25.4531 24.3281C25.4531 23.7466 25.9263 23.2734 26.5078 23.2734C27.0894 23.2734 27.5625 23.7466 27.5625 24.3281C27.5625 24.9097 27.0894 25.3828 26.5078 25.3828ZM30.7266 25.3828C30.145 25.3828 29.6719 24.9097 29.6719 24.3281C29.6719 23.7466 30.145 23.2734 30.7266 23.2734C31.3081 23.2734 31.7812 23.7466 31.7812 24.3281C31.7812 24.9097 31.3081 25.3828 30.7266 25.3828Z" fill="white"/>
</svg>
