<svg width="34" height="34" viewBox="0 0 34 34" fill="none" xmlns="http://www.w3.org/2000/svg">
<g clip-path="url(#clip0)">
<path d="M18.9879 15.6774H22.1923V17.6608H18.9879C18.4375 17.6608 17.9919 18.107 17.9919 18.6567V21.8618H16.0086V18.6567C16.0086 18.107 15.5631 17.6608 15.0126 17.6608H11.8076V15.6774H15.0126C15.5631 15.6774 16.0086 15.2319 16.0086 14.6815V11.4764H17.9919V14.6815C17.9919 15.2318 18.4375 15.6774 18.9879 15.6774Z" fill="white"/>
<path d="M31.4068 9.22153L31.4062 9.189C31.3902 8.34176 31.375 7.541 31.375 6.77078C31.375 5.6035 30.4255 4.65467 29.2588 4.65467C24.7438 4.65467 21.317 3.36721 18.4745 0.603061C17.6471 -0.20102 16.3511 -0.20102 15.5237 0.603061C12.6819 3.36721 9.2551 4.65467 4.74069 4.65467C3.57408 4.65467 2.62458 5.6035 2.62458 6.77078C2.62458 7.55693 2.60931 8.36566 2.59271 9.2222C2.51635 13.2194 2.42141 18.1939 4.09065 22.7096C5.00894 25.1929 6.39865 27.3502 8.22194 29.123C10.2989 31.1422 13.0185 32.7437 16.3059 33.8831C16.5297 33.9608 16.7627 34 16.9991 34C17.2355 34 17.4692 33.9608 17.6923 33.8831C20.9797 32.7437 23.7 31.1422 25.7769 29.123C27.6002 27.3502 28.9899 25.1923 29.9082 22.7096C31.5781 18.1932 31.4832 13.2187 31.4068 9.22153ZM24.184 18.6566C24.184 19.2064 23.7385 19.6526 23.1881 19.6526H19.9837V22.8576C19.9837 23.4074 19.5375 23.8536 18.9877 23.8536H15.0125C14.4627 23.8536 14.0165 23.4074 14.0165 22.8576V19.6526H10.8115C10.261 19.6526 9.8155 19.2064 9.8155 18.6566V14.6814C9.8155 14.1316 10.261 13.6854 10.8115 13.6854H14.0165V10.4804C14.0165 9.9306 14.4627 9.4844 15.0125 9.4844H18.9877C19.5375 9.4844 19.9837 9.9306 19.9837 10.4804V13.6854H23.1881C23.7385 13.6854 24.184 14.1316 24.184 14.6814V18.6566Z" fill="white"/>
</g>
<defs>
<clipPath id="clip0">
<rect width="34" height="34" fill="white"/>
</clipPath>
</defs>
</svg>
