<svg width="34" height="34" viewBox="0 0 34 34" fill="none" xmlns="http://www.w3.org/2000/svg">
<g clip-path="url(#clip0)">
<path d="M33.2447 8.40978C33.2447 8.37384 33.2447 8.37384 33.2447 8.3379C33.2088 8.26603 33.2088 8.19415 33.1729 8.12227V8.08633C33.1369 8.01445 33.065 7.94257 33.0291 7.90663L32.9932 7.8707C32.9572 7.83476 32.8854 7.79882 32.8494 7.76288L32.8135 7.72694H32.7775L32.7416 7.691L17.4674 0.107818C17.1799 -0.0359393 16.8205 -0.0359393 16.4971 0.107818L11.3577 2.6595L26.7038 10.5302L26.7397 10.5661C26.7757 10.5661 26.7757 10.6021 26.8116 10.6021C26.8476 10.638 26.8476 10.674 26.8835 10.7099C26.8835 10.7458 26.8835 10.7458 26.8835 10.7818V10.8177V19.1556C26.8835 19.2994 26.8116 19.4072 26.7038 19.4791L23.613 21.0963C23.4333 21.2042 23.2177 21.1323 23.1099 20.9526C23.0739 20.9166 23.0739 20.8448 23.0739 20.7729V12.6147L7.54818 4.60022L7.51224 4.56428L1.29475 7.65506L1.25882 7.691H1.22288L1.18694 7.72694C1.151 7.76288 1.07912 7.79882 1.04318 7.83476L1.00724 7.8707C0.935362 7.94257 0.899423 8.01445 0.827544 8.08633V8.12227C0.791605 8.19415 0.755666 8.26603 0.755666 8.3379C0.755666 8.37384 0.755666 8.37384 0.755666 8.40978C0.755666 8.48166 0.719727 8.5176 0.719727 8.58948V8.62542V25.3731C0.719727 25.7684 0.935362 26.1638 1.33069 26.3435L16.4611 33.8907C16.6768 33.9985 16.9283 34.0345 17.1799 33.9626L17.2518 33.9267C17.3237 33.9267 17.3596 33.8907 17.4315 33.8548L32.6697 26.3075C33.0291 26.1278 33.2807 25.7684 33.2807 25.3372V8.62542V8.58948C33.2447 8.5176 33.2447 8.48166 33.2447 8.40978Z" fill="white"/>
</g>
<defs>
<clipPath id="clip0">
<rect width="34" height="34" fill="white"/>
</clipPath>
</defs>
</svg>
