<svg width="17" height="17" viewBox="0 0 17 17" fill="none" xmlns="http://www.w3.org/2000/svg">
<g clip-path="url(#clip0)">
<path d="M7.69157 8.99628L10.9761 7.5365L14.6255 8.99628C14.6255 8.99628 14.9388 10.8196 14.6255 11.9159C14.0718 13.8538 11.706 15.2004 10.9761 15.5653C8.93238 14.9814 7.93486 12.6457 7.69157 11.5509V8.99628Z" fill="#EF4932"/>
<path d="M12.7932 12.684C12.6508 12.5852 12.4554 12.6207 12.3567 12.7631C12.2612 12.9011 12.1528 13.0352 12.0346 13.1619C11.9554 13.2469 11.8465 13.3493 11.7279 13.4502C11.596 13.5624 11.5801 13.7604 11.6923 13.8923C11.7544 13.9652 11.8426 14.0027 11.9313 14.0027C12.0032 14.0027 12.0754 13.9781 12.1345 13.9279C12.2728 13.8101 12.3969 13.6932 12.4934 13.5897C12.632 13.4411 12.7596 13.2832 12.8723 13.1203C12.971 12.978 12.9355 12.7826 12.7932 12.684Z" fill="white"/>
<path d="M11.4269 14.0902C11.3533 13.9334 11.1667 13.8659 11.0098 13.9394L11 13.9438C10.8415 14.0137 10.7697 14.1989 10.8397 14.3574C10.8915 14.4747 11.0063 14.5445 11.1268 14.5445C11.1691 14.5445 11.2121 14.5358 11.2532 14.5177C11.2609 14.5143 11.2685 14.5109 11.2761 14.5073C11.4329 14.4338 11.5004 14.2471 11.4269 14.0902Z" fill="white"/>
<path d="M15.1482 1.41809H0.964527C0.447861 1.41809 0.0275726 1.83844 0.0275726 2.35505V11.1444C0.0275726 11.661 0.447861 12.0813 0.964527 12.0813H7.56903C7.849 13.2659 8.48211 14.1048 9.03544 14.6423C9.84309 15.427 10.7689 15.8448 11.1267 15.8448C11.4845 15.8448 12.4103 15.427 13.218 14.6424C13.7713 14.1048 14.4045 13.2659 14.6844 12.0814H15.1482C15.6649 12.0814 16.0852 11.661 16.0852 11.1445V2.35505C16.0852 1.83844 15.6649 1.41809 15.1482 1.41809ZM14.2034 10.796C14.2034 12.4485 13.4407 13.5446 12.8008 14.1731C12.0417 14.9187 11.2631 15.2087 11.1267 15.2175C10.9904 15.2087 10.2117 14.9187 9.45263 14.1731C8.81277 13.5446 8.05 12.4485 8.05 10.796V9.25156C9.12981 8.93929 10.1402 8.51191 11.1268 7.95027C12.0912 8.49764 13.1469 8.94402 14.2034 9.25137V10.796ZM15.4579 11.1444C15.4579 11.3152 15.319 11.4541 15.1482 11.4541H14.7935C14.8175 11.2439 14.8307 11.0248 14.8307 10.796V9.01377C14.8307 8.8722 14.7359 8.74822 14.5993 8.71112C13.4604 8.40186 12.3144 7.91994 11.2851 7.3175C11.1873 7.26023 11.0662 7.26029 10.9683 7.31756C9.90983 7.9371 8.82578 8.39289 7.65418 8.71112C7.51759 8.74826 7.42275 8.87223 7.42275 9.01377V10.796C7.42275 11.0248 7.43589 11.2439 7.45995 11.4541H0.964527C0.793758 11.4541 0.654822 11.3151 0.654822 11.1444V5.80878H15.4579V11.1444ZM15.4579 5.18156H0.654822V3.92712H15.4579V5.18156ZM15.4579 3.29984H0.654822V2.35505C0.654822 2.18428 0.793758 2.04534 0.964527 2.04534H15.1482C15.319 2.04534 15.4579 2.18428 15.4579 2.35505V3.29984Z" fill="white"/>
<path d="M3.79034 8.00415C3.60126 8.00415 3.41456 8.04238 3.24175 8.11527C3.07293 8.04373 2.88739 8.00415 2.69281 8.00415C1.91462 8.00415 1.28147 8.63724 1.28147 9.4154C1.28147 10.1936 1.91459 10.8267 2.69281 10.8267C2.88739 10.8267 3.07293 10.7871 3.24172 10.7156C3.41456 10.7885 3.60126 10.8267 3.79034 10.8267C4.56857 10.8267 5.20171 10.1936 5.20171 9.4154C5.20171 8.63724 4.56857 8.00415 3.79034 8.00415ZM2.69281 10.1995C2.26045 10.1995 1.90872 9.84777 1.90872 9.4154C1.90872 8.98307 2.26045 8.6314 2.69281 8.6314C3.12511 8.6314 3.47684 8.98307 3.47684 9.4154C3.47684 9.84774 3.12511 10.1995 2.69281 10.1995ZM3.86809 10.1956C4.01706 9.97199 4.10409 9.70369 4.10409 9.41544C4.10409 9.12718 4.01706 8.85894 3.86812 8.63529C4.26407 8.67443 4.57443 9.00938 4.57443 9.41544C4.57443 9.82149 4.26407 10.1565 3.86809 10.1956Z" fill="white"/>
<path d="M3.20954 6.5929H1.59635C1.42313 6.5929 1.28272 6.73331 1.28272 6.90652C1.28272 7.0797 1.42313 7.22015 1.59635 7.22015H3.20954C3.38275 7.22015 3.52316 7.07967 3.52316 6.90652C3.52316 6.73331 3.38275 6.5929 3.20954 6.5929Z" fill="white"/>
<path d="M4.13626 6.5929H4.12139C3.94818 6.5929 3.80777 6.73331 3.80777 6.90652C3.80777 7.0797 3.94818 7.22015 4.12139 7.22015H4.13626C4.30944 7.22015 4.44988 7.07967 4.44988 6.90652C4.44988 6.73331 4.30944 6.5929 4.13626 6.5929Z" fill="white"/>
<path d="M12.8484 10.0747C12.726 9.95234 12.5275 9.95227 12.4049 10.0747L10.7278 11.7518L9.84889 10.8728C9.72639 10.7504 9.5278 10.7504 9.40533 10.8728C9.28286 10.9953 9.28283 11.1939 9.40533 11.3164L10.506 12.4171C10.5672 12.4783 10.6475 12.509 10.7278 12.509C10.808 12.509 10.8883 12.4783 10.9495 12.4171L12.8484 10.5183C12.9709 10.3959 12.9709 10.1973 12.8484 10.0747Z" fill="white"/>
</g>
<defs>
<clipPath id="clip0">
<rect width="16.0576" height="16.0576" fill="white" transform="translate(0.0275726 0.602539)"/>
</clipPath>
</defs>
</svg>
