<svg width="70" height="70" viewBox="0 0 70 70" fill="none" xmlns="http://www.w3.org/2000/svg">
<g clip-path="url(#clip0)">
<path d="M30.1408 0.410228C20.3493 2.15872 12.656 10.2018 10.9075 19.9933C9.15899 29.4351 13.0057 38.1775 19.6499 43.423C26.2942 49.0182 31.1899 56.3618 33.6378 64.7545L35.0366 70L36.7851 64.7545C39.233 56.0121 44.8281 48.6685 51.4724 42.7236C56.3681 38.5272 59.5154 31.883 59.5154 24.5393C59.5154 9.50236 45.8772 -2.38735 30.1408 0.410228ZM35.0366 38.5272C27.3433 38.5272 21.0487 32.2327 21.0487 24.5393C21.0487 16.846 27.3433 10.5515 35.0366 10.5515C42.7299 10.5515 49.0245 16.846 49.0245 24.5393C49.0245 32.2327 42.7299 38.5272 35.0366 38.5272Z" fill="#EF4932"/>
</g>
<defs>
<clipPath id="clip0">
<rect width="70" height="70" fill="white"/>
</clipPath>
</defs>
</svg>
