<svg width="18" height="18" viewBox="0 0 18 18" fill="none" xmlns="http://www.w3.org/2000/svg">
<g clip-path="url(#clip0)">
<path d="M1.48946 15.1774L10.3058 15.5039V17.1366H1.48946V15.1774Z" fill="#EF4932"/>
<path d="M9.67992 17.7897H1.89761C1.31252 17.7897 0.836388 17.3135 0.836388 16.7284V16.0209C0.836388 15.4359 1.31252 14.9597 1.89761 14.9597H9.67992C10.265 14.9597 10.7411 15.4359 10.7411 16.0209V16.7284C10.7411 17.3135 10.265 17.7897 9.67992 17.7897ZM1.89761 15.6672C1.70235 15.6672 1.54387 15.8264 1.54387 16.0209V16.7284C1.54387 16.923 1.70235 17.0822 1.89761 17.0822H9.67992C9.87519 17.0822 10.0337 16.923 10.0337 16.7284V16.0209C10.0337 15.8264 9.87519 15.6672 9.67992 15.6672H1.89761Z" fill="white"/>
<path d="M8.40067 9.74387C8.23582 9.74387 8.07805 9.69576 7.94788 9.56558L5.46461 7.08231C5.03022 6.64792 5.50777 5.89657 5.66412 5.65037C5.95773 5.18909 6.41476 4.63867 6.95245 4.10098C7.49084 3.56188 8.04197 3.10343 8.50325 2.80982C8.75087 2.65206 9.50292 2.17451 9.93732 2.6089L12.4206 5.09216C12.8557 5.52727 12.3767 6.28003 12.2197 6.52694C11.9253 6.98893 11.4669 7.54006 10.9278 8.07845C10.3901 8.61614 9.83969 9.07317 9.37912 9.36607C9.2072 9.47644 8.78624 9.74387 8.40067 9.74387ZM9.43784 3.10909C9.31403 3.11404 8.53792 3.5166 7.45547 4.59834C6.37302 5.68079 5.96975 6.45761 5.99522 6.63306L8.44878 9.06539C8.57329 9.06044 9.3494 8.65788 10.4326 7.57543C11.474 6.53331 11.8857 5.77559 11.8928 5.56335L9.43784 3.10909Z" fill="white"/>
<path d="M7.20545 11.3648C6.9352 11.3648 6.66423 11.2615 6.45835 11.0557L3.97509 8.5724C3.77558 8.3736 3.66592 8.10829 3.66592 7.82601C3.66592 7.54372 3.77558 7.27842 3.97579 7.07891L4.47245 6.58225C4.8842 6.1705 5.55419 6.1705 5.96594 6.58225L8.44921 9.06552C8.86096 9.47727 8.86096 10.1473 8.44921 10.559L7.95256 11.0557C7.74597 11.2615 7.47571 11.3648 7.20545 11.3648ZM5.21884 6.98057C5.1297 6.98057 5.04056 7.01523 4.97193 7.08315L4.47598 7.5791C4.40948 7.6456 4.3734 7.73262 4.3734 7.82601C4.3734 7.9194 4.40948 8.00642 4.47598 8.07292L6.95925 10.5562C7.09579 10.692 7.31653 10.6913 7.45237 10.5562L7.94902 10.0595C8.08486 9.9237 8.08486 9.70225 7.94902 9.56642L5.46575 7.08315C5.39713 7.01523 5.30798 6.98057 5.21884 6.98057Z" fill="white"/>
<path d="M12.6692 5.901C12.3989 5.901 12.1279 5.7977 11.9221 5.59183L9.43879 3.10856C9.02704 2.69681 9.02704 2.02753 9.43879 1.61577L9.93544 1.11912C10.3472 0.707364 11.0172 0.707364 11.4289 1.11912L13.9122 3.60238C14.324 4.01414 14.324 4.68413 13.9122 5.09588L13.4156 5.59253C13.2097 5.79841 12.9394 5.901 12.6692 5.901ZM10.6825 1.51814C10.5934 1.51814 10.5043 1.5521 10.4356 1.62002L9.93898 2.11667C9.80314 2.25251 9.80314 2.47324 9.93898 2.60908L12.4222 5.09234C12.5581 5.22747 12.7795 5.22747 12.9154 5.09234L13.412 4.5964C13.5479 4.46056 13.5479 4.23912 13.412 4.10328L10.9287 1.62002C10.8608 1.5521 10.7717 1.51814 10.6825 1.51814ZM13.6618 4.84614H13.6688H13.6618Z" fill="white"/>
<path d="M16.4698 14.9618C16.0432 14.9618 15.584 14.7177 15.0959 14.2296C14.6077 13.7414 11.7374 10.5825 9.95599 8.48199C9.82935 8.33341 9.84775 8.10985 9.99703 7.98392C10.1456 7.85728 10.3692 7.87497 10.4958 8.02495C12.3537 10.2153 15.1744 13.3077 15.596 13.7294C16.3927 14.5274 16.7033 14.2168 16.8886 14.0329C16.9735 13.948 17.0902 13.832 17.1065 13.6657C17.1306 13.4245 16.9502 13.1047 16.5858 12.7396C16.1677 12.3208 13.0802 9.5043 10.8814 7.63796C10.7321 7.51132 10.7137 7.28846 10.8403 7.13989C10.9677 6.9892 11.1905 6.97292 11.3391 7.09886C13.4481 8.88808 16.6035 11.7548 17.0874 12.2394C17.6145 12.7665 17.8586 13.2702 17.8119 13.7358C17.7701 14.1525 17.5133 14.4093 17.3902 14.5324C17.103 14.8189 16.7959 14.9618 16.4698 14.9618Z" fill="white"/>
</g>
<defs>
<clipPath id="clip0">
<rect width="16.9796" height="16.9796" fill="white" transform="translate(0.836395 0.810059)"/>
</clipPath>
</defs>
</svg>
