<svg width="49" height="50" viewBox="0 0 49 50" fill="none" xmlns="http://www.w3.org/2000/svg">
<g clip-path="url(#clip0)">
<path d="M47.9846 27.7758L43.5445 19.0369C43.1448 18.2501 42.3806 17.7616 41.5502 17.7616C40.053 17.7616 8.94422 17.7616 7.44972 17.7616C6.61921 17.7616 5.85512 18.2501 5.45537 19.0369L1.01531 27.7758C0.780555 28.2379 0.802567 28.7987 1.07283 29.2391C1.32338 29.6474 1.74888 29.8911 2.21093 29.8911H5.82612V47.4704C5.82612 48.7181 6.76602 49.7333 7.92144 49.7333C8.39546 49.7333 40.6048 49.7333 41.0788 49.7333C42.2342 49.7333 43.1742 48.7182 43.1742 47.4704V39.9238C43.1742 39.5273 42.8529 39.206 42.4563 39.206C42.0597 39.206 41.7384 39.5272 41.7384 39.9238V47.4705C41.7384 47.9189 41.4364 48.2978 41.0787 48.2978H25.2179V21.477L28.9618 28.8455C29.2894 29.4906 29.9185 29.8913 30.6035 29.8913H41.7382V36.5741C41.7382 36.9706 42.0595 37.292 42.4561 37.292C42.8527 37.292 43.174 36.9707 43.174 36.5741V29.8913H46.7892C47.2512 29.8913 47.6766 29.6475 47.9273 29.2392C48.1973 28.7986 48.2194 28.238 47.9846 27.7758ZM2.28836 28.4556C2.28836 28.4465 2.29018 28.4364 2.29525 28.4262L6.7353 19.6873C6.88881 19.3851 7.16261 19.1973 7.44982 19.1973H23.3301C22.7815 20.2773 19.4989 26.7377 18.7584 28.1953V28.1954C18.6768 28.3559 18.5382 28.4556 18.3966 28.4556C17.9916 28.4556 2.72553 28.4556 2.28836 28.4556ZM23.7821 48.2977H7.92135C7.5638 48.2978 7.26176 47.919 7.26176 47.4705V29.8912H18.3965C19.084 29.8912 19.7118 29.4883 20.0382 28.8455L23.7821 21.4769V48.2977ZM30.6035 28.4555C30.4619 28.4555 30.3232 28.3558 30.2417 28.1952L25.67 19.1972H41.5503C41.8374 19.1972 42.1111 19.385 42.2648 19.6872L46.7048 28.4261C46.71 28.4363 46.7117 28.4464 46.7117 28.4555C46.2738 28.4555 31.0086 28.4555 30.6035 28.4555Z" fill="#EF4932"/>
<path d="M24.4999 2.96529C22.8999 0.398245 19.3096 -0.0352904 17.1477 2.12971C16.2546 3.02405 15.7634 4.21125 15.7647 5.47271C15.7683 9.11785 18.2089 12.6465 22.4606 15.1538C22.5751 15.2214 22.7006 15.2535 22.8246 15.2535C23.0702 15.2535 23.3096 15.1272 23.4435 14.9002C23.6448 14.5589 23.5313 14.1186 23.1899 13.9173C21.3906 12.856 17.2048 9.90874 17.2001 5.47128C17.1982 3.49424 18.9398 1.94002 20.9287 2.2078C22.7063 2.44734 23.3218 3.84404 23.4586 3.98663C24.0925 4.64804 24.9577 4.65033 25.5542 3.96682C25.7136 3.78259 26.4831 2.17067 28.5084 2.16856C30.3214 2.16856 31.7982 3.64344 31.8002 5.45635C31.8045 9.68126 28.0461 12.5694 25.8055 13.915C25.4657 14.1191 25.3556 14.56 25.5598 14.8999C25.764 15.2399 26.2048 15.3497 26.5447 15.1457C30.8632 12.5523 33.2396 9.11058 33.2359 5.45481C33.2307 0.833885 27.1578 -1.1331 24.4999 2.96529Z" fill="#EF4932"/>
</g>
<defs>
<clipPath id="clip0">
<rect width="49" height="49" fill="white" transform="translate(0 0.733398)"/>
</clipPath>
</defs>
</svg>
