<svg width="17" height="17" viewBox="0 0 17 17" fill="none" xmlns="http://www.w3.org/2000/svg">
<g clip-path="url(#clip0)">
<path d="M8.05648 16.222V8.55811H15.7203V14.7622C15.7203 15.93 14.7472 16.222 14.2606 16.222H8.05648Z" fill="#EF4932"/>
<path d="M15.7511 8.22363C15.9384 8.22363 16.0856 8.37083 16.0856 8.55816C16.0856 8.7455 15.9384 8.89269 15.7511 8.89269H15.4166V8.22363H15.7511Z" fill="white"/>
<path d="M8.39144 8.22363H15.4167V8.89269H8.39144V8.22363Z" fill="white"/>
<path d="M14.4126 16.5869H8.05648C8.24382 16.5869 8.39101 16.4397 8.39101 16.2524V15.9179H14.4126C14.9679 15.9179 15.4162 15.4696 15.4162 14.9142V8.89264H15.7508C15.9381 8.89264 16.0853 8.74544 16.0853 8.55811V14.9142C16.0853 15.8376 15.3359 16.5869 14.4126 16.5869Z" fill="white"/>
<path d="M16.0853 2.20197V8.55811C16.0853 8.37077 15.9381 8.22357 15.7508 8.22357H15.4162V2.20197C15.4162 1.64664 14.9679 1.19836 14.4126 1.19836H8.39101V0.863831C8.39101 0.676492 8.24382 0.529297 8.05648 0.529297H14.4126C15.3359 0.529297 16.0853 1.27865 16.0853 2.20197Z" fill="white"/>
<path d="M13.4092 4.5437C13.5966 4.5437 13.7438 4.6909 13.7438 4.87824C13.7438 5.06558 13.5966 5.21277 13.4092 5.21277H10.733C10.5456 5.21277 10.3984 5.06558 10.3984 4.87824C10.3984 4.6909 10.5456 4.5437 10.733 4.5437H13.4092Z" fill="white"/>
<path d="M13.4092 11.2344C13.5966 11.2344 13.7438 11.3816 13.7438 11.5689C13.7438 11.7562 13.5966 11.9034 13.4092 11.9034H10.733C10.5456 11.9034 10.3984 11.7562 10.3984 11.5689C10.3984 11.3816 10.5456 11.2344 10.733 11.2344H13.4092Z" fill="white"/>
<path d="M13.4092 13.2416C13.5966 13.2416 13.7438 13.3888 13.7438 13.5761C13.7438 13.7634 13.5966 13.9106 13.4092 13.9106H10.733C10.5456 13.9106 10.3984 13.7634 10.3984 13.5761C10.3984 13.3888 10.5456 13.2416 10.733 13.2416H13.4092Z" fill="white"/>
<path d="M8.39038 15.9178V16.2524C8.39038 16.4397 8.24319 16.5869 8.05585 16.5869C7.86851 16.5869 7.72132 16.4397 7.72132 16.2524V15.9178H8.39038Z" fill="white"/>
<path d="M7.72132 8.89258H8.39038V15.9178H7.72132V8.89258Z" fill="white"/>
<path d="M7.72132 8.22363H8.39038V8.89269H7.72132V8.22363Z" fill="white"/>
<path d="M7.72132 1.19836H8.39038V8.22357H7.72132V1.19836Z" fill="white"/>
<path d="M8.39038 0.863831V1.19836H7.72132V0.863831C7.72132 0.676492 7.86851 0.529297 8.05585 0.529297C8.24319 0.529297 8.39038 0.676492 8.39038 0.863831Z" fill="white"/>
<path d="M0.696098 8.22363H7.72131V8.89269H0.696098V8.22363Z" fill="white"/>
<path d="M5.38044 4.5437C5.56778 4.5437 5.71497 4.6909 5.71497 4.87824C5.71497 5.06558 5.56778 5.21277 5.38044 5.21277H4.37684V4.5437H5.38044Z" fill="white"/>
<path d="M5.27966 13.3419C5.41347 13.4691 5.41347 13.6832 5.27966 13.8103C5.21944 13.8772 5.13246 13.9107 5.04548 13.9107C4.9585 13.9107 4.87153 13.8772 4.81131 13.8103L4.04188 13.0409L4.51023 12.5725L5.27966 13.3419Z" fill="white"/>
<path d="M4.81131 11.3347C4.93843 11.2009 5.15253 11.2009 5.27966 11.3347C5.41347 11.4619 5.41347 11.676 5.27966 11.8031L4.51023 12.5725L4.04188 12.1042L4.81131 11.3347Z" fill="white"/>
<path d="M3.57194 12.5719L4.04031 12.1035L4.50868 12.5719L4.04031 13.0403L3.57194 12.5719Z" fill="white"/>
<path d="M4.37597 5.21277V6.21637C4.37597 6.40371 4.22878 6.5509 4.04144 6.5509C3.8541 6.5509 3.7069 6.40371 3.7069 6.21637V5.21277H4.37597Z" fill="white"/>
<path d="M3.7069 4.5437H4.37597V5.21277H3.7069V4.5437Z" fill="white"/>
<path d="M4.37597 3.54022V4.54382H3.7069V3.54022C3.7069 3.35288 3.8541 3.20569 4.04144 3.20569C4.22878 3.20569 4.37597 3.35288 4.37597 3.54022Z" fill="white"/>
<path d="M4.04154 12.1042L3.57319 12.5725L2.80376 11.8031C2.66995 11.676 2.66995 11.4619 2.80376 11.3347C2.93088 11.2009 3.14499 11.2009 3.27211 11.3347L4.04154 12.1042Z" fill="white"/>
<path d="M3.70798 4.5437V5.21277H2.70438C2.51704 5.21277 2.36984 5.06558 2.36984 4.87824C2.36984 4.6909 2.51704 4.5437 2.70438 4.5437H3.70798Z" fill="white"/>
<path d="M3.56871 14.2378C3.50849 14.3047 3.42151 14.3381 3.33454 14.3381C3.24756 14.3381 3.16058 14.3047 3.10036 14.2378C2.96655 14.1107 2.96655 13.8966 3.10036 13.7694L3.86979 13L4.33814 13.4684L3.56871 14.2378Z" fill="white"/>
<path d="M0.696633 8.22363V8.89269H0.362099C0.17476 8.89269 0.027565 8.7455 0.027565 8.55816C0.027565 8.37083 0.17476 8.22363 0.362099 8.22363H0.696633Z" fill="white"/>
<path d="M0.0275726 2.20197C0.0275726 1.27865 0.776928 0.529297 1.70024 0.529297H8.05638C7.86905 0.529297 7.72185 0.676492 7.72185 0.863831V1.19836H1.70024C1.14492 1.19836 0.69664 1.64664 0.69664 2.20197V8.22357H0.362106C0.174768 8.22357 0.0275726 8.37077 0.0275726 8.55811V2.20197Z" fill="white"/>
<path d="M0.696633 14.9142C0.696633 15.4696 1.14491 15.9179 1.70023 15.9179H7.72184V16.2524C7.72184 16.4397 7.86904 16.5869 8.05638 16.5869H1.70023C0.776921 16.5869 0.027565 15.8376 0.027565 14.9142V8.55811C0.027565 8.74544 0.17476 8.89264 0.362099 8.89264H0.696633V14.9142Z" fill="white"/>
</g>
<defs>
<clipPath id="clip0">
<rect width="16.0576" height="16.0576" fill="white" transform="translate(0.0275726 0.529297)"/>
</clipPath>
</defs>
</svg>
