<svg width="33" height="33" viewBox="0 0 33 33" fill="none" xmlns="http://www.w3.org/2000/svg">
<circle cx="16.5" cy="16.5002" r="16.5" fill="#EF4932"/>
<g clip-path="url(#clip0)">
<path d="M21.2812 14.3752H20.75V12.2502C20.75 9.90637 18.8439 8.00024 16.5 8.00024C14.1561 8.00024 12.25 9.90637 12.25 12.2502V14.3752H11.7187C10.8404 14.3752 10.125 15.09 10.125 15.969V23.4065C10.125 24.2855 10.8404 25.0002 11.7187 25.0002H21.2812C22.1596 25.0002 22.875 24.2855 22.875 23.4065V15.969C22.875 15.09 22.1596 14.3752 21.2812 14.3752ZM13.6667 12.2502C13.6667 10.6877 14.9374 9.41691 16.5 9.41691C18.0626 9.41691 19.3333 10.6877 19.3333 12.2502V14.3752H13.6667V12.2502ZM17.2083 19.845V21.4586C17.2083 21.8496 16.8917 22.1669 16.5 22.1669C16.1083 22.1669 15.7917 21.8496 15.7917 21.4586V19.845C15.3702 19.5992 15.0833 19.1473 15.0833 18.6252C15.0833 17.844 15.7187 17.2086 16.5 17.2086C17.2813 17.2086 17.9167 17.844 17.9167 18.6252C17.9167 19.1473 17.6298 19.5992 17.2083 19.845Z" fill="white"/>
</g>
<defs>
<clipPath id="clip0">
<rect width="17" height="17" fill="white" transform="translate(8 8.00024)"/>
</clipPath>
</defs>
</svg>
