<svg width="50" height="50" viewBox="0 0 50 50" fill="none" xmlns="http://www.w3.org/2000/svg">
<path d="M34.7221 21.5278C34.7221 26.5137 30.6802 30.5556 25.6943 30.5556C16.6665 27.7778 18.0554 21.5278 16.6665 20.8333C16.6665 15.8474 20.7084 12.5 25.6943 12.5C30.6802 12.5 34.7221 16.5419 34.7221 21.5278Z" fill="#EF4932"/>
<path d="M28.3248 43.5566H23.3486C23.0896 43.5566 22.8412 43.6595 22.6581 43.8427C22.475 44.0258 22.3721 44.2742 22.3721 44.5332C22.3721 44.7922 22.475 45.0406 22.6581 45.2237C22.8412 45.4069 23.0896 45.5098 23.3486 45.5098H28.3248C28.5838 45.5098 28.8322 45.4069 29.0154 45.2237C29.1985 45.0406 29.3014 44.7922 29.3014 44.5332C29.3014 44.2742 29.1985 44.0258 29.0154 43.8427C28.8322 43.6595 28.5838 43.5566 28.3248 43.5566Z" fill="#2E3758"/>
<path d="M45.3126 16.2109C43.3436 16.2109 41.6415 16.762 40.3907 17.8044C40.2754 17.9006 40.1576 18.0071 40.0392 18.1234V3.125C40.0372 2.4522 39.7691 1.80752 39.2933 1.33177C38.8176 0.856032 38.1729 0.587896 37.5001 0.585938H14.0626C13.3898 0.587896 12.7451 0.856032 12.2694 1.33177C11.7936 1.80752 11.5255 2.4522 11.5235 3.125V5.72266L11.4026 5.60166C10.6333 4.83243 9.59002 4.40028 8.50216 4.40028C7.4143 4.40028 6.371 4.83243 5.60177 5.60166C4.83254 6.37089 4.40039 7.41419 4.40039 8.50205C4.40039 9.58991 4.83254 10.6332 5.60177 11.4024L9.82775 15.6284C9.14376 15.8279 8.5235 16.202 8.02801 16.714C7.53253 17.226 7.17889 17.8582 7.00192 18.5483C6.82494 19.2385 6.83072 19.9628 7.01869 20.6501C7.20666 21.3373 7.57034 21.9638 8.07394 22.4678L10.4778 24.8717C9.71459 24.9646 8.99281 25.2701 8.3949 25.7536C7.79699 26.237 7.34703 26.8788 7.09637 27.6056C6.84571 28.3325 6.80445 29.1152 6.97731 29.8644C7.15016 30.6137 7.53016 31.2992 8.07394 31.8428L9.6964 33.4655C8.93314 33.5584 8.21137 33.864 7.61345 34.3474C7.01554 34.8308 6.56558 35.4726 6.31492 36.1995C6.06426 36.9264 6.02301 37.7091 6.19586 38.4583C6.36872 39.2075 6.74872 39.893 7.29249 40.4366L11.5235 44.668V46.875C11.5243 47.5482 11.792 48.1936 12.2681 48.6696C12.7441 49.1456 13.3894 49.4133 14.0626 49.4141H32.8126C33.0716 49.4141 33.32 49.3112 33.5031 49.128C33.6863 48.9449 33.7892 48.6965 33.7892 48.4375V39.0625C33.7911 38.2442 33.9826 37.4374 34.3486 36.7055C34.7145 35.9735 35.2451 35.3363 35.8985 34.8438L39.6485 32.0312C39.7692 31.9397 39.8673 31.8217 39.935 31.6862C40.0027 31.5507 40.0384 31.4015 40.0392 31.25V23.4375C40.0392 19.5481 42.4132 18.4634 44.336 18.2227V48.4375C44.336 48.6965 44.4389 48.9449 44.6221 49.128C44.8052 49.3112 45.0536 49.4141 45.3126 49.4141C45.5716 49.4141 45.82 49.3112 46.0031 49.128C46.1863 48.9449 46.2892 48.6965 46.2892 48.4375V17.1875C46.2892 16.9285 46.1863 16.6801 46.0031 16.497C45.82 16.3138 45.5716 16.2109 45.3126 16.2109ZM14.0626 2.53906H37.5001C37.6555 2.53922 37.8044 2.601 37.9143 2.71085C38.0241 2.8207 38.0859 2.96965 38.086 3.125V6.05039H13.4767V3.125C13.4768 2.96965 13.5386 2.8207 13.6485 2.71085C13.7583 2.601 13.9073 2.53922 14.0626 2.53906ZM6.35314 8.50195C6.33361 6.61016 8.69796 5.63232 10.0215 6.98252L11.5235 8.48467V14.5623L6.98253 10.0213C6.78237 9.82224 6.62367 9.58547 6.51564 9.32467C6.4076 9.06388 6.35237 8.78424 6.35314 8.50195ZM9.4548 18.0484C10.2546 17.2149 11.6935 17.2149 12.4932 18.0484L16.9126 22.4679C18.8533 24.5521 15.9505 27.4477 13.8742 25.5062L9.4548 21.0868C9.05252 20.6836 8.82661 20.1372 8.82661 19.5676C8.82661 18.998 9.05252 18.4517 9.4548 18.0484ZM18.2937 21.0868L17.2322 20.0253C17.4342 18.0837 18.306 16.2731 19.6978 14.9043C21.0896 13.5356 22.9145 12.6942 24.8592 12.5247C26.8039 12.3551 28.7469 12.868 30.3546 13.9753C31.9622 15.0826 33.1342 16.7151 33.6691 18.5924C34.204 20.4697 34.0685 22.4748 33.2859 24.2631C32.5033 26.0514 31.1224 27.5114 29.3804 28.3923C27.6384 29.2732 25.644 29.52 23.7398 29.0904C21.8356 28.6608 20.1404 27.5815 18.9454 26.038C19.3957 25.2557 19.5759 24.3469 19.4581 23.452C19.3403 22.5571 18.9311 21.7259 18.2937 21.0868ZM9.4548 27.4234C10.2546 26.5899 11.6935 26.5899 12.4932 27.4234L16.9126 31.8429C18.8533 33.9272 15.9505 36.8227 13.8742 34.8812L9.4548 30.4618C9.05252 30.0586 8.82661 29.5122 8.82661 28.9426C8.82661 28.373 9.05252 27.8267 9.4548 27.4234ZM8.67355 36.0172C9.47335 35.1837 10.9122 35.1837 11.7119 36.0172L16.1314 40.4366C18.0721 42.5209 15.1693 45.4164 13.093 43.475L8.67355 39.0556C8.27127 38.6523 8.04536 38.106 8.04536 37.5364C8.04536 36.9668 8.27127 36.4204 8.67355 36.0172ZM13.4767 46.875V45.8984C13.8459 46.0043 14.2281 46.058 14.6121 46.0579C15.1802 46.0581 15.7422 45.9402 16.2623 45.7116C16.7824 45.4831 17.2493 45.1489 17.6333 44.7302C18.0174 44.3116 18.3102 43.8177 18.4931 43.2798C18.6761 42.742 18.7452 42.1719 18.6961 41.606H31.836V47.4609H14.0626C13.9073 47.4608 13.7583 47.399 13.6485 47.2891C13.5386 47.1793 13.4768 47.0304 13.4767 46.875ZM34.7267 33.2812C33.8311 33.9562 33.1041 34.8295 32.6026 35.8325C32.1011 36.8355 31.8387 37.9411 31.836 39.0625V39.6523H18.0051C17.8601 39.4383 17.6951 39.2385 17.5124 39.0556L15.8898 37.4329C16.653 37.34 17.3748 37.0344 17.9727 36.551C18.5706 36.0676 19.0206 35.4258 19.2712 34.6989C19.5219 33.9721 19.5632 33.1894 19.3903 32.4401C19.2174 31.6909 18.8374 31.0054 18.2937 30.4618L15.8898 28.0579C16.4906 27.9864 17.0678 27.7815 17.5792 27.458C19.0552 29.2574 21.0946 30.5067 23.368 31.0041C25.6415 31.5016 28.0163 31.2182 30.1089 30.1997C32.2014 29.1812 33.8896 27.4871 34.9007 25.391C35.9118 23.2948 36.1868 20.919 35.6813 18.6473C35.1758 16.3757 33.9193 14.3407 32.1147 12.8711C30.3102 11.4015 28.0629 10.5831 25.7359 10.548C23.4089 10.513 21.1381 11.2633 19.2901 12.6779C17.4421 14.0925 16.1249 16.0887 15.5512 18.3441C15.5512 18.3441 13.6151 16.4258 13.4767 16.3184V8.00352H38.086V30.7617L34.7267 33.2812Z" fill="#2E3758"/>
<path d="M24.7071 21.875H26.3672C26.7341 21.8879 27.0817 22.0428 27.3367 22.3069C27.5917 22.5711 27.7342 22.9239 27.7342 23.291C27.7342 23.6582 27.5917 24.011 27.3367 24.2751C27.0817 24.5393 26.7341 24.6941 26.3672 24.707H23.9054C23.5643 24.7148 23.3195 24.3836 23.3695 24.0579C23.3741 23.7989 23.2757 23.5487 23.0958 23.3623C22.9159 23.1758 22.6694 23.0685 22.4104 23.0639C22.1514 23.0592 21.9011 23.1577 21.7147 23.3375C21.5283 23.5174 21.421 23.7639 21.4163 24.0229L21.4145 24.1241C21.4085 24.455 21.4685 24.7838 21.591 25.0912C21.7135 25.3986 21.8961 25.6785 22.128 25.9146C22.3599 26.1507 22.6365 26.3383 22.9417 26.4663C23.2468 26.5943 23.5745 26.6602 23.9054 26.6602H24.6094V27.2461C24.6094 27.5051 24.7123 27.7535 24.8954 27.9366C25.0786 28.1198 25.327 28.2227 25.586 28.2227C25.845 28.2227 26.0934 28.1198 26.2765 27.9366C26.4596 27.7535 26.5625 27.5051 26.5625 27.2461V26.654C27.4287 26.5909 28.2371 26.1959 28.8191 25.5514C29.4012 24.9069 29.712 24.0626 29.6869 23.1945C29.6617 22.3264 29.3024 21.5015 28.6839 20.8918C28.0655 20.2821 27.2356 19.9347 26.3672 19.9219H24.7071C24.3445 19.9219 23.9967 19.7778 23.7403 19.5214C23.4839 19.265 23.3399 18.9173 23.3399 18.5547C23.3399 18.1921 23.4839 17.8443 23.7403 17.5879C23.9967 17.3315 24.3445 17.1875 24.7071 17.1875H27.13C27.474 17.2162 27.653 17.4032 27.6671 17.7484C27.6616 17.8766 27.6814 18.0045 27.7253 18.125C27.7693 18.2455 27.8365 18.3561 27.9232 18.4506C28.0983 18.6415 28.342 18.755 28.6008 18.7661C28.8596 18.7772 29.1122 18.6851 29.303 18.51C29.4939 18.3349 29.6073 18.0912 29.6185 17.8324C29.6329 17.4966 29.5793 17.1614 29.4607 16.8468C29.3422 16.5323 29.1612 16.2451 28.9287 16.0023C28.6962 15.7596 28.417 15.5664 28.1079 15.4344C27.7988 15.3025 27.4661 15.2344 27.13 15.2344H26.5625V14.6484C26.5625 14.3894 26.4596 14.141 26.2765 13.9579C26.0934 13.7748 25.845 13.6719 25.586 13.6719C25.327 13.6719 25.0786 13.7748 24.8954 13.9579C24.7123 14.141 24.6094 14.3894 24.6094 14.6484V15.2368C23.7379 15.2627 22.9116 15.6304 22.309 16.2604C21.7063 16.8904 21.3757 17.7323 21.3885 18.604C21.4014 19.4758 21.7566 20.3075 22.3775 20.9195C22.9984 21.5315 23.8352 21.8748 24.7071 21.875Z" fill="#2E3758"/>
</svg>
