<svg width="20" height="20" viewBox="0 0 20 20" fill="none" xmlns="http://www.w3.org/2000/svg">
<g clip-path="url(#clip0)">
<path d="M20 10.0001C19.9961 6.50387 17.1629 3.67062 13.6667 3.66675L6.33333 3.66675C2.83554 3.66675 -1.23945e-07 6.50229 -2.76839e-07 10.0001C-4.29732e-07 13.4979 2.83554 16.3334 6.33333 16.3334L13.6667 16.3334C17.1629 16.3295 19.9961 13.4963 20 10.0001ZM16.6667 10.6667L14.6667 10.6667C14.2985 10.6667 14 10.3683 14 10.0001C14 9.63187 14.2985 9.33341 14.6667 9.33341L16.6667 9.33341C17.0349 9.33341 17.3333 9.63187 17.3333 10.0001C17.3333 10.3683 17.0349 10.6667 16.6667 10.6667ZM13.6667 4.33341C16.6636 4.33837 19.1389 6.67508 19.3163 9.66675L17.9527 9.66675C17.8011 9.07987 17.2728 8.66904 16.6667 8.66675L14.6667 8.66675C14.0605 8.66904 13.5322 9.07987 13.3807 9.66675L12 9.66675L12 4.33341L13.6667 4.33341ZM6.33333 15.6667C3.20517 15.6632 0.670166 13.1282 0.666666 10.0001C0.670166 6.87191 3.20517 4.33691 6.33333 4.33341L11.3333 4.33341L11.3333 15.6667L6.33333 15.6667ZM12 15.6667L12 10.3334L13.3807 10.3334C13.5322 10.9203 14.0605 11.3311 14.6667 11.3334L16.6667 11.3334C17.2728 11.3311 17.8011 10.9203 17.9527 10.3334L19.3163 10.3334C19.1389 13.3251 16.6636 15.6618 13.6667 15.6667L12 15.6667Z" fill="white"/>
</g>
<defs>
<clipPath id="clip0">
<rect width="20" height="20" fill="white" transform="translate(20) rotate(90)"/>
</clipPath>
</defs>
</svg>
