<svg width="35" height="35" viewBox="0 0 35 35" fill="none" xmlns="http://www.w3.org/2000/svg">
<circle cx="17.5" cy="17.5" r="17.5" fill="white"/>
<g clip-path="url(#clip0)">
<path d="M12.5 14.9375C12.5 13.4097 13.8319 12.1667 15.4688 12.1667H21.1769C20.9713 11.4952 20.3156 11 19.5313 11H12.3438C11.3956 11 10.625 11.7193 10.625 12.6042V21.6458C10.625 22.5307 11.3956 23.25 12.3438 23.25H12.5V14.9375Z" fill="#EF4932"/>
<path d="M22.6563 13.3333H15.4688C14.5206 13.3333 13.75 14.0525 13.75 14.9374V23.3958C13.75 24.2807 14.5206 24.9999 15.4688 24.9999H22.6563C23.6044 24.9999 24.375 24.2807 24.375 23.3958V14.9374C24.375 14.0525 23.6044 13.3333 22.6563 13.3333ZM21.4063 23.2499H16.7188C16.46 23.2499 16.25 23.0539 16.25 22.8124C16.25 22.5709 16.46 22.3749 16.7188 22.3749H21.4063C21.665 22.3749 21.875 22.5709 21.875 22.8124C21.875 23.0539 21.665 23.2499 21.4063 23.2499ZM21.4063 20.9166H16.7188C16.46 20.9166 16.25 20.7206 16.25 20.4791C16.25 20.2376 16.46 20.0416 16.7188 20.0416H21.4063C21.665 20.0416 21.875 20.2376 21.875 20.4791C21.875 20.7206 21.665 20.9166 21.4063 20.9166ZM21.4063 18.8749H16.7188C16.46 18.8749 16.25 18.6789 16.25 18.4374C16.25 18.1959 16.46 17.9999 16.7188 17.9999H21.4063C21.665 17.9999 21.875 18.1959 21.875 18.4374C21.875 18.6789 21.665 18.8749 21.4063 18.8749ZM21.4063 16.5416H16.7188C16.46 16.5416 16.25 16.3456 16.25 16.1041C16.25 15.8626 16.46 15.6666 16.7188 15.6666H21.4063C21.665 15.6666 21.875 15.8626 21.875 16.1041C21.875 16.3456 21.665 16.5416 21.4063 16.5416Z" fill="#EF4932"/>
</g>
<defs>
<clipPath id="clip0">
<rect width="15" height="14" fill="white" transform="translate(10 11)"/>
</clipPath>
</defs>
</svg>
