<svg width="18" height="18" viewBox="0 0 18 18" fill="none" xmlns="http://www.w3.org/2000/svg">
<path d="M14.8537 9.51392C14.709 9.51392 14.5917 9.6312 14.5917 9.77586C14.5917 9.95927 14.4425 10.1085 14.2591 10.1085C14.0757 10.1085 13.9265 9.95927 13.9265 9.77586C13.9265 9.63116 13.8092 9.51392 13.6645 9.51392C13.5199 9.51392 13.4026 9.6312 13.4026 9.77586C13.4026 10.2482 13.7868 10.6324 14.2591 10.6324C14.7314 10.6324 15.1156 10.2481 15.1156 9.77586C15.1156 9.63113 14.9983 9.51392 14.8537 9.51392Z" fill="#EF4932"/>
<path d="M17.3125 9.55639L16.5752 9.32021C16.4808 9.28994 16.4063 9.21456 16.3761 9.11855C16.2207 8.6245 15.9862 8.16068 15.6792 7.73993C15.5392 7.54816 15.3836 7.36503 15.2136 7.19069C15.3223 6.71351 15.3815 6.17348 15.3738 5.70692C15.3628 5.03948 15.2294 4.64801 14.9661 4.51006C14.8242 4.43567 14.3925 4.20968 12.0557 5.27935C12.0004 5.30466 11.9487 5.33584 11.9009 5.37156C11.7433 5.32923 11.5823 5.29007 11.4203 5.25491C11.4008 5.25066 11.3807 5.2469 11.3611 5.24275C11.5504 4.8291 11.661 4.37984 11.6818 3.91606C11.6882 3.7715 11.5763 3.64908 11.4318 3.64265C11.2876 3.63548 11.1648 3.74805 11.1583 3.89261C11.1242 4.65518 10.8079 5.37269 10.2677 5.91293C9.94489 6.2357 9.56697 6.47016 9.16418 6.61782C8.46566 6.5198 7.75417 6.5198 7.05565 6.61782C6.65283 6.47016 6.27493 6.2357 5.95216 5.91293C5.37581 5.33658 5.05839 4.57028 5.05839 3.75518C5.05839 2.94005 5.37581 2.17379 5.95216 1.59743C6.52852 1.02105 7.29485 0.703621 8.10991 0.703621C8.92498 0.703621 9.69131 1.02105 10.2677 1.59743C10.4993 1.82904 10.6907 2.09335 10.8365 2.38293C10.9016 2.51216 11.0591 2.5642 11.1883 2.49909C11.3176 2.43405 11.3696 2.27651 11.3045 2.14731C11.1335 1.80774 10.9093 1.49812 10.6382 1.22692C9.96286 0.551605 9.06497 0.179688 8.10995 0.179688C7.15493 0.179688 6.25704 0.551605 5.58172 1.22692C4.90641 1.90227 4.53449 2.80013 4.53449 3.75515C4.53449 4.71017 4.90641 5.60806 5.58172 6.28337C5.77652 6.47818 5.98845 6.6457 6.2126 6.78604C6.21267 6.78604 6.21274 6.786 6.21281 6.786C6.04993 6.82833 5.88829 6.87586 5.72843 6.9293C5.59121 6.97518 5.51718 7.12357 5.56306 7.26082C5.6089 7.39804 5.75736 7.47208 5.89454 7.42623C7.32315 6.94864 8.89675 6.94864 10.3254 7.42623C10.3529 7.43544 10.3809 7.4398 10.4084 7.4398C10.518 7.4398 10.6202 7.37048 10.6568 7.26082C10.7027 7.12361 10.6287 6.97518 10.4915 6.9293C10.3316 6.87586 10.17 6.8283 10.0071 6.786C10.0072 6.786 10.0072 6.78604 10.0073 6.78604C10.2315 6.6457 10.4434 6.47818 10.6382 6.28337C10.8105 6.11104 10.9626 5.92285 11.0947 5.72284C11.1669 5.73687 11.2386 5.75157 11.3092 5.76689C11.4033 5.78732 11.497 5.80926 11.5898 5.83228C11.5869 5.84368 11.5839 5.85503 11.5815 5.8666C11.4537 6.47287 11.462 7.00907 11.6061 7.46023C11.7356 7.86576 11.9694 8.19429 12.3008 8.43677C12.6914 8.72252 13.163 8.84595 13.5902 8.84595C13.9117 8.84595 14.2081 8.77599 14.4258 8.65269C14.672 8.51323 14.8783 8.21936 15.0416 7.77815C15.1171 7.86625 15.1886 7.9565 15.2561 8.04889C15.5295 8.42344 15.7382 8.83625 15.8764 9.27577C15.9576 9.53392 16.1591 9.73705 16.4154 9.81921L17.1527 10.0554C17.3462 10.1174 17.4762 10.2954 17.4762 10.4986V11.7211C17.4762 11.9243 17.3462 12.1023 17.1527 12.1643L15.9648 12.5448C15.7748 12.6057 15.6139 12.7363 15.512 12.9126C15.0453 13.7192 14.3115 14.3866 13.331 14.8964C13.2177 14.9554 13.1392 15.0608 13.1156 15.1857L12.7351 17.2003C12.7246 17.2558 12.676 17.2961 12.6195 17.2961H11.3825C11.326 17.2961 11.2774 17.2558 11.2668 17.2003L11.0561 16.0869C11.0146 15.8679 10.8092 15.7224 10.588 15.7559C10.0552 15.8365 9.50611 15.8773 8.95616 15.8773C8.54701 15.8773 8.1431 15.8545 7.75557 15.8094C7.5413 15.7848 7.34168 15.9308 7.30164 16.1424L7.10139 17.2003C7.09087 17.2558 7.04225 17.2961 6.98576 17.2961H5.74871C5.69222 17.2961 5.6436 17.2558 5.63295 17.1995L5.26662 15.2967C5.24303 15.1741 5.16604 15.0699 5.05526 15.0107C3.38379 14.1184 2.50031 12.6277 2.50031 10.6997C2.50031 9.72559 2.71343 8.86423 3.13372 8.13945C3.52593 7.46308 4.09876 6.90385 4.8363 6.47723C4.96153 6.40477 5.00432 6.24453 4.93189 6.11927C4.85947 5.99404 4.69923 5.95132 4.57397 6.02368C3.14385 6.85097 2.28129 8.12729 2.04381 9.74834V9.74831C2.0186 9.74602 1.99336 9.74384 1.96822 9.74124C1.97279 9.56634 1.94115 9.38985 1.87225 9.21857C1.72027 8.84078 1.40808 8.56811 1.07687 8.52392C0.815871 8.48897 0.567492 8.59978 0.395121 8.82753C0.145195 9.15779 0.185941 9.41914 0.264094 9.58022C0.396035 9.85209 0.735188 10.0444 1.298 10.1653C1.28254 10.1885 1.26552 10.2117 1.24689 10.2351C0.914344 10.6522 0.522563 10.7444 0.268172 10.7531C0.11925 10.7581 0 10.8777 0 11.0267V11.028C0 11.1749 0.11598 11.2948 0.262828 11.3015C0.281637 11.3024 0.301289 11.3029 0.32175 11.3029C0.643641 11.3029 1.16026 11.1842 1.6566 10.5618C1.73496 10.4636 1.7988 10.3599 1.84788 10.2528C1.89731 10.2584 1.94481 10.2632 1.9903 10.2674C1.9903 10.2673 1.9903 10.2672 1.99034 10.2671C1.98141 10.4091 1.97645 10.5531 1.97645 10.6997C1.97645 11.7905 2.2365 12.7631 2.74932 13.5906C3.22218 14.3535 3.89918 14.9781 4.7622 15.4479L5.11833 17.2977C5.1756 17.6003 5.44071 17.82 5.74871 17.82H6.98576C7.29376 17.82 7.55887 17.6003 7.61614 17.2977L7.7972 16.3412C8.17323 16.381 8.56255 16.4012 8.95613 16.4012C9.49613 16.4012 10.0355 16.3636 10.5611 16.2893L10.752 17.2978C10.8093 17.6004 11.0744 17.82 11.3824 17.82H12.6194C12.9274 17.82 13.1926 17.6003 13.2499 17.2976L13.6203 15.3362C14.6668 14.7828 15.4557 14.0559 15.9654 13.175C16.0021 13.1115 16.0587 13.0649 16.1246 13.0438L17.3125 12.6633C17.7237 12.5315 18 12.1529 18 11.7211V10.4985C18 10.0667 17.7237 9.68812 17.3125 9.55639ZM14.8106 6.44305C14.7097 7.3053 14.4393 8.04287 14.1675 8.19679C13.8586 8.37176 13.1455 8.40555 12.6101 8.01387C12.074 7.62174 11.8956 6.91657 12.094 5.9746C12.094 5.97456 12.094 5.97456 12.094 5.97456C12.114 5.87996 12.1812 5.79811 12.2738 5.75571C13.5853 5.15539 14.3414 4.95904 14.6223 4.95904C14.6647 4.95904 14.6963 4.9635 14.7173 4.97173C14.8017 5.06166 14.9123 5.57287 14.8106 6.44305ZM0.735504 9.35146C0.708398 9.29556 0.772383 9.1973 0.812953 9.14365C0.877254 9.05871 0.936492 9.04135 0.981246 9.04135C0.990703 9.04135 0.999527 9.04212 1.00761 9.04321C1.12806 9.05928 1.29681 9.19182 1.38621 9.41404C1.40727 9.46635 1.43462 9.55301 1.44102 9.66108C1.07838 9.58595 0.796641 9.47764 0.735504 9.35146Z" fill="#EF4932"/>
<path d="M8.36438 3.45527V2.51787C8.68765 2.54096 8.80774 2.68872 8.91855 2.68872C9.0571 2.68872 9.12175 2.51326 9.12175 2.42551C9.12175 2.19921 8.6784 2.10225 8.36438 2.093V1.96827C8.36438 1.91286 8.29509 1.86206 8.22583 1.86206C8.14729 1.86206 8.09189 1.91286 8.09189 1.96827V2.10218C7.65317 2.14837 7.21446 2.37928 7.21446 2.96115C7.21446 3.55227 7.67627 3.71852 8.09189 3.86628V4.95152C7.62083 4.91457 7.49616 4.59131 7.34376 4.59131C7.22831 4.59131 7.13135 4.74371 7.13135 4.85456C7.13135 5.08083 7.51926 5.39024 8.09189 5.39948V5.54264C8.09189 5.59804 8.14733 5.64885 8.22583 5.64885C8.29513 5.64885 8.36438 5.59804 8.36438 5.54264V5.38563C8.86315 5.31634 9.20486 5.00232 9.20486 4.4343C9.20486 3.80627 8.76615 3.60303 8.36438 3.45527ZM8.11959 3.36756C7.87483 3.2752 7.67627 3.17824 7.67627 2.91503C7.67627 2.67487 7.86098 2.55942 8.11959 2.52711V3.36756ZM8.33664 4.94228V3.96788C8.56291 4.06485 8.74302 4.19415 8.74302 4.48507C8.74302 4.74835 8.58601 4.89612 8.33664 4.94228Z" fill="#EF4932"/>
</svg>
