<svg width="215" height="215" viewBox="0 0 215 215" fill="none" xmlns="http://www.w3.org/2000/svg">
<g opacity="0.2">
<circle r="2.5" transform="matrix(-1 0 0 1 212.5 212.5)" fill="white"/>
<circle r="2.5" transform="matrix(-1 0 0 1 182.5 182.5)" fill="white"/>
<circle r="2.5" transform="matrix(-1 0 0 1 182.5 212.5)" fill="white"/>
<circle r="2.5" transform="matrix(-1 0 0 1 152.5 182.5)" fill="white"/>
<circle r="2.5" transform="matrix(-1 0 0 1 152.5 212.5)" fill="white"/>
<circle r="2.5" transform="matrix(-1 0 0 1 122.5 182.5)" fill="white"/>
<circle r="2.5" transform="matrix(-1 0 0 1 122.5 212.5)" fill="white"/>
<circle r="2.5" transform="matrix(-1 0 0 1 32.5 32.5)" fill="white"/>
<circle r="2.5" transform="matrix(-1 0 0 1 2.5 2.5)" fill="white"/>
<circle r="2.5" transform="matrix(-1 0 0 1 2.5 32.5)" fill="white"/>
<circle r="2.5" transform="matrix(-1 0 0 1 32.5 62.5)" fill="white"/>
<circle r="2.5" transform="matrix(-1 0 0 1 32.5 92.5)" fill="white"/>
<circle r="2.5" transform="matrix(-1 0 0 1 2.5 62.5)" fill="white"/>
<circle r="2.5" transform="matrix(-1 0 0 1 2.5 92.5)" fill="white"/>
<circle r="2.5" transform="matrix(-1 0 0 1 92.5 182.5)" fill="white"/>
<circle r="2.5" transform="matrix(-1 0 0 1 92.5 212.5)" fill="white"/>
<circle r="2.5" transform="matrix(-1 0 0 1 62.5 182.5)" fill="white"/>
<circle r="2.5" transform="matrix(-1 0 0 1 62.5 212.5)" fill="white"/>
<circle r="2.5" transform="matrix(-1 0 0 1 32.5 122.5)" fill="white"/>
<circle r="2.5" transform="matrix(-1 0 0 1 32.5 152.5)" fill="white"/>
<circle r="2.5" transform="matrix(-1 0 0 1 2.5 122.5)" fill="white"/>
<circle r="2.5" transform="matrix(-1 0 0 1 2.5 152.5)" fill="white"/>
<circle r="2.5" transform="matrix(-1 0 0 1 32.5 182.5)" fill="white"/>
<circle r="2.5" transform="matrix(-1 0 0 1 32.5 212.5)" fill="white"/>
<circle r="2.5" transform="matrix(-1 0 0 1 2.5 182.5)" fill="white"/>
<circle r="2.5" transform="matrix(-1 0 0 1 2.5 212.5)" fill="white"/>
</g>
</svg>
