<svg width="38" height="38" viewBox="0 0 38 38" fill="none" xmlns="http://www.w3.org/2000/svg">
<path d="M7.86719 13.8047C7.4575 13.8047 7.125 14.1372 7.125 14.5469C7.125 14.9566 7.4575 15.2891 7.86719 15.2891C8.27688 15.2891 8.60938 14.9566 8.60938 14.5469C8.60938 14.1372 8.27688 13.8047 7.86719 13.8047Z" fill="white"/>
<path d="M17 11.5H21.5V16H25.5V20.5H21.5L21 25H16.5V20.5H12.5V16H16.5L17 11.5Z" fill="#EF4932"/>
<path d="M25.6797 15.2891H21.9688V11.5781C21.9688 11.1683 21.6364 10.8359 21.2266 10.8359H16.7735C16.3636 10.8359 16.0313 11.1683 16.0313 11.5781V15.2891H12.3203C11.9105 15.2891 11.5781 15.6214 11.5781 16.0313V20.4844C11.5781 20.8943 11.9105 21.2266 12.3203 21.2266H16.0313V24.9376C16.0313 25.3474 16.3636 25.6798 16.7735 25.6798H21.2266C21.6364 25.6798 21.9688 25.3474 21.9688 24.9376V21.2266H25.6797C26.0896 21.2266 26.4219 20.8943 26.4219 20.4844V16.0313C26.4219 15.6214 26.0896 15.2891 25.6797 15.2891ZM24.9376 19.7422H21.2266C20.8168 19.7422 20.4844 20.0746 20.4844 20.4844V24.1954H17.5156V20.4844C17.5156 20.0746 17.1833 19.7422 16.7735 19.7422H13.0625V16.7735H16.7735C17.1833 16.7735 17.5156 16.4411 17.5156 16.0313V12.3203H20.4844V16.0313C20.4844 16.4411 20.8168 16.7735 21.2266 16.7735H24.9376V19.7422Z" fill="white"/>
<path d="M30.4576 2.28157C29.256 3.06176 27.8605 3.47404 26.422 3.47404C24.222 3.47404 22.1482 2.50601 20.7325 0.818042C20.7324 0.818042 20.7324 0.818042 20.7324 0.818042C20.2964 0.298212 19.6649 0 19.0001 0C18.3352 0 17.7037 0.298212 17.2676 0.817968C15.8519 2.50593 13.7781 3.47397 11.5782 3.47397C10.1396 3.47397 8.7441 3.06161 7.54249 2.28149C6.07496 1.32904 4.15625 2.45042 4.15625 4.17905V19.3176C4.15625 22.685 5.23643 25.975 7.1976 28.5816C12.0493 35.0326 18.4378 37.8241 18.7074 37.9398C18.8009 37.9799 18.9005 38 19.0001 38C19.0996 38 19.1993 37.9799 19.2927 37.9398C19.5623 37.8241 25.9508 35.0327 30.8024 28.5824C32.7638 25.975 33.8439 22.6847 33.8439 19.3176V4.17913C33.8439 2.45034 31.9247 1.32904 30.4576 2.28157ZM29.6162 27.6902C25.5815 33.0543 20.2895 35.8197 18.9996 36.4401C17.7092 35.8212 12.4274 33.0661 8.38384 27.6893C6.61483 25.3383 5.64063 22.3652 5.64063 19.3177V4.17913C5.64063 3.6141 6.26414 3.22155 6.73417 3.52659C8.17707 4.46331 9.85211 4.95843 11.5782 4.95843C14.2181 4.95843 16.7065 3.79705 18.4049 1.77198C18.5605 1.58651 18.7718 1.48438 19.0001 1.48438C19.2284 1.48438 19.4397 1.58651 19.5951 1.77198C21.2937 3.79697 23.782 4.95843 26.422 4.95843C28.148 4.95843 29.823 4.46331 31.2659 3.52659C31.7283 3.22623 32.3595 3.60556 32.3595 4.17913V19.3176C32.3595 22.3649 31.3853 25.3383 29.6162 27.6902Z" fill="white"/>
<path d="M30.5611 5.93909C30.3641 5.8 30.112 5.76526 29.8847 5.84579C28.7681 6.24197 27.603 6.44281 26.422 6.44281C23.8708 6.44281 21.4105 5.50104 19.4942 3.79096C19.2127 3.53973 18.7874 3.53973 18.5059 3.79096C16.5896 5.50104 14.1293 6.44281 11.5781 6.44281C10.3971 6.44281 9.232 6.24197 8.11538 5.84579C7.88797 5.76526 7.636 5.8 7.43902 5.93909C7.24219 6.07817 7.12507 6.30424 7.12507 6.54531V11.5781C7.12507 11.9879 7.45743 12.3203 7.86726 12.3203C8.2771 12.3203 8.60945 11.9879 8.60945 11.5781V7.54852C9.57861 7.80013 10.5733 7.92726 11.5782 7.92726C14.2794 7.92726 16.8904 7.0045 19.0001 5.31616C21.1098 7.0045 23.7208 7.92726 26.422 7.92726C27.427 7.92726 28.4216 7.80013 29.3908 7.54852V19.3177C29.3908 21.7261 28.6283 24.065 27.2433 25.9039C24.4369 29.6368 21.0092 31.9482 19.0071 33.0862C16.9892 31.9333 13.5395 29.6043 10.7566 25.905C9.37198 24.0651 8.60938 21.7256 8.60938 19.3176V17.5155C8.60938 17.1057 8.27703 16.7734 7.86719 16.7734C7.45735 16.7734 7.125 17.1057 7.125 17.5155V19.3176C7.125 22.0456 7.99351 24.702 9.57044 26.7975C12.6914 30.9465 16.5976 33.4586 18.6482 34.5868C18.7596 34.6481 18.8827 34.6787 19.0059 34.6787C19.1284 34.6787 19.251 34.6484 19.3619 34.5878C21.3967 33.4757 25.2805 30.9846 28.4294 26.7963C30.0064 24.7022 30.875 22.0463 30.875 19.3176V6.54523C30.875 6.30417 30.7579 6.07817 30.5611 5.93909Z" fill="white"/>
</svg>
