<svg width="38" height="38" viewBox="0 0 38 38" fill="none" xmlns="http://www.w3.org/2000/svg">
<g clip-path="url(#clip0)">
<path d="M11.5 24.5L9.99998 28.5L12 29L11.5 30.5L19 36.5L26 31L25.5 29L28 28.5L26.5 25C27.8333 25.3333 31.1 26.2 33.5 27C35.9 27.8 36.5 29.3333 36.5 30C36.6666 31 37.1 33.4 37.5 35C37.9 36.6 36.2237 37.3333 35.3355 37.5H2.99998C0.599976 37.5 0.33331 35.8333 0.499976 35C0.83331 33.8333 1.59998 31 1.99998 29C2.39998 27 8.49998 25.1667 11.5 24.5Z" fill="#EF4932"/>
<path d="M17.9036 28.1207C17.6178 27.9109 17.2156 27.9722 17.0056 28.2581L16.9262 28.3661C16.7164 28.6519 16.7775 29.0535 17.063 29.2637C17.1776 29.3483 17.3112 29.3891 17.4435 29.3891C17.6405 29.3891 17.8348 29.2988 17.9607 29.1283L18.0412 29.0188C18.2512 28.7328 18.1896 28.3307 17.9036 28.1207Z" fill="white"/>
<path d="M18.0713 34.2327L16.419 31.2282L17.9617 29.1271C18.1718 28.8411 18.1101 28.439 17.8241 28.229C17.5381 28.0188 17.136 28.0805 16.9261 28.3666L15.1405 30.7984C14.9924 31 14.9749 31.2691 15.0954 31.4883L16.9455 34.852V34.8519C17.0625 35.0645 17.2823 35.1848 17.509 35.1848C17.6138 35.1848 17.7199 35.1591 17.8181 35.1052C18.1289 34.9343 18.2423 34.5436 18.0713 34.2327Z" fill="white"/>
<path d="M22.8598 30.7986L21.0815 28.3767C20.934 28.1759 20.6841 28.0783 20.4396 28.1267C20.1952 28.1748 20.0007 28.3599 19.9403 28.6014C19.8939 28.787 19.9326 28.9834 20.0457 29.1375L21.5809 31.2284L19.9398 34.2126C19.8877 34.3073 19.8604 34.4142 19.8604 34.5225C19.8604 34.8157 20.059 35.0718 20.343 35.1447C20.3962 35.1585 20.4499 35.1651 20.5029 35.1651C20.7329 35.1651 20.9508 35.041 21.0658 34.8322L22.9048 31.4886C23.0254 31.2693 23.0077 31.0002 22.8598 30.7986Z" fill="white"/>
<path d="M23.8778 20.7019C23.6665 20.5909 23.411 20.6061 23.2144 20.7416C22.8323 21.0049 22.4776 21.2838 22.1604 21.5705C20.4314 23.1335 18.7887 22.922 18.7244 22.9128C18.6856 22.9067 18.6462 22.9039 18.6073 22.9052C17.9239 22.9227 16.6919 22.2983 15.3885 21.2746C15.1892 21.1181 14.9848 20.9689 14.7807 20.8312C14.5839 20.6982 14.3295 20.6847 14.1198 20.7963C13.91 20.9078 13.7788 21.126 13.7788 21.3636V23.5676C13.7788 23.7625 13.8675 23.9468 14.0195 24.0688C14.0375 24.0832 14.0562 24.0966 14.0755 24.1089L18.6311 27.1531C18.6318 27.1535 18.6325 27.1541 18.6332 27.1547L18.6453 27.1627C18.7525 27.2336 18.8761 27.2695 19.0001 27.2695C19.1045 27.2695 19.2088 27.2442 19.3042 27.1932C19.3243 27.1824 19.3436 27.1706 19.3621 27.158C19.3643 27.1566 19.3665 27.1552 19.3687 27.1537C19.3712 27.1521 19.3737 27.1503 19.3762 27.1486L23.9211 24.1117C23.9394 24.1001 23.9572 24.0876 23.9743 24.0743C24.1303 23.9525 24.2214 23.7657 24.2214 23.5679V21.2707C24.2214 21.0319 24.0892 20.813 23.8778 20.7019ZM22.9364 23.224L19 25.8543L15.0638 23.2239V22.6396C16.0222 23.3362 17.4322 24.1905 18.5814 24.1904C18.5838 24.1904 18.5865 24.1904 18.5889 24.1904C18.9748 24.2331 20.9426 24.3491 22.9365 22.5999V23.224H22.9364Z" fill="white"/>
<path d="M19.6339 26.5217C19.5915 26.2669 19.4005 26.0623 19.1492 26.0023C18.8977 25.9427 18.6352 26.0388 18.4823 26.2471L17.0055 28.2585C16.7955 28.5445 16.8571 28.9466 17.1432 29.1566C17.2577 29.2408 17.3909 29.2813 17.5229 29.2813C17.7205 29.2813 17.9154 29.1904 18.0414 29.0188L19.5104 27.018C19.594 26.9088 19.6427 26.7728 19.6427 26.6275C19.6426 26.5922 19.6396 26.5566 19.6339 26.5217Z" fill="white"/>
<path d="M28.7881 5.80922C28.7753 5.70858 28.4744 3.53649 26.4298 2.67963C26.4892 2.29815 26.4829 1.80786 26.2408 1.33085C25.9152 0.689751 25.2729 0.271973 24.3314 0.0889492C24.291 0.081082 24.2501 0.0771484 24.2089 0.0771484H15.5856C12.0841 0.0771484 9.23535 2.92582 9.23535 6.42746V9.81118C9.23535 10.6927 9.53586 11.5524 10.0814 12.2317C10.3518 12.5685 10.6849 13.1567 10.7352 14.046C10.7548 14.3932 11.0454 14.6615 11.3948 14.6518C11.7424 14.642 12.0191 14.3573 12.0191 14.0096V9.59802C12.4553 7.79383 13.9442 7.4427 14.2002 7.39528H16.9895C17.3176 7.39528 17.6403 7.34518 17.9487 7.24632C18.479 7.07621 19.3204 6.76316 19.933 6.53048C20.3429 6.37469 20.7967 6.36898 21.2106 6.51445L24.1967 7.56272C25.6895 8.11342 25.956 9.42398 25.989 9.62986V14.9244C25.989 15.2607 26.2483 15.5397 26.5836 15.5647C26.5999 15.5659 26.6159 15.5666 26.632 15.5666C26.9471 15.5665 27.2192 15.3356 27.2669 15.0192C27.2694 15.0026 27.5259 13.3456 28.3532 12.0188C28.641 11.557 28.7932 11.0304 28.7932 10.496V5.89034C28.7932 5.86325 28.7915 5.83616 28.7881 5.80922ZM27.5082 10.4957C27.5082 10.7827 27.4272 11.0674 27.2739 11.3206V9.58592C27.2739 9.56269 27.2726 9.53961 27.2701 9.51653C27.26 9.42324 26.9945 7.22146 24.6355 6.35488C24.6326 6.35384 24.6297 6.3528 24.6268 6.35176L21.6361 5.30186C21.299 5.18348 20.9462 5.1244 20.5937 5.1244C20.2146 5.1244 19.8357 5.19276 19.4767 5.32932C18.619 5.65514 17.9548 5.89494 17.5562 6.02275C17.3749 6.08086 17.1842 6.1104 16.9894 6.1104H14.1483C14.1207 6.1104 14.0931 6.11218 14.0657 6.11567C13.957 6.12977 11.3945 6.49419 10.7496 9.38464C10.7393 9.43058 10.7341 9.47749 10.7341 9.52454V10.8468C10.5942 10.5235 10.5202 10.1704 10.5202 9.81125V6.42761C10.5202 3.63461 12.7925 1.36225 15.5854 1.36225H24.144C24.4983 1.43773 24.9289 1.59262 25.0923 1.90776C25.2923 2.29347 25.0645 2.82458 25.0642 2.82503C24.9821 2.99981 24.983 3.20221 25.0665 3.37625C25.1501 3.5503 25.3076 3.67751 25.4954 3.72271C27.131 4.11644 27.4646 5.6852 27.5081 5.93896V10.4957H27.5082Z" fill="white"/>
<path d="M27.2702 9.51659C27.2601 9.4233 26.9946 7.22152 24.6356 6.35494C24.6327 6.3539 24.6298 6.35287 24.6269 6.35183L21.6362 5.30193C20.9363 5.05626 20.1695 5.06606 19.4767 5.32924C18.619 5.65506 17.9548 5.89486 17.5562 6.02274C17.3749 6.08085 17.1842 6.11032 16.9894 6.11032H14.1483C14.1207 6.11032 14.0931 6.1121 14.0657 6.11559C13.957 6.12969 11.3945 6.4941 10.7496 9.38456C10.7393 9.4305 10.7341 9.47741 10.7341 9.52446V15.0475C10.7341 15.0523 10.7342 15.057 10.7343 15.0618C10.7385 15.2536 10.8743 19.7845 14.0048 21.8566L14.021 21.868C14.0344 21.8775 14.0479 21.887 14.0619 21.8965C14.2404 22.017 14.4196 22.1478 14.5949 22.2854C15.5069 23.0016 17.2256 24.1906 18.5814 24.1906C18.584 24.1906 18.5863 24.1906 18.5889 24.1906C18.6626 24.1987 18.794 24.2096 18.9723 24.2096C19.7407 24.2096 21.38 24.0082 23.022 22.5238C23.2976 22.2748 23.6075 22.0312 23.9434 21.7998L23.9914 21.7662C24.0071 21.7551 24.0227 21.744 24.0389 21.7332C25.0832 21.0318 26.8917 19.222 27.2714 14.9816C27.2731 14.9626 27.274 14.9434 27.274 14.9243V9.58599C27.274 9.56283 27.2726 9.53975 27.2702 9.51659ZM25.9889 14.8952C25.6388 18.7221 24.0083 20.2057 23.3224 20.6663C23.2981 20.6828 23.274 20.6997 23.25 20.7166L23.2143 20.7417C22.8322 21.0049 22.4776 21.2839 22.1604 21.5706C20.4378 23.1278 18.8005 22.9236 18.7202 22.9123C18.6828 22.9067 18.645 22.9043 18.6072 22.9054C17.9239 22.9229 16.6918 22.2985 15.3885 21.2749C15.1891 21.1183 14.9847 20.9691 14.7809 20.8316L14.7651 20.8204C14.7497 20.8094 14.7343 20.7985 14.7162 20.7865C12.1899 19.1144 12.0246 15.2015 12.0191 15.0383V9.59801C12.4569 7.78722 13.955 7.4401 14.1992 7.39527H16.9895C17.3176 7.39527 17.6403 7.34517 17.9487 7.24631C18.479 7.0762 19.3205 6.76315 19.933 6.53047C20.3429 6.37469 20.7967 6.36897 21.2106 6.51444L24.1967 7.56271C25.6895 8.11341 25.956 9.42397 25.989 9.62985V14.8952H25.9889Z" fill="white"/>
<path d="M19.5746 26.3402C19.4745 26.14 19.2773 26.0063 19.0543 25.9873C18.8316 25.9689 18.6145 26.0668 18.482 26.2473L16.943 28.3434C16.7332 28.6293 16.7945 29.0311 17.0802 29.2412C17.1947 29.3255 17.3281 29.3663 17.4603 29.3663C17.6574 29.3663 17.852 29.2758 17.978 29.1049L19.5171 27.0165C19.5985 26.9061 19.6424 26.7649 19.6424 26.6277C19.6425 26.5281 19.6191 26.4295 19.5746 26.3402Z" fill="white"/>
<path d="M19.6159 36.6846C19.3746 36.4321 18.9758 36.4187 18.7181 36.6545L18.5712 36.7888C18.3513 36.9899 18.2985 37.3159 18.4439 37.5761L18.4484 37.5842C18.5465 37.76 18.7215 37.8796 18.9209 37.9073C18.9505 37.9114 18.98 37.9134 19.0094 37.9134C19.1786 37.9134 19.3424 37.8465 19.4637 37.7252L19.606 37.5828C19.8529 37.3358 19.8574 36.9368 19.6159 36.6846Z" fill="white"/>
<path d="M19.429 36.789L19.2822 36.6547C19.0245 36.419 18.6256 36.4324 18.3842 36.6847C18.1428 36.9372 18.1473 37.3363 18.3943 37.5832L18.5368 37.7256C18.6581 37.8469 18.8218 37.9137 18.991 37.9137C19.0212 37.9137 19.0516 37.9116 19.0819 37.9073C19.282 37.8787 19.457 37.7575 19.5543 37.5803L19.5588 37.5722C19.7012 37.3124 19.6476 36.9889 19.429 36.789Z" fill="white"/>
<path d="M19.4398 36.7988L19.439 36.798C19.3398 36.7052 19.2115 36.6441 19.0701 36.6286C18.8807 36.6079 18.6963 36.6721 18.5622 36.797L18.5603 36.7988C18.4304 36.9172 18.3548 37.0838 18.351 37.2596C18.3472 37.4355 18.4156 37.6051 18.5402 37.729L18.547 37.7358C18.6723 37.8604 18.8361 37.9226 19 37.9226C19.1645 37.9226 19.3289 37.8599 19.4542 37.7346L19.461 37.7278C19.5851 37.6037 19.6531 37.4342 19.649 37.2588C19.6451 37.0832 19.5695 36.9171 19.4398 36.7988Z" fill="white"/>
<path d="M19.2085 26.0057C18.9424 25.9205 18.6505 26.0192 18.4884 26.2471C18.3072 26.5023 18.3371 26.85 18.5579 27.0718C18.6822 27.1966 18.8471 27.2606 19.0132 27.2606C19.1423 27.2606 19.272 27.222 19.384 27.1432C19.555 27.0229 19.6567 26.827 19.6567 26.6178V26.6163C19.6567 26.3367 19.4749 26.0906 19.2085 26.0057Z" fill="white"/>
<path d="M19.522 26.2418L19.5165 26.2344C19.3517 26.0113 19.0622 25.9194 18.7988 26.0062C18.5354 26.093 18.3574 26.3391 18.3574 26.6164V26.6273C18.3574 26.8639 18.4902 27.0795 18.6986 27.1914C18.793 27.2421 18.8972 27.2671 19.0013 27.2671C19.1268 27.2671 19.2521 27.2307 19.3599 27.1593C19.5068 27.0621 19.6073 26.9088 19.638 26.7353C19.6686 26.5619 19.6267 26.3835 19.522 26.2418Z" fill="white"/>
<path d="M26.6431 24.2234C26.5765 24.0474 26.4362 23.9095 26.2591 23.8461L23.7957 22.9631C23.7757 22.956 23.755 22.9496 23.7344 22.9445C23.5585 22.9005 23.3723 22.9328 23.2216 23.0336L18.6573 26.0835C18.6561 26.0844 18.6548 26.0852 18.6535 26.0861L19.0119 26.619L18.6455 26.0915C18.5116 26.18 18.4157 26.3158 18.3768 26.4715C18.3554 26.557 18.3519 26.6463 18.3664 26.7332C18.383 26.8325 18.4226 26.9266 18.4823 27.0079L21.824 31.559C21.9454 31.7245 22.1381 31.8213 22.3417 31.8213C22.3557 31.8213 22.3697 31.8208 22.3837 31.8198C22.6026 31.8054 22.7991 31.6806 22.9048 31.4883L26.6051 24.7605C26.6959 24.5956 26.7097 24.3992 26.6431 24.2234ZM22.264 29.9872L19.9153 26.7883L23.6665 24.2817L25.1162 24.8015L22.264 29.9872Z" fill="white"/>
<path d="M19.633 26.5164C19.6028 26.3439 19.5035 26.1912 19.3581 26.0937L14.7785 23.0335C14.6328 22.936 14.4531 22.9026 14.2819 22.9406C14.2556 22.9464 14.2298 22.954 14.2044 22.963L11.741 23.8461C11.564 23.9095 11.4236 24.0474 11.357 24.2233C11.2905 24.3993 11.3043 24.5955 11.395 24.7605L15.0953 31.4883C15.201 31.6805 15.3974 31.8054 15.6163 31.8198C15.6303 31.8207 15.6443 31.8211 15.6582 31.8211C15.8619 31.8211 16.0545 31.7244 16.1761 31.5588L17.9617 29.127C17.9631 29.1251 17.9645 29.1231 17.9659 29.1211L19.5179 27.0073C19.6215 26.8661 19.6631 26.6889 19.633 26.5164ZM16.9261 28.3662C16.9245 28.3683 16.923 28.3704 16.9214 28.3725L15.736 29.9871L12.8837 24.8013L14.3335 24.2817L18.0846 26.7883L16.9261 28.3662Z" fill="white"/>
<path d="M37.9683 35.1911L37.1395 30.1863C36.8783 28.6091 35.7822 27.2913 34.2788 26.7476L26.2606 23.8467C26.0134 23.7573 25.7371 23.8274 25.5624 24.0235C25.3877 24.2196 25.3499 24.5024 25.4672 24.7376L27.1412 28.0948L25.4986 28.1201C25.2755 28.1236 25.0702 28.2424 24.9562 28.4342C24.8422 28.6259 24.8359 28.863 24.9393 29.0606L25.6131 30.3471L18.7179 36.6547C18.7109 36.6612 18.704 36.6677 18.6972 36.6745L18.5549 36.8168C18.3532 37.0185 18.3086 37.3291 18.4455 37.5793L18.4506 37.5885C18.5633 37.7944 18.7794 37.9226 19.0143 37.9226H35.652C36.3432 37.9226 36.9959 37.6203 37.4428 37.0932C37.8897 36.5661 38.0813 35.8727 37.9683 35.1911ZM36.4629 36.2622C36.2605 36.5009 35.9649 36.6377 35.6521 36.6377H20.6401L26.8456 30.9612C27.0609 30.7644 27.1165 30.4474 26.9812 30.1891L26.562 29.3888L28.1819 29.3638C28.4027 29.3605 28.6061 29.2439 28.7209 29.0553C28.8356 28.8666 28.8455 28.6323 28.747 28.4347L27.3341 25.6013L33.842 27.9557C34.9089 28.3417 35.6868 29.2768 35.8721 30.3961L36.7009 35.4009C36.7009 35.401 36.7009 35.401 36.7009 35.401C36.752 35.7097 36.6653 36.0235 36.4629 36.2622Z" fill="white"/>
<path d="M19.4454 36.8042L19.438 36.7975C19.1837 36.5673 18.7931 36.5775 18.5512 36.8208L18.5445 36.8275C18.3616 37.0116 18.3073 37.2877 18.4069 37.5273C18.5066 37.7669 18.7407 37.923 19.0001 37.923H19.0142C19.2799 37.923 19.5182 37.7594 19.6136 37.5116C19.7093 37.2637 19.6424 36.9825 19.4454 36.8042Z" fill="white"/>
<path d="M19.4251 36.7855C19.2793 36.6542 19.0815 36.5967 18.8878 36.6297C18.6943 36.6625 18.5264 36.782 18.432 36.9541L18.4276 36.9622C18.2921 37.2091 18.3333 37.5155 18.5292 37.7179L18.5315 37.7203C18.6574 37.8504 18.8251 37.916 18.9933 37.916C19.148 37.916 19.3032 37.8604 19.4261 37.7481L19.4329 37.742C19.4912 37.6889 19.5393 37.6252 19.5746 37.5545C19.704 37.296 19.64 36.9788 19.4251 36.7855Z" fill="white"/>
<path d="M19.4529 36.8247L19.4503 36.8219C19.4486 36.8202 19.4468 36.8184 19.4451 36.8168L19.3026 36.6745C19.296 36.6677 19.2891 36.6611 19.2821 36.6548L12.3869 30.3472L13.0608 29.0607C13.1643 28.8631 13.1578 28.626 13.0439 28.4342C12.9299 28.2425 12.7246 28.1237 12.5016 28.1202L10.8588 28.0949L12.5328 24.7377C12.6501 24.5026 12.6123 24.2197 12.4376 24.0236C12.263 23.8274 11.9863 23.7573 11.7394 23.8468L3.72128 26.7477C2.2179 27.2913 1.12169 28.6091 0.860509 30.1864L0.0317064 35.1912C-0.0811806 35.8731 0.110453 36.5663 0.557399 37.0934C1.00442 37.6204 1.65717 37.9227 2.34815 37.9227H19.0001C19.2603 37.9227 19.4947 37.7657 19.5939 37.5252C19.6931 37.2848 19.6374 37.0081 19.4529 36.8247ZM2.34823 36.6378C2.03532 36.6378 1.73978 36.5009 1.53746 36.2622C1.33514 36.0236 1.24845 35.7098 1.29951 35.401L2.12832 30.3962C2.31364 29.2768 3.09153 28.3418 4.15843 27.9558L10.6663 25.6014L9.25348 28.4346C9.15492 28.6322 9.16471 28.8665 9.27953 29.0552C9.3942 29.2439 9.59778 29.3604 9.81858 29.3638L11.4385 29.3888L11.0193 30.1891C10.884 30.4473 10.9397 30.7644 11.1547 30.9612L17.3603 36.6378H2.34823Z" fill="white"/>
<path d="M21.1869 28.9126C21.2333 28.7271 21.1947 28.5306 21.0815 28.3765L19.518 26.2472C19.3537 26.0234 19.0639 25.9344 18.8001 26.0209C18.6577 26.0676 18.5404 26.1619 18.4623 26.2823L16.9274 28.365C16.9054 28.3947 16.8859 28.4266 16.8693 28.4597C16.7642 28.6701 16.7823 28.9211 16.9167 29.1141L17.5703 30.0528L16.874 34.4419C16.8517 34.5828 16.8769 34.7271 16.9456 34.8521L18.4373 37.5642C18.5502 37.7695 18.766 37.8971 19.0002 37.8971C19.2345 37.8971 19.4503 37.7695 19.5632 37.5642L21.066 34.832C21.1181 34.7372 21.1455 34.6307 21.1455 34.5225V34.5221C21.1455 34.4884 21.1427 34.4547 21.1375 34.4214L20.4444 30.0529L21.091 29.1245C21.1354 29.0603 21.1681 28.9883 21.1869 28.9126ZM19.0002 35.9215L18.1775 34.4258L18.8799 29.9987C18.906 29.8347 18.8675 29.6671 18.7726 29.5309L18.2342 28.7577L19.0021 27.7158L19.774 28.767L19.242 29.5309C19.1472 29.667 19.1087 29.8347 19.1347 29.9987L19.8339 34.4056L19.0002 35.9215Z" fill="white"/>
</g>
<defs>
<clipPath id="clip0">
<rect width="38" height="38" fill="white"/>
</clipPath>
</defs>
</svg>
