<svg width="58" height="215" viewBox="0 0 58 215" fill="none" xmlns="http://www.w3.org/2000/svg">
<g opacity="0.2">
<circle r="2.5" transform="matrix(-1 0 0 1 32.5 32.5)" fill="white"/>
<circle r="2.5" transform="matrix(-1 0 0 1 2.5 2.5)" fill="white"/>
<circle r="2.5" transform="matrix(-1 0 0 1 2.5 32.5)" fill="white"/>
<circle r="2.5" transform="matrix(-1 0 0 1 32.5 62.5)" fill="white"/>
<circle r="2.5" transform="matrix(-1 0 0 1 32.5 92.5)" fill="white"/>
<circle r="2.5" transform="matrix(-1 0 0 1 2.5 62.5)" fill="white"/>
<circle r="2.5" transform="matrix(-1 0 0 1 2.5 92.5)" fill="white"/>
<circle r="2.5" transform="matrix(-1 0 0 1 32.5 122.5)" fill="white"/>
<circle r="2.5" transform="matrix(-1 0 0 1 32.5 152.5)" fill="white"/>
<circle r="2.5" transform="matrix(-1 0 0 1 2.5 122.5)" fill="white"/>
<circle r="2.5" transform="matrix(-1 0 0 1 2.5 152.5)" fill="white"/>
<circle r="2.5" transform="matrix(-1 0 0 1 32.5 182.5)" fill="white"/>
<circle r="2.5" transform="matrix(-1 0 0 1 32.5 212.5)" fill="white"/>
<circle r="2.5" transform="matrix(-1 0 0 1 2.5 182.5)" fill="white"/>
<circle r="2.5" transform="matrix(-1 0 0 1 2.5 212.5)" fill="white"/>
</g>
</svg>
