<svg width="18" height="18" viewBox="0 0 18 18" fill="none" xmlns="http://www.w3.org/2000/svg">
<g clip-path="url(#clip0)">
<path d="M3.16585 13.9201C2.91385 13.9201 2.6716 13.983 2.45668 14.1011C1.32454 12.6498 0.703125 10.8469 0.703125 9C0.703125 4.42502 4.42502 0.703125 9 0.703125C9.55618 0.703125 10.1121 0.758469 10.6523 0.867645C10.8424 0.906098 11.0281 0.783051 11.0665 0.592712C11.105 0.402374 10.9819 0.21698 10.7916 0.178391C10.2056 0.0600128 9.60287 0 9 0C6.59605 0 4.33589 0.936173 2.63603 2.63603C0.936172 4.33589 0 6.59605 0 9C0 11.0222 0.686645 12.9956 1.93675 14.5776C1.7758 14.8181 1.68929 15.1007 1.68929 15.3967C1.68929 15.7911 1.84296 16.1619 2.12187 16.4406C2.40065 16.7195 2.77144 16.8732 3.16585 16.8732C3.56026 16.8732 3.93105 16.7195 4.20996 16.4406C4.48888 16.1619 4.64241 15.7909 4.64241 15.3965C4.64241 15.0022 4.48888 14.6313 4.20996 14.3525C3.93105 14.0736 3.56026 13.9201 3.16585 13.9201ZM3.71269 15.9435C3.56671 16.0896 3.37239 16.1701 3.16585 16.1701C2.9593 16.1701 2.76512 16.0896 2.619 15.9435C2.47288 15.7974 2.39241 15.6032 2.39241 15.3967C2.39241 15.19 2.47288 14.9958 2.619 14.8497C2.76498 14.7036 2.9593 14.6232 3.16585 14.6232C3.37239 14.6232 3.56657 14.7037 3.71269 14.8497C3.85881 14.9958 3.93928 15.19 3.93928 15.3967C3.93928 15.6032 3.85881 15.7974 3.71269 15.9435Z" fill="#EF4932"/>
<path d="M16.0631 3.42653C16.4452 2.85318 16.3839 2.06931 15.8783 1.5638C15.5994 1.28502 15.2286 1.13135 14.8342 1.13135C14.4398 1.13135 14.069 1.28502 13.7901 1.5638C13.5112 1.84271 13.3577 2.2135 13.3577 2.60791C13.3577 3.00232 13.5112 3.37311 13.7901 3.65202C14.069 3.93094 14.4398 4.08447 14.8342 4.08447C15.0862 4.08447 15.3285 4.02158 15.5434 3.90347C16.6755 5.35491 17.297 7.15763 17.297 9.00457C17.297 13.5796 13.5751 17.3014 9.00008 17.3014C8.44939 17.3014 7.8987 17.2472 7.36353 17.1401C7.17319 17.102 6.98793 17.2255 6.94975 17.4158C6.91171 17.6063 7.03517 17.7914 7.22551 17.8296C7.806 17.9457 8.40311 18.0046 9.00008 18.0046C11.404 18.0046 13.6642 17.0684 15.364 15.3685C17.0639 13.6687 18.0001 11.4085 18.0001 9.00457C18.0001 6.98226 17.3133 5.0087 16.0631 3.42653ZM14.2874 3.15489C14.1413 3.00877 14.0608 2.81459 14.0608 2.60791C14.0608 2.40137 14.1413 2.20718 14.2874 2.06107C14.4334 1.91495 14.6277 1.83447 14.8342 1.83447C15.0408 1.83447 15.2351 1.91495 15.3812 2.06107C15.6826 2.36264 15.6826 2.85332 15.3812 3.15489C15.2351 3.30087 15.0408 3.38135 14.8342 3.38135C14.6275 3.38135 14.4334 3.30087 14.2874 3.15489Z" fill="#EF4932"/>
<path d="M7.54932 15.0486C7.54932 15.2428 7.70683 15.4001 7.90088 15.4001H10.0991C10.2933 15.4001 10.4507 15.2428 10.4507 15.0486V14.367C10.9129 14.2426 11.3548 14.0594 11.7701 13.8202L12.2513 14.3014C12.3172 14.3673 12.4066 14.4044 12.5 14.4044C12.5931 14.4044 12.6827 14.3673 12.7486 14.3012L14.3023 12.7464C14.4395 12.6091 14.4395 12.3865 14.3023 12.2493L13.8217 11.7686C14.0609 11.3533 14.2441 10.9114 14.3685 10.4492H15.0475C15.2417 10.4492 15.399 10.2918 15.399 10.0976V7.89937C15.399 7.70518 15.2417 7.5478 15.0475 7.5478H14.3684C14.244 7.08569 14.0609 6.64377 13.8217 6.22848L14.2997 5.75044C14.3656 5.68452 14.4027 5.59499 14.4027 5.50174C14.4026 5.40849 14.3655 5.31895 14.2996 5.25304L12.7446 3.69929C12.6074 3.5621 12.3848 3.5621 12.2475 3.69943L11.7701 4.17693C11.3548 3.9377 10.9129 3.7545 10.4507 3.63008V2.95483C10.4507 2.76065 10.2933 2.60327 10.0991 2.60327H7.90088C7.70683 2.60327 7.54932 2.76065 7.54932 2.95483V3.63022C7.0872 3.7545 6.64528 3.9377 6.23 4.17693L5.7525 3.69943C5.61531 3.56224 5.3927 3.5621 5.25537 3.69929L3.70053 5.25317C3.63448 5.31909 3.5974 5.40849 3.5974 5.50174C3.5974 5.59499 3.63448 5.68452 3.70039 5.75044L4.17844 6.22848C3.93921 6.64377 3.75601 7.08555 3.63159 7.5478H2.95387C2.75969 7.5478 2.60231 7.70518 2.60231 7.89923L2.60107 10.0975C2.60094 10.1907 2.63802 10.2802 2.70393 10.3462C2.76985 10.4121 2.85925 10.4492 2.95264 10.4492H3.63159C3.75601 10.9114 3.93921 11.3533 4.17844 11.7686L3.69778 12.2493C3.56059 12.3865 3.56046 12.6091 3.69778 12.7464L5.25153 14.3012C5.31744 14.3672 5.40685 14.4044 5.50009 14.4044H5.50023C5.59348 14.4044 5.68288 14.3673 5.74879 14.3014L6.22986 13.8202C6.64528 14.0594 7.0872 14.2426 7.54932 14.367V15.0486ZM6.36774 13.0808C6.22862 12.9908 6.04556 13.0103 5.92828 13.1275L5.50023 13.5555L4.44348 12.498L4.87112 12.0702C4.98827 11.953 5.00777 11.77 4.91782 11.6309C4.59908 11.1376 4.37495 10.5969 4.25191 10.0237C4.21703 9.8618 4.07393 9.74603 3.90817 9.74603H3.30434L3.30516 8.25093H3.90817C4.07393 8.25093 4.21703 8.1353 4.25191 7.97325C4.37495 7.40018 4.59908 6.85951 4.91782 6.36623C5.00777 6.22711 4.98827 6.04405 4.87112 5.92691L4.44623 5.50188L5.5038 4.44513L5.92828 4.86975C6.04556 4.98689 6.22849 5.00626 6.36774 4.91644C6.86089 4.5977 7.40155 4.37358 7.97476 4.25053C8.13667 4.21565 8.25244 4.07242 8.25244 3.9068V3.3064H9.74754V3.90666C9.74754 4.07242 9.86317 4.21565 10.0252 4.2504C10.5983 4.37358 11.1391 4.59756 11.6322 4.9163C11.7714 5.00626 11.9544 4.98689 12.0716 4.86961L12.4962 4.44513L13.5538 5.50188L13.1289 5.92677C13.0116 6.04405 12.9922 6.22711 13.0822 6.36623C13.4009 6.85951 13.6249 7.40018 13.7481 7.97325C13.7828 8.1353 13.9261 8.25093 14.0918 8.25093H14.6959V9.74603H14.0918C13.9261 9.74603 13.783 9.8618 13.7481 10.0237C13.625 10.5968 13.4009 11.1376 13.0822 11.6307C12.9922 11.77 13.0117 11.953 13.1289 12.0702L13.5565 12.4978L12.4998 13.5554L12.0717 13.1275C11.9544 13.0102 11.7714 12.9908 11.6322 13.0808C11.139 13.3995 10.5983 13.6235 10.0252 13.7467C9.86317 13.7816 9.74754 13.9247 9.74754 14.0904V14.697H8.25244V14.0904C8.25244 13.9248 8.13667 13.7816 7.97476 13.7467C7.40169 13.6237 6.86102 13.3995 6.36774 13.0808Z" fill="#EF4932"/>
<path d="M11.9051 9.0023C11.9051 7.40011 10.6019 6.09668 9.00014 6.09668C7.39833 6.09668 6.09521 7.40011 6.09521 9.0023C6.09521 10.6045 7.39833 11.9079 9.00014 11.9079C10.6019 11.9079 11.9051 10.6045 11.9051 9.0023ZM6.79834 9.0023C6.79834 7.78788 7.78601 6.79997 9.00014 6.79997C10.2143 6.79997 11.2019 7.78802 11.2019 9.0023C11.2019 10.2166 10.2143 11.2046 9.00014 11.2046C7.78601 11.2046 6.79834 10.2167 6.79834 9.0023Z" fill="#EF4932"/>
<path d="M12.2371 1.33755C12.3296 1.33755 12.4203 1.29963 12.4856 1.23377C12.551 1.16749 12.5886 1.07616 12.5886 0.982898C12.5886 0.890188 12.5511 0.798723 12.4856 0.732442C12.4203 0.666576 12.3296 0.628662 12.2371 0.628662C12.1442 0.628662 12.054 0.666576 11.9886 0.732442C11.9231 0.798723 11.8855 0.889773 11.8855 0.982898C11.8855 1.07644 11.9231 1.16749 11.9886 1.23377C12.054 1.29963 12.1442 1.33755 12.2371 1.33755Z" fill="#EF4932"/>
<path d="M5.77832 16.6765C5.6859 16.6765 5.59512 16.7144 5.52975 16.7803C5.46439 16.8462 5.42676 16.9376 5.42676 17.0307C5.42676 17.1243 5.46439 17.2153 5.52975 17.2812C5.59512 17.3471 5.6859 17.385 5.77832 17.385C5.87074 17.385 5.96152 17.3471 6.02689 17.2812C6.09225 17.2153 6.12988 17.1239 6.12988 17.0307C6.12988 16.9376 6.09225 16.8462 6.02689 16.7803C5.96152 16.7144 5.87074 16.6765 5.77832 16.6765Z" fill="#EF4932"/>
</g>
<defs>
<clipPath id="clip0">
<rect width="18" height="18" fill="white"/>
</clipPath>
</defs>
</svg>
