<svg width="28" height="28" viewBox="0 0 28 28" fill="none" xmlns="http://www.w3.org/2000/svg">
<path d="M5.79681 10.1718C5.49493 10.1718 5.24993 10.4168 5.24993 10.7186C5.24993 11.0205 5.49493 11.2655 5.79681 11.2655C6.09868 11.2655 6.34369 11.0205 6.34369 10.7186C6.34369 10.4168 6.09868 10.1718 5.79681 10.1718Z" fill="white"/>
<path d="M12.5264 8.47355H15.8422V11.7893H18.7896V15.1051H15.8422L15.4738 18.4209H12.158V15.1051H9.21064V11.7893H12.158L12.5264 8.47355Z" fill="#EF4932"/>
<path d="M18.9219 11.2655H16.1875V8.53113C16.1875 8.22914 15.9426 7.98425 15.6406 7.98425H12.3593C12.0574 7.98425 11.8125 8.22914 11.8125 8.53113V11.2655H9.07807C8.77609 11.2655 8.5312 11.5104 8.5312 11.8124V15.0937C8.5312 15.3956 8.77609 15.6405 9.07807 15.6405H11.8125V18.3749C11.8125 18.6769 12.0574 18.9218 12.3593 18.9218H15.6406C15.9426 18.9218 16.1875 18.6769 16.1875 18.3749V15.6405H18.9219C19.2238 15.6405 19.4687 15.3956 19.4687 15.0937V11.8124C19.4687 11.5104 19.2238 11.2655 18.9219 11.2655ZM18.375 14.5468H15.6406C15.3386 14.5468 15.0937 14.7917 15.0937 15.0937V17.828H12.9062V15.0937C12.9062 14.7917 12.6613 14.5468 12.3593 14.5468H9.62495V12.3593H12.3593C12.6613 12.3593 12.9062 12.1144 12.9062 11.8124V9.07801H15.0937V11.8124C15.0937 12.1144 15.3386 12.3593 15.6406 12.3593H18.375V14.5468Z" fill="white"/>
<path d="M22.4424 1.68116C21.557 2.25603 20.5287 2.55982 19.4687 2.55982C17.8477 2.55982 16.3197 1.84653 15.2765 0.602768C15.2764 0.602768 15.2764 0.602768 15.2764 0.602768C14.9551 0.219735 14.4899 0 14 0C13.5101 0 13.0448 0.219735 12.7234 0.602713C11.6803 1.84648 10.1522 2.55977 8.53119 2.55977C7.47124 2.55977 6.44294 2.25592 5.55755 1.6811C4.47621 0.979293 3.06242 1.80557 3.06242 3.0793V14.234C3.06242 16.7152 3.85835 19.1395 5.30342 21.0601C8.87835 25.8135 13.5857 27.8704 13.7843 27.9557C13.8532 27.9852 13.9266 28 14 28C14.0733 28 14.1468 27.9852 14.2156 27.9557C14.4142 27.8704 19.1216 25.8136 22.6965 21.0607C24.1416 19.1395 24.9375 16.715 24.9375 14.234V3.07936C24.9375 1.80551 23.5234 0.979293 22.4424 1.68116ZM21.8224 20.4033C18.8495 24.3558 14.9501 26.3934 13.9996 26.8506C13.0488 26.3945 9.15699 24.3645 6.17749 20.4027C4.87401 18.6703 4.15618 16.4797 4.15618 14.2341V3.07936C4.15618 2.66302 4.61561 2.37378 4.96195 2.59854C6.02513 3.28876 7.25938 3.65358 8.53119 3.65358C10.4764 3.65358 12.31 2.79782 13.5614 1.30567C13.676 1.169 13.8317 1.09375 14 1.09375C14.1682 1.09375 14.3239 1.169 14.4385 1.30567C15.69 2.79777 17.5235 3.65358 19.4687 3.65358C20.7406 3.65358 21.9747 3.28876 23.038 2.59854C23.3787 2.37722 23.8438 2.65673 23.8438 3.07936V14.234C23.8438 16.4794 23.1259 18.6703 21.8224 20.4033Z" fill="white"/>
<path d="M22.5187 4.37614C22.3736 4.27365 22.1878 4.24806 22.0203 4.3074C21.1976 4.59932 20.3391 4.7473 19.4688 4.7473C17.5891 4.7473 15.7762 4.05337 14.3642 2.79331C14.1567 2.60819 13.8434 2.60819 13.636 2.79331C12.224 4.05337 10.4111 4.7473 8.53129 4.7473C7.66105 4.7473 6.80256 4.59932 5.97978 4.3074C5.81222 4.24806 5.62656 4.27365 5.48141 4.37614C5.33638 4.47862 5.25009 4.6452 5.25009 4.82283V8.5312C5.25009 8.83319 5.49498 9.07808 5.79696 9.07808C6.09895 9.07808 6.34384 8.83319 6.34384 8.5312V5.56204C7.05795 5.74743 7.79088 5.84111 8.53135 5.84111C10.5217 5.84111 12.4456 5.16118 14.0001 3.91714C15.5546 5.16118 17.4785 5.84111 19.4689 5.84111C20.2094 5.84111 20.9423 5.74743 21.6564 5.56204V14.234C21.6564 16.0087 21.0946 17.7321 20.0741 19.087C18.0062 21.8376 15.4805 23.5407 14.0053 24.3793C12.5184 23.5297 9.97647 21.8137 7.92595 19.0879C6.9057 17.7321 6.34378 16.0083 6.34378 14.234V12.9062C6.34378 12.6042 6.09889 12.3593 5.79691 12.3593C5.49492 12.3593 5.25003 12.6042 5.25003 12.9062V14.234C5.25003 16.2441 5.88999 18.2015 7.05194 19.7455C9.35161 22.8026 12.2298 24.6537 13.7408 25.485C13.8229 25.5301 13.9136 25.5527 14.0044 25.5527C14.0946 25.5527 14.185 25.5304 14.2667 25.4857C15.766 24.6663 18.6277 22.8307 20.948 19.7446C22.11 18.2016 22.75 16.2446 22.75 14.234V4.82277C22.75 4.64515 22.6637 4.47862 22.5187 4.37614Z" fill="white"/>
</svg>
