<svg width="89" height="89" viewBox="0 0 89 89" fill="none" xmlns="http://www.w3.org/2000/svg">
<g clip-path="url(#clip0)">
<path d="M33.3955 0V7.42429H40.8198V11.1364C43.4182 10.7652 45.6455 10.7652 48.2441 11.1364V7.42429H55.6684V0H33.3955Z" fill="white"/>
<path d="M69.776 24.5001L72.3744 21.9017L75.3442 24.8715L80.5412 19.6744L69.4048 8.53809L64.2078 13.7351L67.1776 16.7047L63.8367 20.0456C46.0185 9.28039 23.0033 14.8486 12.6095 32.6667C2.21559 50.4849 7.7836 72.7576 25.2306 83.5228C42.6776 94.288 65.6926 88.7198 76.0867 70.9017C85.3669 55.6819 82.7685 36.379 69.776 24.5001ZM44.5336 77.5835C30.0563 77.5835 18.5488 66.076 18.5488 51.5987C18.5488 37.1215 30.0563 25.6138 44.5336 25.6138V51.5985H70.5183C70.5185 66.0758 59.0108 77.5835 44.5336 77.5835Z" fill="white"/>
</g>
<defs>
<clipPath id="clip0">
<rect width="89" height="89" fill="white"/>
</clipPath>
</defs>
</svg>
