<svg width="33" height="33" viewBox="0 0 33 33" fill="none" xmlns="http://www.w3.org/2000/svg">
<circle cx="16.5" cy="16.5002" r="16.5" fill="#EF4932"/>
<g clip-path="url(#clip0)">
<path d="M14.3794 8.00024V9.41837H15.7975V10.1274C16.2938 10.0565 16.7193 10.0565 17.2156 10.1274V9.41837H18.6338V8.00024H14.3794Z" fill="white"/>
<path d="M21.3282 12.6802L21.8245 12.1838L22.3918 12.7511L23.3845 11.7584L21.2573 9.63123L20.2646 10.6239L20.8319 11.1911L20.1937 11.8293C16.7903 9.77301 12.3941 10.8366 10.4087 14.2401C8.4234 17.6435 9.48695 21.8979 12.8195 23.9542C16.1521 26.0104 20.5482 24.9468 22.5336 21.5434C24.3062 18.6362 23.8099 14.9491 21.3282 12.6802ZM16.5066 22.8197C13.7413 22.8197 11.5432 20.6216 11.5432 17.8563C11.5432 15.091 13.7413 12.8929 16.5066 12.8929V17.8563H21.47C21.47 20.6216 19.2719 22.8197 16.5066 22.8197Z" fill="white"/>
</g>
<defs>
<clipPath id="clip0">
<rect width="17" height="17" fill="white" transform="translate(8 8.00024)"/>
</clipPath>
</defs>
</svg>
