<svg width="18" height="18" viewBox="0 0 18 18" fill="none" xmlns="http://www.w3.org/2000/svg">
<path d="M3.3664 12.1182H3.36355C3.21793 12.1182 3.10132 12.2362 3.10132 12.3818C3.10132 12.5275 3.22078 12.6455 3.3664 12.6455C3.51201 12.6455 3.63007 12.5275 3.63007 12.3818C3.63007 12.2362 3.51201 12.1182 3.3664 12.1182Z" fill="#EF4932"/>
<path d="M5.62104 12.1182H5.61822C5.47261 12.1182 5.35596 12.2362 5.35596 12.3818C5.35596 12.5275 5.47542 12.6455 5.62104 12.6455C5.76665 12.6455 5.88471 12.5275 5.88471 12.3818C5.88471 12.2362 5.76665 12.1182 5.62104 12.1182Z" fill="#EF4932"/>
<path d="M14.9211 12.1182H14.9183C14.7727 12.1182 14.656 12.2362 14.656 12.3818C14.656 12.5275 14.7755 12.6455 14.9211 12.6455C15.0667 12.6455 15.1848 12.5275 15.1848 12.3818C15.1848 12.2362 15.0667 12.1182 14.9211 12.1182Z" fill="#EF4932"/>
<path d="M17.7577 8.93019L17.4032 8.57568L16.689 6.43304C16.7955 6.39918 16.8728 6.29951 16.8728 6.18178C16.8728 6.03616 16.7547 5.9181 16.6091 5.9181H14.0546V4.77278C14.0546 4.47198 13.8099 4.22729 13.5091 4.22729H0.545485C0.244688 4.22729 0 4.47202 0 4.77278V10.9727C0 11.2735 0.244688 11.5182 0.545485 11.5182H0.845439V12.0998C0.845439 12.4006 1.09013 12.6453 1.39092 12.6453H1.99811C2.12172 13.2866 2.68686 13.7726 3.36365 13.7726C3.82708 13.7726 4.23802 13.5446 4.4909 13.195C4.74382 13.5446 5.15476 13.7726 5.61819 13.7726C6.29499 13.7726 6.86016 13.2866 6.98373 12.6453H13.5526C13.6762 13.2866 14.2414 13.7726 14.9182 13.7726C15.6851 13.7726 16.3091 13.1486 16.3091 12.3817C16.3091 12.3756 16.3087 12.3697 16.3086 12.3637H17.4545C17.7553 12.3637 18 12.119 18 11.8182V9.51516C18 9.2942 17.914 9.08646 17.7577 8.93019ZM1.99811 12.118H1.39092C1.38091 12.118 1.37278 12.1099 1.37278 12.0999V11.5183H2.27437C2.13796 11.69 2.04118 11.8945 1.99811 12.118ZM3.36365 13.2453C2.88746 13.2453 2.50007 12.8579 2.50007 12.3817C2.50007 11.9074 2.88458 11.5212 3.35827 11.5183H3.3691C3.8428 11.5212 4.2273 11.9073 4.2273 12.3817C4.22727 12.8579 3.83984 13.2453 3.36365 13.2453ZM5.61823 13.2453C5.14203 13.2453 4.75461 12.8579 4.75461 12.3817C4.75461 11.9074 5.13912 11.5212 5.61281 11.5183H5.62364C6.09734 11.5212 6.48184 11.9073 6.48184 12.3817C6.48181 12.8579 6.09442 13.2453 5.61823 13.2453ZM13.5527 12.118H6.98377C6.9407 11.8945 6.84392 11.69 6.70747 11.5182H11.8182C11.9638 11.5182 12.0819 11.4002 12.0819 11.2546C12.0819 11.1089 11.9638 10.9909 11.8182 10.9909H0.545485C0.535466 10.9909 0.527345 10.9828 0.527345 10.9727V4.77278C0.527345 4.76276 0.535466 4.75464 0.545485 4.75464H13.5091C13.5191 4.75464 13.5272 4.76276 13.5272 4.77278V10.9909H12.9456C12.8 10.9909 12.6819 11.109 12.6819 11.2546C12.6819 11.4002 12.8 11.5183 12.9456 11.5183H13.8289C13.6925 11.69 13.5957 11.8945 13.5527 12.118ZM16.9008 8.73623H15.2C15.19 8.73623 15.1819 8.72811 15.1819 8.71809V7.57266H16.513L16.9008 8.73623ZM14.9182 13.2453C14.442 13.2453 14.0546 12.8579 14.0546 12.3817C14.0546 11.9074 14.4391 11.5212 14.9128 11.5183H14.9182C14.9188 11.5183 14.9194 11.5182 14.9201 11.5182C15.3954 11.5191 15.7818 11.9061 15.7818 12.3817C15.7818 12.8579 15.3944 13.2453 14.9182 13.2453ZM17.4727 11.8182C17.4727 11.8283 17.4646 11.8364 17.4546 11.8364H16.1976C15.9851 11.3397 15.4917 10.9908 14.9182 10.9908C14.9164 10.9908 14.9146 10.9909 14.9128 10.9909H14.0546V6.46369V6.46355C14.0546 6.45353 14.0627 6.44541 14.0728 6.44541H16.1372L16.3372 7.04532H14.9182C14.7726 7.04532 14.6545 7.16337 14.6545 7.30899V8.71809C14.6545 9.01889 14.8992 9.26358 15.2 9.26358H17.3453L17.3848 9.30309C17.4415 9.35977 17.4727 9.43507 17.4727 9.51519V10.1455H17.1727C17.0271 10.1455 16.9091 10.2635 16.9091 10.4091C16.9091 10.5548 17.0271 10.6728 17.1727 10.6728H17.4727V11.8182Z" fill="#EF4932"/>
<path d="M12.6636 9.86377H1.39087C1.24525 9.86377 1.1272 9.98182 1.1272 10.1274C1.1272 10.2731 1.24525 10.3911 1.39087 10.3911H12.6636C12.8092 10.3911 12.9272 10.2731 12.9272 10.1274C12.9272 9.98182 12.8092 9.86377 12.6636 9.86377Z" fill="#EF4932"/>
</svg>
