<svg width="15" height="15" viewBox="0 0 15 15" fill="none" xmlns="http://www.w3.org/2000/svg">
<g clip-path="url(#clip0)">
<path d="M9.02686 0.800781H6.23984C3.55046 0.800781 1.36255 2.98848 1.36255 5.67759V7.76766C1.36255 9.65557 2.45147 11.3689 4.14957 12.1748V14.5023C4.14957 14.7044 4.40241 14.81 4.54604 14.6665L6.56825 12.6445H9.02683C11.7162 12.6445 13.9041 10.4568 13.9041 7.76766V5.67759C13.9041 2.98848 11.7162 0.800781 9.02686 0.800781Z" fill="#665CAC"/>
<path d="M4.84632 12.1747C3.14822 11.3688 2.0593 9.65555 2.0593 7.76763V5.67757C2.0593 2.98848 4.24724 0.800781 6.93659 0.800781H6.23984C3.55046 0.800781 1.36255 2.98848 1.36255 5.67759V7.76766C1.36255 9.65557 2.45147 11.3689 4.14957 12.1748V14.5023C4.14957 14.7044 4.40241 14.81 4.54604 14.6665L4.84632 14.3663V12.1747Z" fill="#523494"/>
<path d="M11.1397 9.45749L10.9309 8.32634C10.9136 8.23289 10.8412 8.15938 10.7481 8.14074L9.10581 7.8123C9.02953 7.79711 8.95094 7.82093 8.89599 7.87582L8.2288 8.54304C7.10466 8.03934 6.48076 7.41408 5.93181 6.2417L6.59686 5.57668C6.65175 5.52176 6.67559 5.44301 6.66037 5.36686L6.33193 3.72458C6.31329 3.63143 6.23979 3.55899 6.14634 3.54173L5.01518 3.33295C4.98421 3.32726 4.95232 3.32786 4.92156 3.33486C4.6229 3.4027 4.35038 3.55319 4.13346 3.77016C3.75786 4.14577 3.61431 4.69385 3.71837 5.35516C3.89306 6.46564 4.43711 8.01104 5.44088 9.01884L5.4546 9.03245C6.46161 10.0355 8.00703 10.5796 9.11756 10.7543C9.25747 10.7764 9.3922 10.7873 9.52141 10.7873C10.003 10.7873 10.4064 10.6354 10.7026 10.3392C10.9195 10.1223 11.0701 9.84975 11.1379 9.55114C11.1448 9.52036 11.1454 9.48852 11.1397 9.45749Z" fill="white"/>
<path d="M6.36978 5.804L6.59685 5.57691L6.59709 5.57666L6.36975 5.80397L6.36978 5.804Z" fill="#E5E5E5"/>
<path d="M8.89605 7.87568L8.66675 8.10498L8.66679 8.10502L8.89608 7.87572L8.89605 7.87568Z" fill="#E5E5E5"/>
<path d="M9.95927 10.3493C9.83006 10.3493 9.69532 10.3384 9.55542 10.3164C8.44491 10.1417 6.89949 9.59755 5.89245 8.59449L5.87873 8.58088C4.87496 7.57308 4.33091 6.02768 4.15622 4.9172C4.07216 4.38292 4.14988 3.9226 4.3809 3.56738C4.29243 3.62641 4.2094 3.69412 4.13334 3.77018C3.75774 4.14578 3.61419 4.69386 3.71825 5.35518C3.89293 6.46565 4.43699 8.01105 5.44076 9.01885L5.45447 9.03246C6.46148 10.0355 8.00691 10.5796 9.11744 10.7543C9.25735 10.7764 9.39208 10.7873 9.52129 10.7873C10.0028 10.7873 10.4063 10.6354 10.7025 10.3392C10.7785 10.2632 10.8462 10.1802 10.9053 10.0917C10.643 10.2623 10.3235 10.3493 9.95927 10.3493Z" fill="#E5E5E5"/>
<path d="M8.09784 4.74878C7.96958 4.74878 7.8656 4.85276 7.8656 4.98102C7.8656 5.10928 7.96958 5.21326 8.09784 5.21326C8.61011 5.21326 9.02686 5.63001 9.02686 6.14228C9.02686 6.26882 9.13255 6.37452 9.2591 6.37452C9.38564 6.37452 9.49133 6.26882 9.49133 6.14228C9.49136 5.37387 8.86624 4.74878 8.09784 4.74878Z" fill="white"/>
<path d="M8.09784 3.82007C8.01193 3.82007 7.92523 3.82483 7.8401 3.83422C7.71261 3.84829 7.62065 3.96305 7.63472 4.09057C7.64879 4.21809 7.7638 4.3098 7.89107 4.29595C7.95933 4.28841 8.02888 4.28458 8.09784 4.28458C9.12235 4.28458 9.95585 5.11807 9.95585 6.14258C9.95585 6.21157 9.95201 6.28113 9.94447 6.34938C9.93059 6.47513 10.024 6.59188 10.1499 6.60573C10.2756 6.61958 10.3923 6.52616 10.4062 6.40035C10.4156 6.31522 10.4204 6.22852 10.4204 6.14258C10.4204 4.86197 9.37849 3.82007 8.09784 3.82007Z" fill="white"/>
<path d="M8.09832 2.89087C8.01532 2.89087 7.93126 2.89403 7.84853 2.90031C7.72062 2.91 7.62478 3.02158 7.63446 3.14945C7.64412 3.27736 7.75608 3.3732 7.8836 3.36351C7.95471 3.3581 8.02696 3.35538 8.09832 3.35538C9.6351 3.35538 10.8853 4.60562 10.8853 6.1424C10.8853 6.35983 10.8602 6.57629 10.8108 6.78573C10.7824 6.90574 10.8563 7.03048 10.9753 7.06309C11.1005 7.09737 11.233 7.01886 11.2628 6.89257C11.3206 6.64816 11.3498 6.39578 11.3498 6.1424C11.3498 4.34949 9.89123 2.89087 8.09832 2.89087Z" fill="white"/>
</g>
<defs>
<clipPath id="clip0">
<rect width="13.9333" height="13.932" fill="white" transform="translate(0.666626 0.800781)"/>
</clipPath>
</defs>
</svg>
