<svg width="24" height="24" viewBox="0 0 24 24" fill="none" xmlns="http://www.w3.org/2000/svg">
<g clip-path="url(#clip0)">
<path d="M23.7775 20.1501L13.4201 2.21046C12.7887 1.11691 11.2112 1.11649 10.5796 2.21046L0.222164 20.1501C-0.409008 21.2432 0.378867 22.61 1.64238 22.61H22.3573C23.6195 22.61 24.4093 21.2443 23.7775 20.1501ZM22.3573 21.2043H1.64238C1.4622 21.2043 1.34862 21.0103 1.43951 20.8529L11.797 2.9133C11.8871 2.75721 12.1119 2.75589 12.2028 2.9133L22.5602 20.8529C22.6505 21.0093 22.5387 21.2043 22.3573 21.2043Z" fill="white"/>
<path d="M12.4561 19.1797C12.8557 18.9327 12.9794 18.4086 12.7324 18.0091C12.4854 17.6095 11.9613 17.4858 11.5618 17.7328C11.1622 17.9797 11.0385 18.5038 11.2855 18.9034C11.5324 19.3029 12.0566 19.4266 12.4561 19.1797Z" fill="white"/>
<path d="M12.0089 16.3701C12.3971 16.3701 12.7117 16.0554 12.7117 15.6672V7.63351C12.7117 7.24534 12.3971 6.93066 12.0089 6.93066C11.6207 6.93066 11.306 7.24534 11.306 7.63351V15.6672C11.306 16.0554 11.6207 16.3701 12.0089 16.3701Z" fill="white"/>
</g>
<defs>
<clipPath id="clip0">
<rect width="24" height="24" fill="white"/>
</clipPath>
</defs>
</svg>
