<svg width="14" height="14" viewBox="0 0 14 14" fill="none" xmlns="http://www.w3.org/2000/svg">
<g clip-path="url(#clip0)">
<path d="M7.4017 0.800781H7.3984C3.75932 0.800781 0.800049 3.76088 0.800049 7.40078C0.800049 8.84453 1.26535 10.1827 2.05652 11.2692L1.234 13.7211L3.77087 12.9101C4.8145 13.6015 6.05942 14.0008 7.4017 14.0008C11.0408 14.0008 14 11.0399 14 7.40078C14 3.76171 11.0408 0.800781 7.4017 0.800781Z" fill="#4CAF50"/>
<path d="M11.2421 10.1209C11.0828 10.5706 10.4509 10.9435 9.94681 11.0524C9.60196 11.1258 9.1515 11.1844 7.63515 10.5557C5.69558 9.75216 4.44653 7.78123 4.34918 7.65336C4.25595 7.52548 3.56543 6.60973 3.56543 5.66263C3.56543 4.71553 4.0464 4.25436 4.24028 4.05636C4.3995 3.89383 4.66268 3.81958 4.91513 3.81958C4.9968 3.81958 5.07023 3.82371 5.13623 3.82701C5.3301 3.83526 5.42745 3.84681 5.55533 4.15288C5.71456 4.53651 6.1023 5.48361 6.1485 5.58096C6.19553 5.67831 6.24256 5.81031 6.17656 5.93818C6.11468 6.07018 6.06023 6.12876 5.96288 6.24096C5.86553 6.35316 5.77313 6.43896 5.67578 6.55941C5.58668 6.66418 5.48603 6.77638 5.59823 6.97026C5.71043 7.16001 6.09818 7.79278 6.66908 8.30098C7.40581 8.95686 8.0031 9.16641 8.21678 9.25551C8.376 9.32151 8.56575 9.30583 8.68208 9.18208C8.82976 9.02286 9.01208 8.75886 9.19771 8.49898C9.32971 8.31253 9.49636 8.28943 9.67126 8.35543C9.84946 8.4173 10.7924 8.88343 10.9863 8.97996C11.1802 9.07731 11.3081 9.12351 11.3551 9.20518C11.4013 9.28686 11.4013 9.67048 11.2421 10.1209Z" fill="#FAFAFA"/>
</g>
<defs>
<clipPath id="clip0">
<rect width="13.2" height="13.2" fill="white" transform="translate(0.800049 0.800781)"/>
</clipPath>
</defs>
</svg>
