<svg width="58" height="58" viewBox="0 0 58 58" fill="none" xmlns="http://www.w3.org/2000/svg">
<g clip-path="url(#clip0)">
<rect x="1" y="21.0002" width="56" height="16" rx="3" fill="#EF4932"/>
<path d="M25.3748 8.16882H7.24979C6.75598 8.16882 6.35596 8.56884 6.35596 9.06275C6.35596 9.55656 6.75598 9.95658 7.24979 9.95658H25.3748C25.8686 9.95658 26.2686 9.55656 26.2686 9.06275C26.2686 8.56884 25.8686 8.16882 25.3748 8.16882Z" fill="white"/>
<path d="M48.0304 11.7799C49.5315 11.7799 50.7484 10.563 50.7484 9.06193C50.7484 7.56086 49.5315 6.34399 48.0304 6.34399C46.5294 6.34399 45.3125 7.56086 45.3125 9.06193C45.3125 10.563 46.5294 11.7799 48.0304 11.7799Z" fill="white"/>
<path d="M54.375 0.000244141H3.625C1.62291 0.000244141 0 1.62316 0 3.62524V14.5002C0 16.5022 1.62291 18.1252 3.625 18.1252H54.375C56.377 18.1252 58 16.5022 58 14.5002V3.62524C58 1.62316 56.377 0.000244141 54.375 0.000244141ZM56.1875 14.5002C56.1875 15.4996 55.3744 16.3127 54.375 16.3127H3.625C2.62559 16.3127 1.8125 15.4996 1.8125 14.5002V3.62524C1.8125 2.62574 2.62559 1.81274 3.625 1.81274H54.375C55.3744 1.81274 56.1875 2.62574 56.1875 3.62524V14.5002Z" fill="white"/>
<path d="M25.3748 28.1063H7.24979C6.75598 28.1063 6.35596 28.5063 6.35596 29.0002C6.35596 29.4941 6.75598 29.8941 7.24979 29.8941H25.3748C25.8686 29.8941 26.2686 29.4941 26.2686 29.0002C26.2686 28.5063 25.8686 28.1063 25.3748 28.1063Z" fill="white"/>
<path d="M48.0304 31.7174C49.5315 31.7174 50.7484 30.5005 50.7484 28.9994C50.7484 27.4984 49.5315 26.2815 48.0304 26.2815C46.5294 26.2815 45.3125 27.4984 45.3125 28.9994C45.3125 30.5005 46.5294 31.7174 48.0304 31.7174Z" fill="white"/>
<path d="M54.375 19.9377H3.625C1.62291 19.9377 0 21.5607 0 23.5627V34.4377C0 36.4397 1.62291 38.0627 3.625 38.0627H54.375C56.377 38.0627 58 36.4397 58 34.4377V23.5627C58 21.5607 56.377 19.9377 54.375 19.9377ZM56.1875 34.4377C56.1875 35.4371 55.3744 36.2502 54.375 36.2502H3.625C2.62559 36.2502 1.8125 35.4371 1.8125 34.4377V23.5627C1.8125 22.5632 2.62559 21.7502 3.625 21.7502H54.375C55.3744 21.7502 56.1875 22.5632 56.1875 23.5627V34.4377Z" fill="white"/>
<path d="M25.3748 48.0438H7.24979C6.75598 48.0438 6.35596 48.4438 6.35596 48.9377C6.35596 49.4316 6.75598 49.8316 7.24979 49.8316H25.3748C25.8686 49.8316 26.2686 49.4316 26.2686 48.9377C26.2686 48.4438 25.8686 48.0438 25.3748 48.0438Z" fill="white"/>
<path d="M48.0304 51.6549C49.5315 51.6549 50.7484 50.438 50.7484 48.9369C50.7484 47.4359 49.5315 46.219 48.0304 46.219C46.5294 46.219 45.3125 47.4359 45.3125 48.9369C45.3125 50.438 46.5294 51.6549 48.0304 51.6549Z" fill="white"/>
<path d="M54.375 39.8752H3.625C1.62291 39.8752 0 41.4982 0 43.5002V54.3752C0 56.3772 1.62291 58.0002 3.625 58.0002H54.375C56.377 58.0002 58 56.3772 58 54.3752V43.5002C58 41.4982 56.377 39.8752 54.375 39.8752ZM56.1875 54.3752C56.1875 55.3746 55.3744 56.1877 54.375 56.1877H3.625C2.62559 56.1877 1.8125 55.3746 1.8125 54.3752V43.5002C1.8125 42.5007 2.62559 41.6877 3.625 41.6877H54.375C55.3744 41.6877 56.1875 42.5007 56.1875 43.5002V54.3752Z" fill="white"/>
</g>
<defs>
<clipPath id="clip0">
<rect width="58" height="58" fill="white" transform="translate(0 0.000244141)"/>
</clipPath>
</defs>
</svg>
