<svg width="58" height="58" viewBox="0 0 58 58" fill="none" xmlns="http://www.w3.org/2000/svg">
<g clip-path="url(#clip0)">
<rect x="1" y="17.0002" width="56" height="15" fill="#EF4932"/>
<path d="M53.1667 0.000244141H4.83333C2.16533 0.00338581 0.00314167 2.16558 0 4.83358V47.3669C0 47.9008 0.432825 48.3336 0.966667 48.3336H2.9V57.0336C2.9 57.5674 3.33282 58.0002 3.86667 58.0002H7.73333C8.26717 58.0002 8.7 57.5674 8.7 57.0336V52.2002H49.3V57.0336C49.3 57.5674 49.7328 58.0002 50.2667 58.0002H54.1333C54.6672 58.0002 55.1 57.5674 55.1 57.0336V48.3336H57.0333C57.5672 48.3336 58 47.9008 58 47.3669V4.83358C57.9969 2.16558 55.8347 0.00338581 53.1667 0.000244141ZM6.76667 56.0669H4.83333V52.2002H6.76667V56.0669ZM53.1667 56.0669H51.2333V52.2002H53.1667V56.0669ZM53.1667 50.2669H4.83333V48.3336H53.1667V50.2669ZM56.0667 46.4002H1.93333V32.8669H56.0667V46.4002ZM56.0667 30.9336H1.93333V17.4002H56.0667V30.9336ZM56.0667 15.4669H1.93333V4.83358C1.93333 3.23193 3.23169 1.93358 4.83333 1.93358H53.1667C54.7683 1.93358 56.0667 3.23193 56.0667 4.83358V15.4669Z" fill="white"/>
<path d="M29.0001 40.6003C30.6017 40.6003 31.9001 39.3019 31.9001 37.7003C31.9001 36.0986 30.6017 34.8003 29.0001 34.8003C27.3985 34.8003 26.1001 36.0986 26.1001 37.7003C26.1001 39.3019 27.3985 40.6003 29.0001 40.6003ZM29.0001 36.7336C29.5339 36.7336 29.9668 37.1664 29.9668 37.7003C29.9668 38.2341 29.5339 38.667 29.0001 38.667C28.4663 38.667 28.0334 38.2341 28.0334 37.7003C28.0334 37.1664 28.4663 36.7336 29.0001 36.7336Z" fill="white"/>
<path d="M29.0001 25.1336C30.6017 25.1336 31.9001 23.8353 31.9001 22.2336C31.9001 20.632 30.6017 19.3336 29.0001 19.3336C27.3985 19.3336 26.1001 20.632 26.1001 22.2336C26.1001 23.8353 27.3985 25.1336 29.0001 25.1336ZM29.0001 21.267C29.5339 21.267 29.9668 21.6998 29.9668 22.2336C29.9668 22.7675 29.5339 23.2003 29.0001 23.2003C28.4663 23.2003 28.0334 22.7675 28.0334 22.2336C28.0334 21.6998 28.4663 21.267 29.0001 21.267Z" fill="white"/>
<path d="M29.0001 3.86694C27.3985 3.86694 26.1001 5.1653 26.1001 6.76694C26.1001 8.36859 27.3985 9.66694 29.0001 9.66694C30.6017 9.66694 31.9001 8.36859 31.9001 6.76694C31.9001 5.1653 30.6017 3.86694 29.0001 3.86694ZM29.0001 7.73361C28.4663 7.73361 28.0334 7.30079 28.0334 6.76694C28.0334 6.2331 28.4663 5.80028 29.0001 5.80028C29.5339 5.80028 29.9668 6.2331 29.9668 6.76694C29.9668 7.30079 29.5339 7.73361 29.0001 7.73361Z" fill="white"/>
</g>
<defs>
<clipPath id="clip0">
<rect width="58" height="58" fill="white" transform="translate(0 0.000244141)"/>
</clipPath>
</defs>
</svg>
