<svg width="17" height="45" viewBox="0 0 17 45" fill="none" xmlns="http://www.w3.org/2000/svg">
<g opacity="0.2">
<circle r="1.17442" transform="matrix(1.19249e-08 1 1 -1.19249e-08 15.2674 1.17442)" fill="white"/>
<circle r="1.17442" transform="matrix(1.19249e-08 1 1 -1.19249e-08 1.17442 15.2674)" fill="white"/>
<circle r="1.17442" transform="matrix(1.19249e-08 1 1 -1.19249e-08 15.2674 15.2674)" fill="white"/>
<circle r="1.17442" transform="matrix(1.19249e-08 1 1 -1.19249e-08 1.17442 29.3605)" fill="white"/>
<circle r="1.17442" transform="matrix(1.19249e-08 1 1 -1.19249e-08 15.2674 29.3605)" fill="white"/>
<circle r="1.17442" transform="matrix(1.19249e-08 1 1 -1.19249e-08 1.17442 43.4535)" fill="white"/>
<circle r="1.17442" transform="matrix(1.19249e-08 1 1 -1.19249e-08 15.2674 43.4535)" fill="white"/>
</g>
</svg>
