<svg width="75" height="75" viewBox="0 0 75 75" fill="none" xmlns="http://www.w3.org/2000/svg">
<g opacity="0.2">
<circle r="0.872093" transform="matrix(-1 0 0 1 74.1279 74.1279)" fill="white"/>
<circle r="0.872093" transform="matrix(-1 0 0 1 63.6628 63.6628)" fill="white"/>
<circle r="0.872093" transform="matrix(-1 0 0 1 63.6628 74.1279)" fill="white"/>
<circle r="0.872093" transform="matrix(-1 0 0 1 53.1975 63.6628)" fill="white"/>
<circle r="0.872093" transform="matrix(-1 0 0 1 53.1975 74.1279)" fill="white"/>
<circle r="0.872093" transform="matrix(-1 0 0 1 42.7326 63.6628)" fill="white"/>
<circle r="0.872093" transform="matrix(-1 0 0 1 42.7326 74.1279)" fill="white"/>
<circle r="0.872093" transform="matrix(-1 0 0 1 11.3371 11.3372)" fill="white"/>
<circle r="0.872093" transform="matrix(-1 0 0 1 0.872048 0.872093)" fill="white"/>
<circle r="0.872093" transform="matrix(-1 0 0 1 0.872048 11.3372)" fill="white"/>
<circle r="0.872093" transform="matrix(-1 0 0 1 11.3371 21.8023)" fill="white"/>
<circle r="0.872093" transform="matrix(-1 0 0 1 11.3371 32.2674)" fill="white"/>
<circle r="0.872093" transform="matrix(-1 0 0 1 0.872048 21.8023)" fill="white"/>
<circle r="0.872093" transform="matrix(-1 0 0 1 0.872048 32.2675)" fill="white"/>
<circle r="0.872093" transform="matrix(-1 0 0 1 32.2676 63.6628)" fill="white"/>
<circle r="0.872093" transform="matrix(-1 0 0 1 32.2676 74.1279)" fill="white"/>
<circle r="0.872093" transform="matrix(-1 0 0 1 21.8025 63.6628)" fill="white"/>
<circle r="0.872093" transform="matrix(-1 0 0 1 21.8025 74.1279)" fill="white"/>
<circle r="0.872093" transform="matrix(-1 0 0 1 11.3371 42.7326)" fill="white"/>
<circle r="0.872093" transform="matrix(-1 0 0 1 11.3371 53.1977)" fill="white"/>
<circle r="0.872093" transform="matrix(-1 0 0 1 0.872048 42.7326)" fill="white"/>
<circle r="0.872093" transform="matrix(-1 0 0 1 0.872048 53.1977)" fill="white"/>
<circle r="0.872093" transform="matrix(-1 0 0 1 11.3371 63.6628)" fill="white"/>
<circle r="0.872093" transform="matrix(-1 0 0 1 11.3371 74.1279)" fill="white"/>
<circle r="0.872093" transform="matrix(-1 0 0 1 0.872048 63.6628)" fill="white"/>
<circle r="0.872093" transform="matrix(-1 0 0 1 0.872048 74.1279)" fill="white"/>
</g>
</svg>
