<svg width="31" height="31" viewBox="0 0 31 31" fill="none" xmlns="http://www.w3.org/2000/svg">
<circle cx="15.5" cy="15.5007" r="15.5" fill="#EF4932"/>
<path d="M15 10.0007C11.6916 10.0007 9 12.6924 9 16.0007C9 19.3091 11.6916 22.0007 15 22.0007C16.0551 22.0007 17.0925 21.7231 18.0007 21.1976L17.25 19.899C16.5696 20.2927 15.7914 20.5007 15 20.5007C12.5186 20.5007 10.5 18.4822 10.5 16.0007C10.5 13.5193 12.5186 11.5007 15 11.5007C17.4814 11.5007 19.5 13.5193 19.5 16.0007V16.654C19.5 17.1448 19.1847 17.5007 18.75 17.5007C18.3365 17.5007 18 17.1642 18 16.7507V13.7507H16.9632C16.4356 13.2898 15.754 13.0007 15 13.0007C13.3458 13.0007 12 14.3466 12 16.0007C12 17.6549 13.3458 19.0007 15 19.0007C15.7877 19.0007 16.4999 18.6892 17.0358 18.1909C17.4488 18.6817 18.0597 19.0007 18.75 19.0007C20.0116 19.0007 21 17.9699 21 16.654V16.0007C21 12.6924 18.3084 10.0007 15 10.0007V10.0007ZM15 17.5007C14.1727 17.5007 13.5 16.828 13.5 16.0007C13.5 15.1734 14.1727 14.5007 15 14.5007C15.8273 14.5007 16.5 15.1735 16.5 16.0007C16.5 16.828 15.8273 17.5007 15 17.5007Z" fill="white"/>
</svg>
