<svg width="19" height="20" viewBox="0 0 19 20" fill="none" xmlns="http://www.w3.org/2000/svg">
<g clip-path="url(#clip0)">
<path d="M17.4749 3.55193C16.5125 2.5081 15.192 1.93321 13.7562 1.93321C12.683 1.93321 11.7002 2.2725 10.835 2.94158C10.3984 3.2793 10.0028 3.69249 9.65399 4.17476C9.30534 3.69263 8.90959 3.2793 8.47286 2.94158C7.60776 2.2725 6.62493 1.93321 5.55174 1.93321C4.11601 1.93321 2.7953 2.5081 1.8329 3.55193C0.881981 4.58355 0.358154 5.99291 0.358154 7.52056C0.358154 9.09289 0.944108 10.5322 2.20212 12.0502C3.3275 13.408 4.94494 14.7865 6.81798 16.3826C7.45755 16.9277 8.18251 17.5456 8.93527 18.2038C9.13413 18.3779 9.38931 18.4738 9.65399 18.4738C9.91853 18.4738 10.1738 18.3779 10.3724 18.204C11.1252 17.5457 11.8506 16.9276 12.4904 16.3822C14.3632 14.7863 15.9806 13.408 17.106 12.05C18.364 10.5322 18.9498 9.09289 18.9498 7.52041C18.9498 5.99291 18.426 4.58355 17.4749 3.55193Z" fill="#EF4932"/>
</g>
<defs>
<clipPath id="clip0">
<rect width="18.5917" height="18.5917" fill="white" transform="translate(0.358154 0.916473)"/>
</clipPath>
</defs>
</svg>
