<svg width="159" height="34" viewBox="0 0 159 34" fill="none" xmlns="http://www.w3.org/2000/svg">
<path d="M49.8632 9.67148C49.2057 12.6418 46.7644 14.774 42.1258 14.774C36.7752 14.774 34.0925 11.439 34.0925 7.39814C34.0959 3.53958 36.7377 0.0356445 42.3256 0.0356445C47.2169 0.0356445 49.5245 2.52909 49.9002 5.08367H45.17C44.9662 4.30552 44.3697 3.14717 42.3063 3.14717C40.1159 3.14717 39.0384 4.8241 39.0384 7.29809C39.0384 9.54419 39.8922 11.6169 42.3194 11.6169C44.0691 11.6169 44.7869 10.8665 45.199 9.67148H49.8632Z" fill="white"/>
<path d="M56.963 11.8225L56.0505 14.4516H51.3459L56.8041 0.356934H62.9181L68.7343 14.4516H63.695L62.7149 11.8242L56.963 11.8225ZM61.6248 8.5615C60.6833 6.02471 60.1397 4.4217 59.7766 3.24223H59.7054C59.3918 4.40947 58.7526 6.41045 57.9853 8.5615H61.6248Z" fill="white"/>
<path d="M71.2656 0.356934H79.3826C82.8548 0.356934 85.2694 2.04331 85.2694 4.95085C85.2682 7.94843 82.9914 9.67149 79.4019 9.67149H75.9388V14.4516H71.2656V0.356934ZM75.9388 6.57109H78.6523C79.9188 6.57109 80.6519 6.07084 80.6519 4.98976C80.6519 4.08876 80.0952 3.44178 78.6523 3.44178H75.9388V6.57109Z" fill="white"/>
<path d="M93.0751 0.356934V14.4516H88.3792V0.356934H93.0751Z" fill="white"/>
<path d="M100.812 3.60519H96.0488V0.356934H110.235V3.60519H105.501V14.4516H100.812V3.60519Z" fill="white"/>
<path d="M115.444 11.8225L114.533 14.4499H109.828L115.285 0.356934H121.399L127.215 14.4516H122.175L121.196 11.8242L115.444 11.8225ZM120.104 8.55984C119.163 6.02304 118.619 4.42003 118.256 3.24057H118.185C117.871 4.4078 117.232 6.40878 116.465 8.55984H120.104Z" fill="white"/>
<path d="M129.746 0.356934H134.449V11.1889H142.196L141.646 14.4516H129.746V0.356934Z" fill="white"/>
<path d="M148.984 10.2094C149.287 11.1416 150.029 11.8413 151.909 11.8413C153.576 11.8413 154.094 11.3517 154.094 10.6502C154.094 9.90206 153.631 9.46351 150.925 9.00384C145.595 8.09284 144.827 6.31586 144.827 4.4605C144.827 1.67414 147.514 0.0483398 151.457 0.0483398C156.255 0.0483398 158.184 2.21607 158.369 4.29931H153.811C153.647 3.67234 153.241 2.95143 151.449 2.95143C150.18 2.95143 149.577 3.35496 149.577 4.01584C149.577 4.6656 150.18 4.97075 152.419 5.36873C157.873 6.32197 158.93 7.99446 158.93 10.1144C158.93 12.8029 156.615 14.7589 151.713 14.7589C146.875 14.7589 144.718 12.7579 144.288 10.2094H148.984Z" fill="white"/>
<path d="M34.0959 19.0093H37.2733V31.1652H45.9686L45.5372 33.6665H34.0959V19.0093Z" fill="white"/>
<path d="M63.1771 26.2867C63.1771 30.3743 60.3441 33.975 54.969 33.975C49.9121 33.975 46.938 30.58 46.938 26.2951C46.938 22.2525 50.0539 18.6958 55.1045 18.6958C60.2519 18.6958 63.1771 22.267 63.1771 26.2867ZM50.2975 26.2473C50.2975 29.1415 51.9232 31.5326 55.1358 31.5326C58.3991 31.5326 59.8182 28.9681 59.8182 26.3279C59.8182 23.5899 58.2938 21.1381 54.9918 21.1381C51.852 21.1381 50.2975 23.5754 50.2975 26.2473Z" fill="white"/>
<path d="M80.8001 33.6637H78.4663C78.3867 33.3302 78.2859 32.5148 78.2472 31.9484C77.271 33.2051 75.8912 33.975 73.0025 33.975C68.1322 33.975 65.334 30.7806 65.334 26.4068C65.334 22.1158 68.2871 18.6958 73.5876 18.6958C78.3485 18.6958 80.396 21.1492 80.8508 23.2908H77.6268C77.2363 22.3459 76.2202 21.0675 73.5808 21.0675C70.2554 21.0675 68.6946 23.3492 68.6946 26.2534C68.6946 29.3155 70.301 31.5927 73.5939 31.5927C76.3529 31.5927 77.7235 30.2198 77.7235 28.1054V27.8069H73.6337V25.3852H80.8001V33.6637Z" fill="white"/>
<path d="M87.4575 19.0093V33.6637H84.2739V19.0093H87.4575Z" fill="white"/>
<path d="M93.2375 29.3135C93.7094 30.7236 94.8375 31.6758 97.5066 31.6758C100.064 31.6758 100.894 30.842 100.894 29.7637C100.894 28.6148 100.154 27.9434 96.7273 27.3831C91.6932 26.5532 90.6937 24.988 90.6937 23.0126C90.6937 20.1979 93.4828 18.71 96.9772 18.71C102.092 18.71 103.423 21.2668 103.595 22.8981H100.398C100.154 22.0855 99.6047 21.0005 96.8805 21.0005C94.9901 21.0005 93.9353 21.598 93.9353 22.7136C93.9353 23.6735 94.5575 24.206 97.596 24.7207C103.262 25.6878 104.157 27.3564 104.157 29.4502C104.157 31.9242 102.139 33.9597 97.2237 33.9597C92.6449 33.9597 90.507 31.9715 90.0374 29.3135H93.2375Z" fill="white"/>
<path d="M110.652 21.4933H105.173V19.0093H119.308V21.4955H113.843V33.6681H110.656L110.652 21.4933Z" fill="white"/>
<path d="M124.738 19.0093V33.6637H121.555V19.0093H124.738Z" fill="white"/>
<path d="M143.214 29.1255C142.46 31.6823 140.416 33.974 135.799 33.974C130.505 33.974 127.853 30.4206 127.853 26.3541C127.853 22.2877 130.782 18.6948 135.968 18.6948C140.526 18.6948 142.758 21.121 143.249 23.5572H140.016C139.594 22.4939 138.646 21.1227 135.932 21.1227C132.89 21.1227 131.213 23.3382 131.213 26.2396C131.213 29.1411 132.797 31.5606 135.953 31.5606C138.334 31.5606 139.345 30.6296 140.01 29.1255H143.214Z" fill="white"/>
<path d="M147.921 29.3135C148.393 30.7236 149.522 31.6758 152.191 31.6758C154.747 31.6758 155.577 30.842 155.577 29.7637C155.577 28.6148 154.837 27.9434 151.411 27.3831C146.377 26.5532 145.377 24.988 145.377 23.0126C145.377 20.1979 148.166 18.71 151.661 18.71C156.776 18.71 158.107 21.2668 158.278 22.8981H155.082C154.837 22.0855 154.288 21.0005 151.564 21.0005C149.674 21.0005 148.619 21.598 148.619 22.7136C148.619 23.6735 149.241 24.206 152.279 24.7207C157.946 25.6878 158.841 27.3564 158.841 29.4502C158.841 31.9242 156.823 33.9597 151.908 33.9597C147.328 33.9597 145.191 31.9715 144.721 29.3135H147.921Z" fill="white"/>
<path d="M23.9036 29.053L23.8387 29.3126H23.8382L22.661 33.9999H0L8.52001 0.00878906H13.7357L6.45775 29.053H23.9036Z" fill="white"/>
<path d="M20.0938 4.9551L15.869 21.845H25.7136L24.4716 26.7914H9.41016L16.1201 0.00878906H31.1815L29.9389 4.9551H20.0938Z" fill="white"/>
<path d="M20.0938 4.9551L15.869 21.845H25.7136L24.4716 26.7914H9.41016L16.1201 0.00878906H31.1815L29.9389 4.9551H20.0938Z" fill="white"/>
<path d="M29.939 4.95508L25.7137 21.845H15.8691L20.0938 4.95508H29.939Z" fill="#E7343B"/>
</svg>
