<svg width="38" height="38" viewBox="0 0 38 38" fill="none" xmlns="http://www.w3.org/2000/svg">
<circle cx="19" cy="19" r="19" fill="#363F5F"/>
<g clip-path="url(#clip0)">
<path d="M13.6667 16.5C13.6667 14.754 15.0874 13.3333 16.8334 13.3333H22.9221C22.7028 12.566 22.0034 12 21.1668 12H13.5001C12.4887 12 11.6667 12.822 11.6667 13.8333V24.1667C11.6667 25.178 12.4887 26 13.5001 26H13.6667V16.5Z" fill="#EF4932"/>
<path d="M24.5 14.6666H16.8333C15.822 14.6666 15 15.4886 15 16.5V26.1666C15 27.178 15.822 28 16.8333 28H24.5C25.5113 28 26.3333 27.178 26.3333 26.1666V16.5C26.3333 15.4886 25.5113 14.6666 24.5 14.6666ZM23.1667 26H18.1667C17.8907 26 17.6667 25.776 17.6667 25.5C17.6667 25.224 17.8907 25 18.1667 25H23.1667C23.4427 25 23.6667 25.224 23.6667 25.5C23.6667 25.776 23.4427 26 23.1667 26ZM23.1667 23.3333H18.1667C17.8907 23.3333 17.6667 23.1093 17.6667 22.8333C17.6667 22.5573 17.8907 22.3333 18.1667 22.3333H23.1667C23.4427 22.3333 23.6667 22.5573 23.6667 22.8333C23.6667 23.1093 23.4427 23.3333 23.1667 23.3333ZM23.1667 21H18.1667C17.8907 21 17.6667 20.776 17.6667 20.5C17.6667 20.224 17.8907 20 18.1667 20H23.1667C23.4427 20 23.6667 20.224 23.6667 20.5C23.6667 20.776 23.4427 21 23.1667 21ZM23.1667 18.3333H18.1667C17.8907 18.3333 17.6667 18.1093 17.6667 17.8333C17.6667 17.5573 17.8907 17.3333 18.1667 17.3333H23.1667C23.4427 17.3333 23.6667 17.5573 23.6667 17.8333C23.6667 18.1093 23.4427 18.3333 23.1667 18.3333Z" fill="#EF4932"/>
</g>
<defs>
<clipPath id="clip0">
<rect width="16" height="16" fill="white" transform="translate(11 12)"/>
</clipPath>
</defs>
</svg>
