<svg width="33" height="34" viewBox="0 0 33 34" fill="none" xmlns="http://www.w3.org/2000/svg">
<circle cx="16.5" cy="17.489" r="16.5" fill="#EF4932"/>
<path d="M20.1349 19.5561C19.5292 19.5561 18.936 19.4615 18.3738 19.276C18.0994 19.1814 17.7878 19.2543 17.6075 19.4382L16.4928 20.28C15.2139 19.5974 14.3954 18.7794 13.722 17.5097L14.5411 16.4215C14.7473 16.2153 14.8212 15.9135 14.7328 15.6308C14.5457 15.065 14.4507 14.4713 14.4507 13.8667C14.4507 13.4393 14.1029 13.0916 13.6755 13.0916H11.8669C11.4396 13.0916 11.0918 13.4393 11.0918 13.8667C11.0918 18.8528 15.1488 22.9097 20.1349 22.9097C20.5622 22.9097 20.91 22.562 20.91 22.1346V20.3312C20.91 19.9038 20.5622 19.5561 20.1349 19.5561Z" fill="white"/>
</svg>
