<svg width="38" height="38" viewBox="0 0 38 38" fill="none" xmlns="http://www.w3.org/2000/svg">
<path d="M10.5 15.5C11.3 19.9 16.5 27.3333 19 30.5C25.5 22.5 27.5 15 28 13C28.5 11 28 1.00001 19 2.00001C9.99999 3.00001 9.49999 10 10.5 15.5Z" fill="#EF4932"/>
<circle cx="19" cy="11" r="4" fill="#2E3758"/>
<path d="M23.3869 10.9906C23.3868 10.1229 23.1294 9.27484 22.6473 8.5535C22.1651 7.83215 21.48 7.26996 20.6783 6.93801C19.8767 6.60607 18.9947 6.51928 18.1437 6.68862C17.2928 6.85795 16.5112 7.27581 15.8977 7.88936C15.2843 8.5029 14.8665 9.28458 14.6973 10.1355C14.5281 10.9865 14.615 11.8685 14.947 12.6701C15.2791 13.4717 15.8414 14.1568 16.5628 14.6388C17.2842 15.1208 18.1323 15.3781 19 15.3781C20.1631 15.3767 21.2782 14.9139 22.1006 14.0914C22.923 13.2689 23.3856 12.1537 23.3869 10.9906ZM15.6521 10.9906C15.6522 10.3285 15.8487 9.68124 16.2166 9.13077C16.5845 8.58029 17.1074 8.15128 17.7192 7.89798C18.331 7.64468 19.0041 7.57847 19.6535 7.70771C20.3028 7.83696 20.8993 8.15586 21.3675 8.62409C21.8356 9.09232 22.1544 9.68885 22.2835 10.3383C22.4127 10.9877 22.3463 11.6608 22.0929 12.2725C21.8395 12.8842 21.4104 13.407 20.8599 13.7749C20.3093 14.1427 19.6621 14.339 19 14.339C18.1123 14.338 17.2612 13.9849 16.6336 13.3571C16.0059 12.7294 15.653 11.8783 15.6521 10.9906Z" fill="white"/>
<path d="M36.613 35.9423L32.3777 24.8391C32.3402 24.7408 32.2737 24.6563 32.187 24.5966C32.1003 24.5369 31.9976 24.5049 31.8924 24.5049H23.8767C23.9257 24.425 23.9744 24.3475 24.0234 24.2674C27.1076 19.1611 28.6597 14.6943 28.6374 10.9929C28.6378 8.43681 27.6229 5.98524 25.8157 4.1775C24.0086 2.36977 21.5574 1.35395 19.0013 1.35352C16.4452 1.35308 13.9936 2.36807 12.1859 4.17519C10.3782 5.98232 9.36235 8.43354 9.36191 10.9896C9.33965 14.6943 10.8917 19.1617 13.9759 24.2674C14.0249 24.3484 14.0736 24.4259 14.1226 24.5049H6.10697C6.00174 24.5049 5.899 24.5369 5.81233 24.5966C5.72566 24.6563 5.65915 24.7408 5.62158 24.8391L1.38696 35.9423C1.35679 36.0209 1.34622 36.1058 1.35617 36.1894C1.36613 36.2731 1.3963 36.3531 1.44409 36.4225C1.49188 36.4919 1.55585 36.5486 1.63046 36.5877C1.70508 36.6268 1.7881 36.6472 1.87235 36.6471H36.1276C36.2118 36.6472 36.2948 36.6268 36.3695 36.5877C36.4441 36.5486 36.508 36.4919 36.5558 36.4225C36.6036 36.3531 36.6338 36.2731 36.6437 36.1894C36.6537 36.1058 36.6431 36.0209 36.613 35.9423ZM10.4013 10.9905C10.4015 9.86133 10.6241 8.74323 11.0564 7.70006C11.4887 6.6569 12.1222 5.70909 12.9208 4.91077C13.7194 4.11244 14.6674 3.47923 15.7108 3.04729C16.7541 2.61534 17.8722 2.39313 19.0014 2.39332C20.1306 2.39351 21.2487 2.61612 22.2919 3.04842C23.3351 3.48073 24.2829 4.11427 25.0812 4.91287C25.8795 5.71147 26.5127 6.65949 26.9447 7.7028C27.3766 8.74612 27.5988 9.8643 27.5986 10.9935C27.6432 18.3732 20.7438 27.4751 19 29.6577C17.2561 27.476 10.3564 18.3765 10.4013 10.9905ZM18.6042 30.8155C18.653 30.8729 18.7136 30.9189 18.782 30.9505C18.8503 30.9821 18.9247 30.9985 19 30.9985C19.0752 30.9985 19.1496 30.9821 19.2179 30.9505C19.2863 30.9189 19.3469 30.8729 19.3957 30.8155C20.7751 29.1352 22.0539 27.3747 23.2254 25.5433H31.534L32.199 27.2875L15.9626 33.062L10.1754 25.5424H14.7739C15.9456 27.3741 17.2246 29.1349 18.6042 30.8155ZM15.9445 34.1702H15.9475L25.6336 30.7265L29.3906 35.608H11.9046L15.9445 34.1702ZM6.4653 25.5424H8.86405L14.9328 33.428L8.80438 35.6077H2.62641L6.4653 25.5424ZM30.7031 35.608L26.6629 30.3586L32.5707 28.2577L35.3741 35.608H30.7031Z" fill="white"/>
</svg>
