<svg width="38" height="38" viewBox="0 0 38 38" fill="none" xmlns="http://www.w3.org/2000/svg">
<g clip-path="url(#clip0)">
<circle cx="27.5498" cy="27.55" r="9.5" fill="#EF4932"/>
<path d="M27.7082 37.9998C22.0335 37.9998 17.4165 33.3828 17.4165 27.7082C17.4165 22.0335 22.0335 17.4165 27.7082 17.4165C33.3829 17.4165 37.9999 22.0335 37.9999 27.7082C37.9999 33.3828 33.3829 37.9998 27.7082 37.9998ZM27.7082 18.9998C22.9059 18.9998 18.9998 22.9059 18.9998 27.7082C18.9998 32.5104 22.9059 36.4165 27.7082 36.4165C32.5104 36.4165 36.4165 32.5104 36.4165 27.7082C36.4165 22.9059 32.5104 18.9998 27.7082 18.9998Z" fill="white"/>
<path d="M31.6665 32.4582C31.4939 32.4582 31.3182 32.4012 31.1725 32.2856L27.2142 29.1189C27.0258 28.9669 26.9165 28.7405 26.9165 28.4998V22.9582C26.9165 22.5212 27.2712 22.1665 27.7082 22.1665C28.1452 22.1665 28.4998 22.5212 28.4998 22.9582V28.1198L32.1605 31.049C32.5009 31.3229 32.5563 31.8201 32.284 32.1621C32.1288 32.3568 31.8977 32.4582 31.6665 32.4582Z" fill="white"/>
<path d="M15.0417 31.6667H2.0995C0.942083 31.6667 0 30.7246 0 29.5672V10.2917C0 9.85467 0.354667 9.5 0.791667 9.5H30.875C31.312 9.5 31.6667 9.85467 31.6667 10.2917V15.0417C31.6667 15.4787 31.312 15.8333 30.875 15.8333C30.438 15.8333 30.0833 15.4787 30.0833 15.0417V11.0833H1.58333V29.5672C1.58333 29.8522 1.8145 30.0833 2.0995 30.0833H15.0417C15.4787 30.0833 15.8333 30.438 15.8333 30.875C15.8333 31.312 15.4787 31.6667 15.0417 31.6667Z" fill="white"/>
<path d="M30.875 11.0833C30.5964 11.0833 30.3256 10.9361 30.1815 10.6733L25.3999 1.99342C25.2621 1.74008 24.9961 1.58333 24.708 1.58333H6.95879C6.67062 1.58333 6.40462 1.74008 6.26529 1.99342L1.48362 10.6733C1.27304 11.0564 0.791707 11.1958 0.40854 10.9852C0.0269566 10.7746 -0.112377 10.2917 0.0982066 9.91008L4.87987 1.23025C5.29629 0.47025 6.09429 0 6.95879 0H24.708C25.5725 0 26.3705 0.47025 26.7869 1.22867L31.5685 9.9085C31.7791 10.2917 31.6398 10.773 31.2566 10.9836C31.1363 11.0517 31.0049 11.0833 30.875 11.0833Z" fill="white"/>
<path d="M15.8332 11.0833C15.3962 11.0833 15.0415 10.7287 15.0415 10.2917V0.791667C15.0415 0.354667 15.3962 0 15.8332 0C16.2702 0 16.6248 0.354667 16.6248 0.791667V10.2917C16.6248 10.7287 16.2702 11.0833 15.8332 11.0833Z" fill="white"/>
</g>
<defs>
<clipPath id="clip0">
<rect width="38" height="38" fill="white"/>
</clipPath>
</defs>
</svg>
