<svg width="40" height="40" viewBox="0 0 40 40" fill="none" xmlns="http://www.w3.org/2000/svg">
<g clip-path="url(#clip0)">
<ellipse cx="25.5" cy="9" rx="3.5" ry="4" fill="#EF4932"/>
<path d="M24.0001 9.34217C24.1769 9.34225 24.3465 9.27202 24.4716 9.14694C24.5966 9.02194 24.6669 8.85233 24.6669 8.67545C24.6672 8.30741 24.9654 8.00913 25.3335 8.00882C25.7017 8.00882 26.0001 7.71038 26.0001 7.34218C26.0001 6.97397 25.7017 6.67554 25.3335 6.67554C24.2294 6.67671 23.3347 7.57147 23.3335 8.67553C23.3334 8.85233 23.4037 9.02194 23.5287 9.14702C23.6537 9.27194 23.8233 9.34217 24.0001 9.34217Z" fill="white"/>
<path d="M39.3432 18.7831L37.7637 16.3908C37.609 16.1569 37.617 15.8512 37.7839 15.6258L39.1954 13.7079C39.4798 13.3304 39.5401 12.8296 39.3536 12.3954C39.1671 11.9539 38.7584 11.6463 38.2826 11.5893L36.4298 11.3579C36.1151 11.3126 35.7946 11.3294 35.4864 11.4074L30.808 12.4667C30.2242 12.5996 29.6476 12.7616 29.0801 12.9524L27.3334 13.542V12.8853C29.1224 12.0398 30.1845 10.1589 29.9846 8.19028C29.7847 6.22169 28.3661 4.59271 26.4437 4.12412C24.5213 3.65553 22.5122 4.44912 21.4289 6.1049C20.3456 7.76068 20.4231 9.91942 21.6224 11.4932L17.304 10.6925C16.9709 10.6395 16.63 10.7111 16.3464 10.8937L11.5749 14.0295C11.4616 14.1072 11.3597 14.2003 11.2722 14.3061L10.0436 15.8351C9.59692 16.3937 9.46278 17.1402 9.687 17.8194C9.91122 18.4986 10.4635 19.0185 11.155 19.2013C11.2336 19.2218 11.3082 19.2554 11.3757 19.3006L11.6329 19.8996C11.6709 19.9883 11.7277 20.0678 11.7995 20.1323C12.3208 20.6033 13.0504 20.7678 13.7233 20.5659C14.3811 20.3784 14.8944 19.8626 15.0788 19.2039L15.4792 17.9773C15.6544 17.4399 16.0462 17.0002 16.5599 16.7644L17.5853 16.3103V17.5768C17.5872 18.079 17.8703 18.5378 18.3183 18.7646L20.5553 19.9001L16.7564 21.3451C16.7207 21.3565 16.6965 21.3672 16.7011 21.3685C16.6672 21.3792 16.6343 21.3928 16.6028 21.4092L14.6419 22.4096C14.3667 22.5482 14.0528 22.5905 13.7507 22.5297L12.4304 22.2628C11.4378 22.0633 10.4065 22.243 9.53973 22.7663L7.377 24.0798L3.76826 26.1768C2.91233 26.6725 2.54553 27.7183 2.90436 28.64L3.19732 29.3845C3.27037 29.5727 3.2542 29.784 3.15342 29.959C3.05264 30.134 2.87795 30.2539 2.67842 30.2852L1.67584 30.4577C1.1503 30.5431 0.680845 30.8355 0.372486 31.2695C0.0640495 31.697 -0.060169 32.2302 0.0274089 32.75L0.287174 34.3307C0.444361 35.3002 1.28295 36.0115 2.26506 36.0084H4.40506C5.04037 36.0104 5.63841 35.7091 6.01505 35.1976L7.30279 33.4512C7.43052 33.2841 7.59349 33.147 7.77997 33.0498L9.16927 32.3451C9.51856 32.1709 9.92567 32.1546 10.2878 32.3002L15.1028 34.251C15.5124 34.4209 15.9798 34.3742 16.3476 34.1266C16.7214 33.8776 16.9458 33.458 16.9453 33.0088V32.8487C16.9507 32.61 16.8847 32.3752 16.7558 32.1742L16.399 31.5548L16.6464 31.7217C17.3986 32.2301 18.0596 32.8618 18.6015 33.5902L19.1744 34.3698C19.6457 35.013 20.4551 35.313 21.2317 35.1322L25.4556 34.1849C26.2297 34.0078 26.827 33.3916 26.9797 32.6124L27.1067 31.975C27.2591 31.2133 27.9294 30.6659 28.7063 30.669C29.0509 30.67 29.3868 30.7771 29.6685 30.9756L33.0943 33.4545C33.6031 33.8259 34.2425 33.9712 34.8619 33.8562C34.8769 33.8539 34.8912 33.8516 34.9055 33.8487C35.6837 33.6905 36.3241 33.1398 36.5972 32.394C36.8702 31.6482 36.7368 30.8141 36.2446 30.1909L35.6352 29.4086L38.6463 26.7433C39.5077 25.9842 40.0008 24.8911 39.9998 23.7429V20.9832C40.0015 20.2014 39.773 19.4363 39.3432 18.7831ZM25.3335 5.34209C27.1744 5.34209 28.6668 6.83443 28.6668 8.67544C28.6668 10.5164 27.1745 12.0088 25.3335 12.0088C23.4925 12.0088 22.0001 10.5165 22.0001 8.67544C22.0023 6.83529 23.4934 5.3442 25.3335 5.34209ZM26.0001 13.3421V21.3421C26.0001 21.7103 25.7017 22.0087 25.3335 22.0087C24.9653 22.0087 24.6668 21.7103 24.6668 21.3421V13.3421H26.0001ZM38.6668 23.7431C38.6678 24.5086 38.339 25.2375 37.7644 25.7434L34.7352 28.425C34.222 28.9002 34.1584 29.6894 34.5887 30.2408L35.1987 31.0174C35.4073 31.2741 35.4636 31.6224 35.3465 31.9318C35.2378 32.2358 34.982 32.4635 34.6674 32.5363C34.6551 32.5379 34.6427 32.5402 34.6297 32.5427C34.3664 32.5959 34.093 32.535 33.8771 32.3754L30.4462 29.8927C29.9375 29.5323 29.33 29.3377 28.7066 29.3357C27.2924 29.3327 26.0739 30.3313 25.799 31.7185L25.672 32.3559C25.6205 32.6176 25.4202 32.8246 25.1603 32.8848L20.9364 33.8324C20.6776 33.8934 20.4074 33.7942 20.2495 33.5805L19.6733 32.797C19.0414 31.9466 18.2701 31.2094 17.3921 30.6166L17.1421 30.4477C16.6221 30.0884 15.9205 30.1472 15.4676 30.5881C15.012 31.0096 14.9176 31.6944 15.2424 32.2234L15.6121 32.8488L15.6096 33.0177L10.7932 31.0663C10.0747 30.7715 9.26341 30.8037 8.57052 31.1545L7.17466 31.8621C6.80615 32.052 6.48505 32.3224 6.23521 32.6531L4.9442 34.4031C4.8181 34.5745 4.61795 34.6756 4.40513 34.6752H2.26514C1.93639 34.6762 1.65561 34.4384 1.60241 34.1141L1.34264 32.532C1.3142 32.3609 1.35545 32.1856 1.45725 32.0451C1.56155 31.8987 1.72045 31.8005 1.89803 31.7727L2.90131 31.5998C3.49654 31.5015 4.01568 31.1399 4.31412 30.6156C4.61256 30.0913 4.65849 29.4602 4.43912 28.8982L4.14553 28.1527C4.02529 27.8458 4.14764 27.497 4.43326 27.3324L8.05763 25.2263L10.2295 23.9077C10.8116 23.5599 11.5016 23.4396 12.167 23.5698L13.4801 23.8351C14.0746 23.9547 14.6921 23.8732 15.2353 23.6036L17.1839 22.6098L17.1957 22.6045L17.2093 22.5992L21.0374 21.1432C21.5322 20.9525 21.8662 20.4858 21.8871 19.956C21.9156 19.4322 21.6296 18.9417 21.1599 18.7085L18.919 17.5768V16.3101C18.9211 15.8601 18.6964 15.4393 18.3214 15.1907C17.9464 14.942 17.4714 14.8989 17.0577 15.0761L16.0036 15.5526C15.155 15.9471 14.5069 16.6746 14.2126 17.563L13.8018 18.8234C13.7424 19.0475 13.5692 19.2237 13.3461 19.2869C13.1593 19.3439 12.957 19.3177 12.7908 19.215L12.5382 18.6271C12.5031 18.5448 12.4518 18.4705 12.3872 18.4086C12.1368 18.1701 11.8299 17.999 11.4953 17.9115C11.2397 17.847 11.0355 17.6553 10.9549 17.4043C10.869 17.1527 10.9181 16.8746 11.0851 16.6677L12.3117 15.1403L17.0773 12.0059L23.3338 13.1694V21.3415C23.3338 22.446 24.2292 23.3415 25.3338 23.3415C26.4383 23.3415 27.3338 22.446 27.3338 21.3415V14.9482L29.5017 14.2165C30.0988 14.0203 30.6066 13.8777 31.1007 13.767L35.7999 12.7029C35.9472 12.6647 36.1006 12.6564 36.2511 12.6784L38.1235 12.915L36.7127 14.8314C36.2137 15.5069 36.1887 16.4219 36.6502 17.1237L38.2303 19.5166C38.5166 19.9519 38.6684 20.4617 38.6672 20.9827V23.7431H38.6668Z" fill="white"/>
<path d="M1.85961 22.2131L1.40321 23.1343C1.24016 23.4624 1.37282 23.8606 1.70008 24.0253L2.70594 24.5328C3.1143 24.7405 3.60117 24.7218 3.99242 24.4833L6.77499 22.7988C7.07866 22.6161 7.29687 22.3198 7.38108 21.9756L7.98069 19.5557C8.05562 19.2536 7.91155 18.9399 7.63366 18.7998L6.4989 18.2276L6.07765 17.3773L6.59718 16.3282C6.76015 16 6.62749 15.6019 6.30031 15.4369L5.21304 14.8887L4.78531 13.5935C4.60648 13.0459 4.09578 12.6755 3.51969 12.6755H2.66695C1.92938 12.6781 1.33297 13.2771 1.3336 14.0148V18.0499C1.33368 18.2256 1.40313 18.3943 1.52696 18.519L2.00031 18.9972V19.239L1.40328 20.4441C1.35727 20.5361 1.33344 20.6375 1.3336 20.7404V21.4041C1.3336 21.5783 1.40188 21.7457 1.52367 21.8703L1.85961 22.2131ZM2.66695 20.8963L3.26398 19.6909C3.31 19.5991 3.33391 19.4977 3.33367 19.395V18.7225C3.33359 18.5468 3.26414 18.3782 3.14031 18.2534L2.66695 17.7752V14.0087L3.51914 14.0112L4.03414 15.5688C4.08961 15.7365 4.20922 15.8752 4.36679 15.9549L5.10898 16.3293L4.73656 17.0812C4.6439 17.2676 4.64367 17.4865 4.73586 17.673L5.4025 19.0184C5.46687 19.1477 5.57117 19.2527 5.69999 19.3179L6.55804 19.7508L6.08468 21.6581L3.30609 23.3427L2.89141 23.1334L3.26383 22.3811C3.38992 22.1274 3.34156 21.8216 3.14336 21.6191L2.6668 21.1322V20.8963H2.66695Z" fill="white"/>
</g>
<defs>
<clipPath id="clip0">
<rect width="40" height="40" fill="white"/>
</clipPath>
</defs>
</svg>
