<svg width="49" height="50" viewBox="0 0 49 50" fill="none" xmlns="http://www.w3.org/2000/svg">
<g clip-path="url(#clip0)">
<path d="M38.6623 7.23518C34.4696 3.04243 28.895 0.733398 22.9656 0.733398C17.0362 0.733398 11.4616 3.04243 7.26887 7.23518C3.07612 11.4279 0.76709 17.0025 0.76709 22.9319C0.76709 28.8614 3.07612 34.4359 7.26887 38.6287C11.4616 42.8214 17.0361 45.1305 22.9656 45.1305C24.2692 45.1305 25.5759 45.0165 26.8494 44.7917C27.2398 44.7228 27.5004 44.3505 27.4315 43.9601C27.3626 43.5697 26.9906 43.3094 26.5999 43.378C25.4085 43.5883 24.1858 43.6949 22.9656 43.6949C17.4196 43.6949 12.2056 41.5352 8.284 37.6136C4.36237 33.6919 2.20273 28.4779 2.20273 22.9319C2.20273 19.6386 2.96434 16.4623 4.40419 13.6041L7.49588 19.8811C8.40774 21.7325 10.4577 22.7406 12.4805 22.3329L13.8913 22.0486C14.4277 21.9405 14.9811 21.9498 15.5103 22.0685L11.2472 25.036C10.6439 25.4558 10.2714 26.1173 10.2248 26.8507C10.1782 27.5842 10.4642 28.2874 11.0094 28.7802L12.5456 30.1686L12.8558 36.6841C12.9042 37.6991 13.4892 38.6307 14.3824 39.1151C14.8212 39.3531 15.2974 39.4726 15.7748 39.4726C16.2048 39.4726 16.6357 39.3756 17.0411 39.1812C17.8966 38.7707 18.4843 37.9999 18.6534 37.0661L19.4472 32.6845C19.5914 31.8884 19.9731 31.1682 20.5509 30.6021L22.2629 28.9244C22.9146 28.2858 23.2402 27.3983 23.1561 26.4897C23.0719 25.5811 22.5891 24.7685 21.8313 24.2603L17.6224 21.4379C16.8064 20.8907 15.8477 20.5847 14.8738 20.5436L14.5804 19.3638C14.5277 19.1521 14.5752 18.9326 14.7108 18.7617C14.8465 18.5906 15.0522 18.495 15.2675 18.4976L16.5506 18.5162C17.594 18.5348 18.5897 17.9923 19.1472 17.1095L22.3874 11.9792C22.8602 11.2306 22.9806 10.3163 22.7178 9.4709C22.4551 8.62546 21.8378 7.94051 21.024 7.59177L19.4746 6.92769C18.8367 6.65436 18.1211 6.68757 17.5115 7.01928C17.015 7.28925 16.6463 7.72566 16.4633 8.24772L15.8429 8.15317C15.404 8.08617 15.0281 7.845 14.7843 7.47396C14.5406 7.10302 14.4684 6.6623 14.5811 6.23298L15.2616 3.64057C17.6796 2.6755 20.2835 2.16895 22.9656 2.16895C28.5116 2.16895 33.7256 4.32868 37.6472 8.25021C37.7785 8.38151 37.9075 8.51445 38.0348 8.64862L36.5132 10.406L35.642 10.21C34.5644 9.9677 33.4795 10.5339 33.0623 11.5566L32.1482 13.7974C31.9213 14.3537 31.9323 14.9616 32.1791 15.5092C32.4224 16.049 32.8824 16.4707 33.4412 16.6663C33.6744 16.748 33.9144 16.787 34.152 16.787C34.8971 16.7869 35.6169 16.4022 36.0171 15.7386L36.3996 15.1046L42.333 15.4184C42.7246 16.4289 43.0353 17.4714 43.2639 18.5376L37.0078 17.6238C35.7111 17.4344 34.4169 17.8372 33.4568 18.7289C32.4967 19.6207 31.9995 20.8818 32.0929 22.1888C32.2298 24.1052 33.64 25.7129 35.5222 26.0984L36.3384 26.2656C37.0999 26.4215 37.6704 27.072 37.7258 27.8473L37.7848 28.6728C37.8118 29.0508 38.1268 29.3394 38.5 29.3394C38.5172 29.3394 38.5344 29.3389 38.5518 29.3375C38.9472 29.3093 39.2448 28.9658 39.2166 28.5704L39.1576 27.7449C39.0566 26.3303 38.0157 25.1436 36.6264 24.8591L35.8101 24.6919C34.5558 24.435 33.616 23.3636 33.5248 22.0865C33.4626 21.2154 33.7939 20.375 34.4337 19.7807C35.0736 19.1864 35.9362 18.9179 36.8003 19.0442L43.5268 20.0267C43.6596 20.9812 43.7285 21.9511 43.7285 22.9316C43.7285 24.6667 43.5141 26.391 43.0914 28.0564C42.9939 28.4407 43.2264 28.8313 43.6105 28.9288C43.9949 29.0263 44.3853 28.7938 44.4828 28.4097C44.9348 26.6289 45.1641 24.7858 45.1641 22.9316C45.1641 17.0025 42.855 11.4279 38.6623 7.23518ZM21.0316 25.4527C21.4291 25.7194 21.6824 26.1456 21.7266 26.6222C21.7706 27.0988 21.5998 27.5643 21.258 27.8993L19.5461 29.577C18.7547 30.3525 18.232 31.3386 18.0345 32.4288L17.2408 36.8105C17.1546 37.2858 16.8555 37.6782 16.42 37.8871C15.9845 38.096 15.4912 38.0837 15.0667 37.8535C14.612 37.6069 14.3142 37.1326 14.2897 36.6159L13.9652 29.8024C13.9561 29.6115 13.8713 29.4322 13.7295 29.304L11.9718 27.7154C11.7532 27.5178 11.6387 27.2359 11.6572 26.9419C11.6759 26.6478 11.8253 26.3827 12.0671 26.2144L17.0226 22.7644L21.0316 25.4527ZM15.6262 9.57235L16.9118 9.76844C17.299 9.82749 17.6614 9.56584 17.7275 9.18025L17.7824 8.85993C17.8249 8.61197 17.9761 8.40075 18.1971 8.28055C18.4182 8.16034 18.6775 8.14819 18.9089 8.24734L20.4583 8.91142C20.8851 9.09441 21.209 9.45368 21.3468 9.89707C21.4846 10.3406 21.4214 10.8201 21.1734 11.2128L17.9332 16.3432C17.6407 16.8062 17.1146 17.0892 16.5712 17.081L15.2881 17.0625C14.6194 17.0495 14.0006 17.347 13.5859 17.8695C13.1713 18.3922 13.0259 19.0631 13.187 19.7105L13.4276 20.6775L12.1967 20.9256C10.8113 21.2048 9.40784 20.5145 8.78347 19.2468L5.25853 12.077C6.10388 10.7037 7.11489 9.41922 8.2839 8.25021C9.86032 6.67388 11.6458 5.38285 13.5774 4.4017L13.1923 5.86864C12.9781 6.68479 13.1209 7.55732 13.5843 8.26246C14.0479 8.9677 14.792 9.44516 15.6262 9.57235ZM36.0454 13.6483C35.7814 13.6347 35.5298 13.7674 35.3929 13.9944L34.788 14.9973C34.6091 15.2938 34.2421 15.426 33.9155 15.3115C33.7234 15.2443 33.5715 15.105 33.488 14.9196C33.4044 14.7341 33.4007 14.5281 33.4776 14.3397L34.3916 12.0988C34.5429 11.728 34.9361 11.523 35.3269 11.6105L36.6172 11.9008C36.8749 11.9591 37.1442 11.8703 37.3174 11.6704L38.9951 9.73265C40.0714 11.0349 40.9748 12.4492 41.6947 13.947L36.0454 13.6483Z" fill="#EF4932"/>
<path d="M42.046 30.653C40.3286 30.653 38.7029 31.3679 37.542 32.6013C36.381 31.3679 34.7553 30.653 33.038 30.653C29.6266 30.653 26.8511 33.4283 26.8511 36.8399C26.8511 43.282 36.7479 49.3728 37.1692 49.6289C37.2838 49.6985 37.4129 49.7333 37.5421 49.7333C37.6713 49.7333 37.8004 49.6985 37.9149 49.6289C38.3362 49.3728 48.233 43.282 48.233 36.8399C48.233 33.4283 45.4575 30.653 42.046 30.653ZM42.0611 44.6749C40.2031 46.3764 38.3212 47.6583 37.542 48.1652C36.7628 47.6583 34.8809 46.3765 33.0229 44.6749C30.8622 42.6961 28.2865 39.7305 28.2865 36.84C28.2865 34.2201 30.418 32.0886 33.0379 32.0886C34.599 32.0886 36.0618 32.8584 36.951 34.148C37.085 34.3423 37.3059 34.4584 37.5419 34.4584C37.7779 34.4584 37.9989 34.3424 38.1327 34.148C39.0219 32.8585 40.4847 32.0886 42.0459 32.0886C44.6657 32.0886 46.7972 34.2201 46.7972 36.84C46.7974 39.7305 44.2218 42.696 42.0611 44.6749Z" fill="#EF4932"/>
<path d="M28.9602 10.6342C29.2386 10.9163 29.6931 10.9193 29.9753 10.6408L32.4202 8.22712C32.6958 7.95504 32.7059 7.51327 32.4429 7.22894C32.3321 7.10931 29.6759 4.32195 24.8531 6.41881C24.5147 6.56591 24.3429 6.94566 24.4561 7.29698L26.2461 12.859C26.344 13.1632 26.6258 13.357 26.9292 13.357C27.002 13.357 27.0762 13.3458 27.1492 13.3223C27.5266 13.2008 27.734 12.7965 27.6125 12.4191L26.0286 7.49748C28.4354 6.64725 30.0493 7.28167 30.8354 7.77435L28.9667 9.61912C28.6847 9.89762 28.6817 10.3521 28.9602 10.6342Z" fill="#EF4932"/>
</g>
<defs>
<clipPath id="clip0">
<rect width="49" height="49" fill="white" transform="translate(0 0.733398)"/>
</clipPath>
</defs>
</svg>
